<?xml version="1.0" encoding="UTF-8" standalone="no"?>
<!-- Created with Inkscape (http://www.inkscape.org/) -->

<svg
   width="52.45211mm"
   height="74.974625mm"
   viewBox="0 0 52.45211 74.974625"
   version="1.1"
   id="svg1"
   xml:space="preserve"
   inkscape:version="1.3.2 (091e20e, 2023-11-25, custom)"
   sodipodi:docname="drawing.svg"
   xmlns:inkscape="http://www.inkscape.org/namespaces/inkscape"
   xmlns:sodipodi="http://sodipodi.sourceforge.net/DTD/sodipodi-0.dtd"
   xmlns="http://www.w3.org/2000/svg"
   xmlns:svg="http://www.w3.org/2000/svg"><sodipodi:namedview
     id="namedview1"
     pagecolor="#ffffff"
     bordercolor="#000000"
     borderopacity="0.25"
     inkscape:showpageshadow="2"
     inkscape:pageopacity="0.0"
     inkscape:pagecheckerboard="0"
     inkscape:deskcolor="#d1d1d1"
     inkscape:document-units="mm"
     inkscape:zoom="16.912312"
     inkscape:cx="236.30714"
     inkscape:cy="869.5736"
     inkscape:window-width="2560"
     inkscape:window-height="1017"
     inkscape:window-x="1912"
     inkscape:window-y="564"
     inkscape:window-maximized="1"
     inkscape:current-layer="layer1" /><defs
     id="defs1" /><g
     inkscape:label="Layer 1"
     inkscape:groupmode="layer"
     id="layer1"
     transform="translate(-107.67871,-211.38374)"><path
       style="fill:#ffffff;fill-opacity:1;stroke:#fefffe;stroke-width:1.503;stroke-linecap:round;stroke-linejoin:miter;stroke-dasharray:none;stroke-opacity:1;paint-order:stroke markers fill"
       d="m 125.13647,285.67221 c -17.07623,-7.62779 -18.31721,-20.94181 -15.58914,-30.35931 1.96428,-6.7808 4.87675,-11.69572 3.19939,-15.26151 2.2512,0.54871 4.90052,3.29577 6.81436,7.30111 11.68422,-12.8354 -2.58874,-25.78139 16.04456,-34.60726 -5.31804,21.06118 11.2927,14.90738 15.6378,40.27114 1.87278,-1.17563 3.82898,-3.53567 4.33641,-9.02681 1.12618,1.81988 13.13423,31.59891 -12.38974,41.41716 12.06299,-8.40225 3.05318,-26.8592 3.05318,-26.8592 -0.47642,4.2022 -0.56109,6.64933 -1.79208,7.83208 -1.84093,-14.26749 -12.35236,-10.55205 -8.65071,-23.98302 -12.6044,4.10682 -5.39839,13.8721 -10.31004,19.86785 -1.6457,-2.32656 -1.50341,-2.65929 -5.70814,-4.33641 4.80674,2.77719 -9.99413,15.96953 5.35415,27.74418 z"
       id="path26"
       sodipodi:nodetypes="cscccccccccccc"
       inkscape:export-filename="Activefire.svg"
       inkscape:export-xdpi="96"
       inkscape:export-ydpi="96" /></g></svg>
