<?xml version="1.0" encoding="UTF-8" standalone="no"?>
<!-- Created with Inkscape (http://www.inkscape.org/) -->

<svg
   width="38.148361mm"
   height="88.174171mm"
   viewBox="0 0 38.148361 88.174171"
   version="1.1"
   id="svg1"
   xml:space="preserve"
   inkscape:version="1.3.2 (091e20e, 2023-11-25, custom)"
   sodipodi:docname="drawing.svg"
   xmlns:inkscape="http://www.inkscape.org/namespaces/inkscape"
   xmlns:sodipodi="http://sodipodi.sourceforge.net/DTD/sodipodi-0.dtd"
   xmlns="http://www.w3.org/2000/svg"
   xmlns:svg="http://www.w3.org/2000/svg"><sodipodi:namedview
     id="namedview1"
     pagecolor="#ffffff"
     bordercolor="#000000"
     borderopacity="0.25"
     inkscape:showpageshadow="2"
     inkscape:pageopacity="0.0"
     inkscape:pagecheckerboard="0"
     inkscape:deskcolor="#d1d1d1"
     inkscape:document-units="mm"
     inkscape:zoom="16.912312"
     inkscape:cx="236.30714"
     inkscape:cy="869.5736"
     inkscape:window-width="2560"
     inkscape:window-height="1017"
     inkscape:window-x="1912"
     inkscape:window-y="564"
     inkscape:window-maximized="1"
     inkscape:current-layer="layer1" /><defs
     id="defs1" /><g
     inkscape:label="Layer 1"
     inkscape:groupmode="layer"
     id="layer1"
     transform="translate(-25.664586,-201.87708)"><path
       style="fill:none;stroke:#ffffff;stroke-width:1.503;stroke-linecap:round;stroke-linejoin:round;stroke-dasharray:none;stroke-opacity:1;paint-order:stroke markers fill"
       d="m 55.298943,220.51015 c 4.15504,0.73103 6.63001,8.10101 7.53701,10.30927 0.64286,2.01174 -0.23912,1.85829 -0.77364,1.97144 l -7.98624,-0.48721 -3.92521,-0.72585 c 0,0 -1.88206,-1.57315 -1.90271,-1.76996 -0.0733,-0.69863 0.177,-8.58433 0.177,-8.58433 0.902,-0.41821 1.68602,4.70883 2.51238,7.84552 l 5.4681,0.32714 2.15701,-0.74909 -0.096,-0.2081 c -1.51202,0.18526 -2.23827,-1.10119 -3.18966,-1.32275 z"
       id="path1"
       sodipodi:nodetypes="cccccsccccccc" /><path
       style="fill:none;stroke:#ffffff;stroke-width:1.503;stroke-linecap:round;stroke-linejoin:round;stroke-dasharray:none;stroke-opacity:1;paint-order:stroke markers fill"
       d="m 41.222943,220.49528 c -4.15503,0.73103 -6.63,8.10101 -7.537,10.30927 -0.64287,2.01174 0.23912,1.85829 0.77364,1.97144 l 7.98623,-0.48721 3.92522,-0.72585 c 0,0 1.88205,-1.57315 1.90271,-1.76996 0.0733,-0.69863 -0.177,-8.58433 -0.177,-8.58433 -0.902,-0.41821 -1.68602,4.70883 -2.51238,7.84552 l -5.4681,0.32714 -2.15701,-0.74909 0.096,-0.2081 c 1.51202,0.18526 2.23827,-1.10119 3.18965,-1.32275 z"
       id="path1-6"
       sodipodi:nodetypes="cccccsccccccc" /><path
       style="fill:none;stroke:#ffffff;stroke-width:1.503;stroke-linecap:round;stroke-linejoin:round;stroke-dasharray:none;stroke-opacity:1;paint-order:stroke markers fill"
       d="m 54.836343,241.51394 c 1.27479,4.38664 -0.27991,15.98393 -1.49184,26.70769 -1.94736,0.33573 -3.39367,-0.33066 -4.75835,-1.16029 0.32654,-1.48108 0.0358,-2.34146 0.0592,-3.93314 0.0583,-3.96227 0.56364,-9.38637 0.66978,-10.78348 0.23288,-3.06548 -2.95782,-2.51119 -4.1871,-1.43745 -4.42778,0.49869 -7.12585,-0.24883 -13.29612,3.36117 l 2.07717,-0.88964 -2.24735,5.11239 c -4.93909,1.91859 -6.49415,-2.06606 -4.22275,-4.39121 6.34734,-8.77151 13.41501,-8.07208 15.74896,-12.97132 z"
       id="path1-5"
       sodipodi:nodetypes="cccssccccccc" /><path
       style="fill:none;stroke:#ffffff;stroke-width:1.503;stroke-linecap:round;stroke-linejoin:round;stroke-dasharray:none;stroke-opacity:1;paint-order:stroke markers fill"
       d="m 41.787783,241.84359 c 0.81786,-3.15816 1.09504,-6.32598 0.2655,-9.51356"
       id="path2"
       sodipodi:nodetypes="cc" /><path
       style="fill:none;stroke:#ffffff;stroke-width:1.503;stroke-linecap:round;stroke-linejoin:round;stroke-dasharray:none;stroke-opacity:1;paint-order:stroke markers fill"
       d="m 54.310283,232.68403 c -0.68275,3.37244 -0.56712,6.25166 0.51993,8.7392"
       id="path3"
       sodipodi:nodetypes="cc" /><path
       style="fill:none;stroke:#ffffff;stroke-width:1.503;stroke-linecap:round;stroke-linejoin:round;stroke-dasharray:none;stroke-opacity:1;paint-order:stroke markers fill"
       d="m 53.801413,236.84345 -10.95165,-3e-5"
       id="path5"
       sodipodi:nodetypes="cc" /><path
       style="fill:none;stroke:#ffffff;stroke-width:1.503;stroke-linecap:round;stroke-linejoin:round;stroke-dasharray:none;stroke-opacity:1;paint-order:stroke markers fill"
       d="m 41.335253,220.45249 4.44231,-0.74817"
       id="path6"
       sodipodi:nodetypes="cc" /><path
       style="fill:none;stroke:#ffffff;stroke-width:1.503;stroke-linecap:round;stroke-linejoin:round;stroke-dasharray:none;stroke-opacity:1;paint-order:stroke markers fill"
       d="m 55.239743,220.48715 -4.59163,-0.82555"
       id="path7"
       sodipodi:nodetypes="cc" /><path
       style="fill:none;stroke:#ffffff;stroke-width:1.503;stroke-linecap:round;stroke-linejoin:round;stroke-dasharray:none;stroke-opacity:1;paint-order:stroke markers fill"
       d="m 45.776033,205.65121 c -0.46958,-4.3243 5.98516,-3.78086 5.01464,0.18254"
       id="path8"
       sodipodi:nodetypes="cc" /><path
       style="fill:none;stroke:#ffffff;stroke-width:1.503;stroke-linecap:round;stroke-linejoin:round;stroke-dasharray:none;stroke-opacity:1;paint-order:stroke markers fill"
       d="m 44.095453,211.41765 c -0.42528,-8.81602 8.8498,-7.93348 8.56354,-0.337"
       id="path9"
       sodipodi:nodetypes="cc" /><path
       style="fill:none;stroke:#ffffff;stroke-width:1.503;stroke-linecap:round;stroke-linejoin:round;stroke-dasharray:none;stroke-opacity:1;paint-order:stroke markers fill"
       d="m 30.769763,258.79099 c 4.90435,-1.42096 10.11296,-2.71746 14.4252,-4.38065 0.62743,1.53565 1.09327,2.0918 1.82528,4.28111 -0.42122,2.34131 0.94089,2.16786 1.51553,2.54431"
       id="path10"
       sodipodi:nodetypes="cccc" /><path
       style="fill:none;stroke:#ffffff;stroke-width:1.503;stroke-linecap:round;stroke-linejoin:round;stroke-dasharray:none;stroke-opacity:1;paint-order:stroke markers fill"
       d="m 48.609963,266.92762 c -0.40516,2.87293 -1.21083,5.7141 -1.10154,12.9255 l -1.60547,3.0094 c 0.21231,1.95714 0.0265,3.76114 -0.13275,5.57538 0.27537,0.87175 1.27343,1.08273 3.00894,0.61949 0.62899,-0.44523 1.2026,-1.07506 1.76997,-1.72571 -0.97488,-1.01115 -1.32496,-2.78855 -1.19473,-5.15502 1.56651,-4.84381 3.19778,-9.69572 3.84967,-14.42521"
       id="path23"
       sodipodi:nodetypes="cccccccc" /><path
       style="fill:none;stroke:#ffffff;stroke-width:1.503;stroke-linecap:round;stroke-linejoin:round;stroke-dasharray:none;stroke-opacity:1;paint-order:stroke markers fill"
       d="m 45.914013,216.34505 0.12375,3.78722 c 0.0666,2.03719 4.28928,2.16981 4.38747,-0.0347 l 0.16812,-3.77462"
       id="path24"
       sodipodi:nodetypes="cssc" /><path
       style="fill:none;stroke:#ffffff;stroke-width:1.503;stroke-linecap:round;stroke-linejoin:round;stroke-dasharray:none;stroke-opacity:1;paint-order:stroke markers fill"
       d="m 44.088743,211.44445 c 1.18365,8.3498 7.66826,7.02572 8.54767,0.10104 0.48722,-3.83653 -7.82214,-6.2885 -8.54767,-0.10104 z"
       id="path25"
       sodipodi:nodetypes="csc"
       inkscape:export-filename="Activeyoga.svg"
       inkscape:export-xdpi="96"
       inkscape:export-ydpi="96" /></g></svg>
