<?xml version="1.0" encoding="UTF-8" standalone="no"?>
<!-- Created with Inkscape (http://www.inkscape.org/) -->

<svg
   width="167.61324mm"
   height="149.38391mm"
   viewBox="0 0 167.61324 149.38391"
   version="1.1"
   id="svg1"
   xml:space="preserve"
   xmlns:inkscape="http://www.inkscape.org/namespaces/inkscape"
   xmlns:sodipodi="http://sodipodi.sourceforge.net/DTD/sodipodi-0.dtd"
   xmlns="http://www.w3.org/2000/svg"
   xmlns:svg="http://www.w3.org/2000/svg"><sodipodi:namedview
     id="namedview1"
     pagecolor="#ffffff"
     bordercolor="#000000"
     borderopacity="0.25"
     inkscape:showpageshadow="2"
     inkscape:pageopacity="0.0"
     inkscape:pagecheckerboard="0"
     inkscape:deskcolor="#d1d1d1"
     inkscape:document-units="mm"><inkscape:page
       x="0"
       y="0"
       width="167.61324"
       height="149.38391"
       id="page2"
       margin="0"
       bleed="0" /></sodipodi:namedview><defs
     id="defs1" /><g
     inkscape:label="Layer 1"
     inkscape:groupmode="layer"
     id="layer1"
     transform="translate(394.66448,-2585.0514)"><path
       style="fill:#013948;fill-opacity:1;stroke:#013948;stroke-width:8.50101;stroke-linecap:round;stroke-linejoin:round;stroke-miterlimit:2;stroke-dasharray:none;stroke-opacity:1;paint-order:fill markers stroke"
       d="m -355.1404,2730.1848 123.8387,-1.9516 c -2.92662,-18.4981 -22.20546,-26.8779 -55.00001,-34.0648 l -0.009,-10.5028 c 11.76429,-1.6136 15.72176,-11.5254 17.80803,-20.8861 l 0.29765,-29.998 c -0.17903,-6.579 -7.62423,-14.8719 -14.36575,-14.8513 l -20.18797,-0.9732 c -9.27708,3.4347 -13.92347,11.9517 -14.8943,20.0379 l 0.52335,26.6323 c 1.27802,9.3876 8.29664,18.4218 15.29742,20.0851 l -0.25983,10.811 c -17.4683,3.9268 -51.07644,10.8474 -53.04839,35.6615 z"
       id="path8"
       sodipodi:nodetypes="ccccccccccccc" /><path
       style="fill:#013948;fill-opacity:1;stroke:#013948;stroke-width:8.50101;stroke-linecap:round;stroke-linejoin:round;stroke-miterlimit:2;stroke-dasharray:none;stroke-opacity:1;paint-order:fill markers stroke"
       d="m -390.41419,2700.2812 h 37.13452 c 8.79513,-6.8793 18.67885,-11.7299 32.17351,-14.9229 -8.01637,-8.9896 -10.15957,-19.0063 -10.01445,-36.1384 0.19843,-23.4265 9.37605,-40.861 25.88997,-43.5314 -1.83208,-21.1909 -46.0076,-23.092 -48.80177,1.7564 l 0.25091,28.8545 c 0.24996,11.2373 10.19941,21.0443 16.81091,24.2126 l -0.50182,11.6674 c -40.28566,-5.218 -52.94178,28.1018 -52.94178,28.1018 z"
       id="path9"
       sodipodi:nodetypes="cccscccccc" /></g></svg>
