<?xml version="1.0" encoding="UTF-8" standalone="no"?>
<!-- Created with Inkscape (http://www.inkscape.org/) -->

<svg
   width="151.02538mm"
   height="35.537876mm"
   viewBox="0 0 151.02538 35.537876"
   version="1.1"
   id="svg1"
   xml:space="preserve"
   xmlns:inkscape="http://www.inkscape.org/namespaces/inkscape"
   xmlns:sodipodi="http://sodipodi.sourceforge.net/DTD/sodipodi-0.dtd"
   xmlns="http://www.w3.org/2000/svg"
   xmlns:svg="http://www.w3.org/2000/svg"><sodipodi:namedview
     id="namedview1"
     pagecolor="#ffffff"
     bordercolor="#000000"
     borderopacity="0.25"
     inkscape:showpageshadow="2"
     inkscape:pageopacity="0.0"
     inkscape:pagecheckerboard="0"
     inkscape:deskcolor="#d1d1d1"
     inkscape:document-units="mm"
     showgrid="true"><inkscape:grid
       id="grid4"
       units="mm"
       originx="-30.251009"
       originy="-44.631581"
       spacingx="0.99999998"
       spacingy="1"
       empcolor="#0099e5"
       empopacity="0.30196078"
       color="#0099e5"
       opacity="0.14901961"
       empspacing="5"
       dotted="false"
       gridanglex="30"
       gridanglez="30"
       visible="true" /></sodipodi:namedview><defs
     id="defs1" /><g
     inkscape:label="Layer 1"
     inkscape:groupmode="layer"
     id="layer1"
     transform="translate(-30.251008,-44.631579)"><path
       style="fill:#ace2e4;fill-opacity:1;stroke-width:5.09299;stroke-linecap:round"
       d="m 169.25541,80.165031 5.00674,-0.001 0.0151,-16.9708 c 0.30553,-2.70642 1.632,-2.85035 2.9823,-2.9487 l 4.01684,-0.0516 -0.0114,-5.02986 -19.01081,0.005 0.001,4.97542 2.98615,0.0614 c 1.20094,0.0981 3.69686,-0.49112 4.03503,2.98861 z"
       id="path1-6-4-3"
       sodipodi:nodetypes="ccccccccccc" /><path
       style="fill:#ace2e4;fill-opacity:1;stroke-width:5.09299;stroke-linecap:round"
       d="m 153.24391,80.168041 5.01221,0.001 0.009,-22.00301 -5.01065,0.99828 z"
       id="path1-6-40-3"
       sodipodi:nodetypes="ccccc" /><path
       style="fill:#ace2e4;fill-opacity:1;stroke-width:5.09299;stroke-linecap:round"
       d="m 130.25209,80.163521 5.00364,0.002 -0.002,-10.00065 11.00023,5.5e-4 0.002,-5.00408 -8.39569,0.004 c -2.44044,-0.12529 -2.64173,-2.37934 -2.60673,-5.00555 l 12.00543,0.002 -0.003,-4.99211 -17.00036,-0.006 z"
       id="path1-6-8-1"
       sodipodi:nodetypes="ccccccccccc" /><path
       style="fill:#ace2e4;fill-opacity:1;stroke-width:5.09299;stroke-linecap:round"
       d="m 85.065848,80.169451 3.40022,-0.0378 10.93647,-24.85233 -5.02223,-0.15487 -6.30733,14.05749 c -0.41669,0.94762 -1.18609,1.01721 -1.54162,-0.003 l -6.18706,-14.08344 -5.10172,0.11743 z"
       id="path1-6-8-6-2"
       sodipodi:nodetypes="ccccccccc" /><path
       style="fill:#ace2e4;fill-opacity:1;stroke-width:5.09299;stroke-linecap:round"
       d="m 30.254648,80.162771 4.99835,6.5e-4 0.004,-20.00111 6.98953,0.51168 c 4.24429,0.88443 3.93446,6.40323 1.12221,6.74452 l -6.61768,-0.25937 1.42372,3.79978 c 3.24425,-0.25415 6.13937,6.14001 8.08089,9.20795 l 5.99782,-0.001 -6.68911,-9.11804 c 3.49292,-0.53611 4.87434,-4.02657 4.51476,-7.27494 -0.43344,-3.91571 -2.37245,-7.71715 -7.75104,-8.12202 l -12.07709,-0.49006 z"
       id="path1-8"
       sodipodi:nodetypes="ccccccccccsccc" /><path
       style="fill:#ace2e4;fill-opacity:1;stroke-width:5.09299;stroke-linecap:round"
       d="m 55.253578,80.166251 16.99975,0.003 0.003,-5.00598 -9.37006,-0.0386 c -2.24029,-0.19135 -2.92415,-1.83145 -2.6329,-4.959 l 10.99981,-0.003 0.004,-4.99964 -8.4588,-0.027 c -2.92037,-0.23807 -2.6265,-3.04134 -2.5553,-4.94908 l 11.98485,0.0798 0.0442,-5.06652 -17.02021,-0.0348 z"
       id="path1-6-9"
       sodipodi:nodetypes="ccccccccccccc" /><ellipse
       style="fill:none;fill-opacity:0.615686;stroke:#ace2e4;stroke-width:5.34602;stroke-linecap:round;stroke-opacity:1"
       id="path2-5"
       cx="113.98779"
       cy="67.498291"
       rx="10.338396"
       ry="9.9844046" /><ellipse
       style="fill:#444c88;fill-opacity:1;stroke:#023948;stroke-width:4.5456;stroke-linecap:round;stroke-opacity:1"
       id="path3-1"
       cx="155.17958"
       cy="49.149269"
       rx="2.1979573"
       ry="2.2448902" /></g></svg>
