<?xml version="1.0" encoding="UTF-8" standalone="no"?>
<!-- Created with Inkscape (http://www.inkscape.org/) -->

<svg
   width="139.22031mm"
   height="135.67899mm"
   viewBox="0 0 139.22031 135.67899"
   version="1.1"
   id="svg1"
   xml:space="preserve"
   inkscape:version="1.3.2 (091e20e, 2023-11-25, custom)"
   sodipodi:docname="RevoIconBase.svg"
   xmlns:inkscape="http://www.inkscape.org/namespaces/inkscape"
   xmlns:sodipodi="http://sodipodi.sourceforge.net/DTD/sodipodi-0.dtd"
   xmlns="http://www.w3.org/2000/svg"
   xmlns:svg="http://www.w3.org/2000/svg"><sodipodi:namedview
     id="namedview1"
     pagecolor="#ffffff"
     bordercolor="#000000"
     borderopacity="0.25"
     inkscape:showpageshadow="2"
     inkscape:pageopacity="0.0"
     inkscape:pagecheckerboard="0"
     inkscape:deskcolor="#d1d1d1"
     inkscape:document-units="mm"
     inkscape:zoom="0.74742565"
     inkscape:cx="472.95674"
     inkscape:cy="642.87331"
     inkscape:window-width="2560"
     inkscape:window-height="1017"
     inkscape:window-x="1912"
     inkscape:window-y="564"
     inkscape:window-maximized="1"
     inkscape:current-layer="layer1" /><defs
     id="defs1"><clipPath
       clipPathUnits="userSpaceOnUse"
       id="clipPath83"><path
         id="path83"
         style="fill:#000000;fill-opacity:0;stroke:#6c6c6c;stroke-width:1.16159;stroke-linecap:round;stroke-linejoin:round;stroke-dasharray:none;stroke-opacity:1"
         class="powerclip"
         d="M 14.207506,-166.65791 H 144.88522 V -31.737784 H 14.207506 Z m 14.66115,34.32862 c 13.606073,6.15336 38.452737,0.51561 57.122314,3.47545 18.5824,1.3048 18.01507,32.59537 -3.270208,25.06741 l -15.772905,0.0524 c 3.945496,8.733297 31.692887,35.428006 48.467643,53.217444 0.12379,0.50016 9.83228,-8.918784 11.54906,-11.704307 -8.29278,1.269722 -24.52794,-19.942725 -30.67407,-27.80783 30.55536,-11.777817 12.17098,-51.406257 -8.971592,-49.760797 l -52.856138,0.0863 c -3.220784,3.16577 -6.928168,8.19441 -9.372653,13.87523 -6.298643,14.63762 -7.628451,34.847325 -0.465069,49.519138 l 42.398876,-0.537496 c 4.156398,-0.553482 5.139801,-9.096184 -1.236189,-9.521542 l -44.232532,0.01802 c -0.642902,-2.762811 -0.974626,-5.265261 -1.244565,-7.932232 l 37.077516,-0.01069 c 5.021677,-1.366107 3.998756,-9.567888 -0.361009,-9.685368 l -37.111427,0.14844 c 0.26933,-2.83816 0.533085,-5.72059 1.274091,-8.3648 l 42.479852,0.34934 c 4.864362,-0.31522 4.668483,-8.82849 -0.43321,-9.0545 l -39.566266,-0.51949 c 1.355035,-3.89554 3.280392,-7.40027 5.198481,-10.90995 z"
         sodipodi:nodetypes="ccccccccccccccscccccccccccccc" /></clipPath></defs><g
     inkscape:label="Layer 1"
     inkscape:groupmode="layer"
     id="layer1"
     transform="translate(33.376439,249.44102)"><rect
       style="fill:#033a49;fill-opacity:1;stroke:none;stroke-width:0.964827;stroke-linecap:round;stroke-linejoin:round;stroke-dasharray:none;stroke-opacity:1"
       id="rect75"
       width="131.33626"
       height="118.6142"
       x="8.9802551"
       y="-159.39954"
       mask="none"
       clip-path="url(#clipPath83)"
       transform="translate(-34.660417,-82.285416)" /><rect
       style="fill:#033a49;fill-opacity:1;stroke:none;stroke-width:0.993;stroke-linecap:round;stroke-linejoin:round;stroke-dasharray:none;stroke-opacity:1"
       id="rect83-1"
       width="5.5658903"
       height="7.2964602"
       x="-20.535265"
       y="-194.2639"
       ry="0"
       transform="rotate(0.86464153)" /><rect
       style="fill:#033a49;fill-opacity:1;stroke:none;stroke-width:0.993;stroke-linecap:round;stroke-linejoin:round;stroke-dasharray:none;stroke-opacity:1"
       id="rect83"
       width="5.5658903"
       height="7.2964602"
       x="-13.283296"
       y="-210.98924"
       ry="0" /><rect
       style="fill:#033a49;fill-opacity:1;stroke:none;stroke-width:0.993;stroke-linecap:round;stroke-linejoin:round;stroke-dasharray:none;stroke-opacity:1"
       id="rect83-7"
       width="5.5658903"
       height="7.2964602"
       x="-121.84105"
       y="-178.9715"
       ry="0"
       transform="rotate(31.988432)" /><rect
       style="fill:#033a49;fill-opacity:1;stroke:none;stroke-width:1.03542;stroke-linecap:round;stroke-linejoin:round;stroke-dasharray:none;stroke-opacity:1"
       id="rect83-72"
       width="5.5658903"
       height="7.9331141"
       x="-16.874952"
       y="-176.56677"
       ry="0" /><rect
       style="fill:#033a49;fill-opacity:1;stroke:none;stroke-width:0.684214;stroke-linecap:round;stroke-linejoin:round;stroke-dasharray:none;stroke-opacity:1"
       id="rect84"
       width="14.816668"
       height="118.60717"
       x="-33.320961"
       y="-241.68033" /><rect
       style="fill:#033a49;fill-opacity:1;stroke:none;stroke-width:0.873336;stroke-linecap:round;stroke-linejoin:round;stroke-dasharray:none;stroke-opacity:1"
       id="rect84-7"
       width="139.17084"
       height="20.572708"
       x="-33.326977"
       y="-249.44101" /><rect
       style="fill:#033a49;fill-opacity:1;stroke:none;stroke-width:0.777136;stroke-linecap:round;stroke-linejoin:round;stroke-dasharray:none;stroke-opacity:1"
       id="rect84-7-0"
       width="139.17084"
       height="16.290085"
       x="-33.376442"
       y="-130.05211" /></g></svg>
