<?xml version="1.0" encoding="UTF-8" standalone="no"?>
<!-- Created with Inkscape (http://www.inkscape.org/) -->

<svg
   width="154.50105mm"
   height="122.76816mm"
   viewBox="0 0 154.50105 122.76816"
   version="1.1"
   id="svg1"
   xml:space="preserve"
   xmlns:inkscape="http://www.inkscape.org/namespaces/inkscape"
   xmlns:sodipodi="http://sodipodi.sourceforge.net/DTD/sodipodi-0.dtd"
   xmlns="http://www.w3.org/2000/svg"
   xmlns:svg="http://www.w3.org/2000/svg"><sodipodi:namedview
     id="namedview1"
     pagecolor="#ffffff"
     bordercolor="#000000"
     borderopacity="0.25"
     inkscape:showpageshadow="2"
     inkscape:pageopacity="0.0"
     inkscape:pagecheckerboard="0"
     inkscape:deskcolor="#d1d1d1"
     inkscape:document-units="mm"><inkscape:page
       x="0"
       y="0"
       width="154.50105"
       height="122.76816"
       id="page2"
       margin="0"
       bleed="0" /></sodipodi:namedview><defs
     id="defs1" /><g
     inkscape:label="Layer 1"
     inkscape:groupmode="layer"
     id="layer1"
     transform="translate(391.21594,-898.82496)"><path
       d="m -256.17919,1001.0973 c 23.90421,-25.82071 16.25612,-67.77769 0.21246,-83.08298"
       style="fill:none;stroke:#013948;stroke-width:8.501;stroke-linecap:round;stroke-miterlimit:2;stroke-dasharray:none;stroke-opacity:1;paint-order:fill markers stroke"
       id="path1-0-8-3"
       sodipodi:nodetypes="cc" /><path
       d="m -284.32889,983.92569 c 16.64416,-16.65999 13.70465,-38.95599 1.98665,-51.14747"
       style="fill:none;stroke:#013948;stroke-width:8.501;stroke-linecap:round;stroke-miterlimit:2;stroke-dasharray:none;stroke-opacity:1;paint-order:fill markers stroke"
       id="path1-0-8"
       sodipodi:nodetypes="cc" /><path
       style="fill:#013948;fill-opacity:1;stroke:#013948;stroke-width:8.50101;stroke-linecap:round;stroke-miterlimit:2;stroke-dasharray:none;stroke-opacity:1;paint-order:fill markers stroke"
       d="m -386.95162,940.67741 0.10763,33.16998 c -0.5248,6.0042 3.97519,11.161 9.29561,11.5397 h 21.46774 l 32.29033,28.91931 c 6.97056,5.495 13.07789,2.9526 13.09674,-3.2187 l 0.0323,-103.05546 c -0.18313,-5.11712 -6.15762,-7.85881 -14.19355,-0.17742 l -27.50001,25.01613 -25.90321,0.8871 c -3.91742,-0.26572 -8.49255,3.46555 -8.69356,6.91936 z"
       id="path5"
       sodipodi:nodetypes="ccccccccccc" /></g></svg>
