<?xml version="1.0" encoding="UTF-8" standalone="no"?>
<!-- Created with Inkscape (http://www.inkscape.org/) -->

<svg
   width="61.844021mm"
   height="61.969185mm"
   viewBox="0 0 61.844021 61.969185"
   version="1.1"
   id="svg1"
   xml:space="preserve"
   inkscape:version="1.3.2 (091e20e, 2023-11-25, custom)"
   sodipodi:docname="bluePeventIcon.svg"
   xmlns:inkscape="http://www.inkscape.org/namespaces/inkscape"
   xmlns:sodipodi="http://sodipodi.sourceforge.net/DTD/sodipodi-0.dtd"
   xmlns="http://www.w3.org/2000/svg"
   xmlns:svg="http://www.w3.org/2000/svg"><sodipodi:namedview
     id="namedview1"
     pagecolor="#ffffff"
     bordercolor="#000000"
     borderopacity="0.25"
     inkscape:showpageshadow="2"
     inkscape:pageopacity="0.0"
     inkscape:pagecheckerboard="0"
     inkscape:deskcolor="#d1d1d1"
     inkscape:document-units="mm"
     inkscape:zoom="1"
     inkscape:cx="728.5"
     inkscape:cy="237.5"
     inkscape:window-width="2560"
     inkscape:window-height="1017"
     inkscape:window-x="1912"
     inkscape:window-y="5"
     inkscape:window-maximized="1"
     inkscape:current-layer="layer1" /><defs
     id="defs1"><inkscape:path-effect
       effect="powerclip"
       id="path-effect98"
       is_visible="true"
       lpeversion="1"
       inverse="true"
       flatten="false"
       hide_clip="false"
       message="Use fill-rule evenodd on &lt;b&gt;fill and stroke&lt;/b&gt; dialog if no flatten result after convert clip to paths." /><clipPath
       clipPathUnits="userSpaceOnUse"
       id="clipPath88"><path
         style="display:none;fill:#ffffff;fill-opacity:1;stroke:#000000;stroke-width:0.001;stroke-linecap:round;stroke-linejoin:round;stroke-miterlimit:0;stroke-dasharray:none;stroke-opacity:1;paint-order:normal"
         d="m 144.8314,208.57444 4.84859,10.97693 c 0.26338,0.47629 0.63022,0.67327 1.05871,0.70374 l 6.17162,0.002 c 0.54318,-0.0341 0.95571,-0.29798 1.17943,-0.8939 l 0.45561,-3.16994 c 0.0401,-0.0874 -0.0287,-0.6372 -0.28283,-1.1015 -1.05701,-1.93108 -3.01141,-6.24518 -3.11335,-6.27066 l -2.77532,0.004 3.65395,7.45936 -0.22715,1.48042 -4.17168,0.01 -3.79304,-8.95243 7.3139,-0.004 c 6.0176,1.0168 8.25542,3.5851 10.74139,5.79948 0.29709,0.30411 0.62255,0.46028 0.97421,0.47987 l 2.7276,0.11281 c 0.83104,-0.13428 1.18944,-0.77584 1.16946,-1.22294 l -0.054,-7.65993 -0.0416,-10.60955 c 0.50231,-0.0423 2.46812,1.04064 2.79051,3.76034 0.1649,1.39108 -0.63661,3.47344 -2.74919,4.14413 l -0.001,2.70394 c 2.25703,-0.71135 3.87637,-1.9606 4.71855,-3.86845 l 3.5102,1.79549 c -0.35504,-0.18161 -1.10452,-0.0184 -1.42393,0.46863 -0.2993,0.45633 -0.4498,1.43234 0.30886,1.76273 l 2.61218,1.13758 c 1.41348,0.61555 2.6491,-1.58122 1.05813,-2.26973 l -1.4628,-0.63392 0.79916,-3.80381 1.66812,0.0404 c 1.55924,-0.33022 1.33133,-2.4553 8e-4,-2.50609 l -2.01475,-0.024 -1.96896,-2.55578 2.92085,-1.9289 c 0.97049,-0.55067 -0.0376,-2.78495 -1.54522,-1.96738 l -1.57718,1.04662 -3.13543,-2.0641 2.05928,-2.5796 c 0.86065,-1.10062 -1.21984,-2.57951 -2.01255,-1.49698 l -2.13568,2.66146 c -0.72748,1.44331 1.15782,2.52065 2.07441,1.42812 l 3.13059,2.06336 -1.11262,0.73793 c -0.80052,0.58843 -0.45406,2.58628 1.33016,2.09287 l 1.97319,2.55878 -1.50867,-0.0203 c -1.25633,-0.0223 -1.77201,2.19394 0.0191,2.49373 l 1.84112,0.0198 -0.80359,3.80526 -1.094,-0.47344 -3.5128,-1.79443 c 0.33439,-0.77405 0.56871,-1.8075 0.54975,-2.75948 -0.0316,-1.58466 -0.70257,-3.26474 -0.99226,-3.68151 -1.54663,-2.22513 -2.74673,-2.49318 -4.32475,-3.03099 l -0.0744,-7.22644 c -0.23285,-0.91759 -0.68208,-1.04831 -1.15362,-1.09791 l -1.88999,0.0424 c -0.34298,-0.001 -0.71738,0.13943 -1.14839,0.53459 -4.04732,3.23364 -11.84316,5.48737 -12.88271,5.51402 l -7.71655,0.19784 c -1.38589,0.0355 -2.79139,0.80063 -3.10519,1.74217 -4.46594,1.00976 -5.97042,3.97015 -5.93789,6.67586 0.0229,1.90748 0.90497,6.46108 5.89636,6.86288 l -0.15055,-2.63099 c -5.0905,-1.79654 -3.22627,-7.42658 -0.19001,-8.14621 l 0.189,8.14968 0.15829,2.6297 2.81236,-0.10529 c -0.15362,-0.0735 -0.39352,-0.22712 -0.3503,-0.7496 l -0.30088,-11.00001 c -0.10589,-0.52091 0.53871,-0.99599 1.35105,-0.8991 4.42762,0.11025 7.79243,0.0544 10.55233,-0.68945 5.93126,-1.59848 8.58065,-3.57321 11.36341,-5.62144 l 0.17062,25.46904 -0.86575,-0.0362 c -3.76189,-3.77194 -7.87273,-6.23593 -12.66196,-6.36596 l -0.36168,-0.004 0.1317,-10.96861 c 0.0957,-1.63444 -2.30254,-1.91026 -2.52254,-0.10374 l -0.19302,11.04407 -6.30868,-0.0691 -2.82343,0.0951 c 0.14847,0.66869 0.46441,1.83413 2.18774,2.35035 z"
         id="path89"
         sodipodi:nodetypes="ccccccscccccccccccccscccsssssccccccccccccccccccccccccsscccccsscscccccccccscccccccccccc" /><path
         id="lpe_path-effect98"
         style="fill:#ffffff;fill-opacity:1;stroke:#000000;stroke-width:0.001;stroke-linecap:round;stroke-linejoin:round;stroke-miterlimit:0;stroke-dasharray:none;stroke-opacity:1;paint-order:normal"
         class="powerclip"
         d="m 122.52917,165.92082 h 71.84401 V 237.89 h -71.84401 z m 22.30223,42.65362 4.84859,10.97693 c 0.26338,0.47629 0.63022,0.67327 1.05871,0.70374 l 6.17162,0.002 c 0.54318,-0.0341 0.95571,-0.29798 1.17943,-0.8939 l 0.45561,-3.16994 c 0.0401,-0.0874 -0.0287,-0.6372 -0.28283,-1.1015 -1.05701,-1.93108 -3.01141,-6.24518 -3.11335,-6.27066 l -2.77532,0.004 3.65395,7.45936 -0.22715,1.48042 -4.17168,0.01 -3.79304,-8.95243 7.3139,-0.004 c 6.0176,1.0168 8.25542,3.5851 10.74139,5.79948 0.29709,0.30411 0.62255,0.46028 0.97421,0.47987 l 2.7276,0.11281 c 0.83104,-0.13428 1.18944,-0.77584 1.16946,-1.22294 l -0.054,-7.65993 -0.0416,-10.60955 c 0.50231,-0.0423 2.46812,1.04064 2.79051,3.76034 0.1649,1.39108 -0.63661,3.47344 -2.74919,4.14413 l -0.001,2.70394 c 2.25703,-0.71135 3.87637,-1.9606 4.71855,-3.86845 l 3.5102,1.79549 c -0.35504,-0.18161 -1.10452,-0.0184 -1.42393,0.46863 -0.2993,0.45633 -0.4498,1.43234 0.30886,1.76273 l 2.61218,1.13758 c 1.41348,0.61555 2.6491,-1.58122 1.05813,-2.26973 l -1.4628,-0.63392 0.79916,-3.80381 1.66812,0.0404 c 1.55924,-0.33022 1.33133,-2.4553 8e-4,-2.50609 l -2.01475,-0.024 -1.96896,-2.55578 2.92085,-1.9289 c 0.97049,-0.55067 -0.0376,-2.78495 -1.54522,-1.96738 l -1.57718,1.04662 -3.13543,-2.0641 2.05928,-2.5796 c 0.86065,-1.10062 -1.21984,-2.57951 -2.01255,-1.49698 l -2.13568,2.66146 c -0.72748,1.44331 1.15782,2.52065 2.07441,1.42812 l 3.13059,2.06336 -1.11262,0.73793 c -0.80052,0.58843 -0.45406,2.58628 1.33016,2.09287 l 1.97319,2.55878 -1.50867,-0.0203 c -1.25633,-0.0223 -1.77201,2.19394 0.0191,2.49373 l 1.84112,0.0198 -0.80359,3.80526 -1.094,-0.47344 -3.5128,-1.79443 c 0.33439,-0.77405 0.56871,-1.8075 0.54975,-2.75948 -0.0316,-1.58466 -0.70257,-3.26474 -0.99226,-3.68151 -1.54663,-2.22513 -2.74673,-2.49318 -4.32475,-3.03099 l -0.0744,-7.22644 c -0.23285,-0.91759 -0.68208,-1.04831 -1.15362,-1.09791 l -1.88999,0.0424 c -0.34298,-0.001 -0.71738,0.13943 -1.14839,0.53459 -4.04732,3.23364 -11.84316,5.48737 -12.88271,5.51402 l -7.71655,0.19784 c -1.38589,0.0355 -2.79139,0.80063 -3.10519,1.74217 -4.46594,1.00976 -5.97042,3.97015 -5.93789,6.67586 0.0229,1.90748 0.90497,6.46108 5.89636,6.86288 l -0.15055,-2.63099 c -5.0905,-1.79654 -3.22627,-7.42658 -0.19001,-8.14621 l 0.189,8.14968 0.15829,2.6297 2.81236,-0.10529 c -0.15362,-0.0735 -0.39352,-0.22712 -0.3503,-0.7496 l -0.30088,-11.00001 c -0.10589,-0.52091 0.53871,-0.99599 1.35105,-0.8991 4.42762,0.11025 7.79243,0.0544 10.55233,-0.68945 5.93126,-1.59848 8.58065,-3.57321 11.36341,-5.62144 l 0.17062,25.46904 -0.86575,-0.0362 c -3.76189,-3.77194 -7.87273,-6.23593 -12.66196,-6.36596 l -0.36168,-0.004 0.1317,-10.96861 c 0.0957,-1.63444 -2.30254,-1.91026 -2.52254,-0.10374 l -0.19302,11.04407 -6.30868,-0.0691 -2.82343,0.0951 c 0.14847,0.66869 0.46441,1.83413 2.18774,2.35035 z" /></clipPath></defs><g
     inkscape:label="Layer 1"
     inkscape:groupmode="layer"
     id="layer1"
     transform="translate(-122.26732,-195.84083)"><path
       style="fill:#c7d8df;fill-opacity:1;stroke:none;stroke-width:2.15944;stroke-linecap:square;stroke-linejoin:round;stroke-miterlimit:0;stroke-dasharray:none;paint-order:normal"
       id="rect1-4-1"
       width="61.844017"
       height="61.969173"
       x="127.52917"
       y="170.92082"
       ry="16.8344"
       clip-path="url(#clipPath88)"
       inkscape:path-effect="#path-effect98"
       sodipodi:type="rect"
       d="m 144.36357,170.92082 h 28.17521 c 9.32626,0 16.8344,7.50814 16.8344,16.8344 v 28.30038 c 0,9.32625 -7.50814,16.8344 -16.8344,16.8344 h -28.17521 c -9.32626,0 -16.8344,-7.50815 -16.8344,-16.8344 v -28.30038 c 0,-9.32626 7.50814,-16.8344 16.8344,-16.8344 z"
       transform="translate(-5.2618486,24.920008)" /></g></svg>
