<?xml version="1.0" encoding="UTF-8" standalone="no"?>
<!-- Created with Inkscape (http://www.inkscape.org/) -->

<svg
   width="61.844021mm"
   height="61.969173mm"
   viewBox="0 0 61.844021 61.969173"
   version="1.1"
   id="svg1"
   xml:space="preserve"
   inkscape:version="1.3.2 (091e20e, 2023-11-25, custom)"
   sodipodi:docname="BluePhomeIcoin.svg"
   xmlns:inkscape="http://www.inkscape.org/namespaces/inkscape"
   xmlns:sodipodi="http://sodipodi.sourceforge.net/DTD/sodipodi-0.dtd"
   xmlns="http://www.w3.org/2000/svg"
   xmlns:svg="http://www.w3.org/2000/svg"><sodipodi:namedview
     id="namedview1"
     pagecolor="#ffffff"
     bordercolor="#000000"
     borderopacity="0.25"
     inkscape:showpageshadow="2"
     inkscape:pageopacity="0.0"
     inkscape:pagecheckerboard="0"
     inkscape:deskcolor="#d1d1d1"
     inkscape:document-units="mm"
     inkscape:zoom="1"
     inkscape:cx="551.5"
     inkscape:cy="415.5"
     inkscape:window-width="2560"
     inkscape:window-height="1017"
     inkscape:window-x="1912"
     inkscape:window-y="5"
     inkscape:window-maximized="1"
     inkscape:current-layer="layer1" /><defs
     id="defs1"><inkscape:path-effect
       effect="powerclip"
       id="path-effect2"
       is_visible="true"
       lpeversion="1"
       inverse="true"
       flatten="false"
       hide_clip="false"
       message="Use fill-rule evenodd on &lt;b&gt;fill and stroke&lt;/b&gt; dialog if no flatten result after convert clip to paths." /><clipPath
       clipPathUnits="userSpaceOnUse"
       id="clipPath1"><path
         style="display:none;fill:#ffffff;fill-opacity:1;stroke:none;stroke-width:2.037;stroke-linecap:square;stroke-linejoin:round;stroke-miterlimit:0;stroke-dasharray:none;paint-order:normal"
         d="m -24.4053,68.772876 0.140797,-9.527453 c 0.643233,-2.221412 2.679717,-3.157521 4.317923,-3.148216 1.345733,0.0076 3.209512,0.677053 4.083131,3.038705 l 0.115663,9.688804 10.1379116,0.0035 c 0.8913828,0.0285 1.3624909,-0.447318 1.5167229,-1.303395 l 0.006,-15.97251 -14.7316425,-13.653378 c -0.787494,-0.689888 -1.585241,-0.691706 -2.387496,0.0048 l -14.79157,13.86364 0.01564,15.503623 c 0.06837,0.9507 0.542271,1.610878 2.002486,1.564441 z"
         id="path2"
         sodipodi:nodetypes="ccsccccccccccc" /><path
         id="lpe_path-effect2"
         style="fill:#ffffff;fill-opacity:1;stroke:none;stroke-width:2.037;stroke-linecap:square;stroke-linejoin:round;stroke-miterlimit:0;stroke-dasharray:none;paint-order:normal"
         class="powerclip"
         d="m -55.760315,17.362318 h 71.844017 v 71.969173 h -71.844017 z m 31.355015,51.410558 0.140797,-9.527453 c 0.643233,-2.221412 2.679717,-3.157521 4.317923,-3.148216 1.345733,0.0076 3.209512,0.677053 4.083131,3.038705 l 0.115663,9.688804 10.1379116,0.0035 c 0.8913828,0.0285 1.3624909,-0.447318 1.5167229,-1.303395 l 0.006,-15.97251 -14.7316425,-13.653378 c -0.787494,-0.689888 -1.585241,-0.691706 -2.387496,0.0048 l -14.79157,13.86364 0.01564,15.503623 c 0.06837,0.9507 0.542271,1.610878 2.002486,1.564441 z" /></clipPath></defs><g
     inkscape:label="Layer 1"
     inkscape:groupmode="layer"
     id="layer1"
     transform="translate(-39.823819,-27.241088)"><path
       style="fill:#c7d8df;fill-opacity:1;stroke:none;stroke-width:2.15944;stroke-linecap:square;stroke-linejoin:round;stroke-miterlimit:0;stroke-dasharray:none;paint-order:normal"
       id="rect1-7"
       width="61.844017"
       height="61.969173"
       x="-50.760315"
       y="22.362318"
       ry="16.8344"
       clip-path="url(#clipPath1)"
       inkscape:path-effect="#path-effect2"
       sodipodi:type="rect"
       d="m -33.925915,22.362318 h 28.1752169 c 9.3262577,0 16.8344001,7.508143 16.8344001,16.8344 v 28.300373 c 0,9.326258 -7.5081424,16.8344 -16.8344001,16.8344 H -33.925915 c -9.326257,0 -16.8344,-7.508142 -16.8344,-16.8344 V 39.196718 c 0,-9.326257 7.508143,-16.8344 16.8344,-16.8344 z"
       transform="translate(90.584136,4.878769)" /></g></svg>
