<?xml version="1.0" encoding="UTF-8" standalone="no"?>
<!-- Created with Inkscape (http://www.inkscape.org/) -->

<svg
   width="59.417908mm"
   height="41.604713mm"
   viewBox="0 0 59.417908 41.604713"
   version="1.1"
   id="svg1"
   xml:space="preserve"
   xmlns:inkscape="http://www.inkscape.org/namespaces/inkscape"
   xmlns:sodipodi="http://sodipodi.sourceforge.net/DTD/sodipodi-0.dtd"
   xmlns="http://www.w3.org/2000/svg"
   xmlns:svg="http://www.w3.org/2000/svg"><sodipodi:namedview
     id="namedview1"
     pagecolor="#ffffff"
     bordercolor="#000000"
     borderopacity="0.25"
     inkscape:showpageshadow="2"
     inkscape:pageopacity="0.0"
     inkscape:pagecheckerboard="0"
     inkscape:deskcolor="#d1d1d1"
     inkscape:document-units="mm" /><defs
     id="defs1" /><g
     inkscape:label="Layer 1"
     inkscape:groupmode="layer"
     id="layer1"
     transform="translate(-98.935122,-149.86505)"><path
       style="fill:none;stroke:#013c4c;stroke-width:1.48;stroke-linecap:round;stroke-dasharray:none;stroke-opacity:1;paint-order:stroke markers fill"
       d="m 126.24425,157.31099 4.39139,0.98466"
       id="path4-9-2"
       sodipodi:nodetypes="cc" /><path
       style="fill:none;stroke:#013c4c;stroke-width:1.48;stroke-linecap:round;stroke-dasharray:none;stroke-opacity:1;paint-order:stroke markers fill"
       d="m 122.33703,161.31349 8.61751,1.99121"
       id="path4-6-3"
       sodipodi:nodetypes="cc" /><path
       style="fill:none;stroke:#013c4c;stroke-width:1.48;stroke-linecap:round;stroke-linejoin:round;stroke-dasharray:none;stroke-opacity:1;paint-order:stroke markers fill"
       d="m 140.12688,168.82634 3.46487,3.32865"
       id="path9-1"
       sodipodi:nodetypes="cc" /><path
       style="fill:none;stroke:#013c4c;stroke-width:1.48;stroke-linecap:round;stroke-linejoin:round;stroke-dasharray:none;stroke-opacity:1;paint-order:stroke markers fill"
       d="m 134.32993,172.85029 -3.01479,-2.99712"
       id="path10-4"
       sodipodi:nodetypes="cc" /><path
       style="fill:none;stroke:#013c4c;stroke-width:1.48;stroke-linecap:round;stroke-linejoin:round;stroke-dasharray:none;stroke-opacity:1;paint-order:stroke markers fill"
       d="m 130.16139,178.68232 2.76906,2.65955"
       id="path11-4"
       sodipodi:nodetypes="cc" /><path
       style="fill:none;stroke:#013c4c;stroke-width:1.48;stroke-linecap:round;stroke-linejoin:round;stroke-dasharray:none;stroke-opacity:1;paint-order:stroke markers fill"
       d="m 124.29472,182.82809 -1.89297,-1.95555"
       id="path12-7"
       sodipodi:nodetypes="cc" /><path
       style="fill:none;stroke:#013c4c;stroke-width:1.48;stroke-linecap:round;stroke-linejoin:round;stroke-dasharray:none;stroke-opacity:1;paint-order:stroke markers fill"
       d="m 142.20798,157.44881 c 1.86314,-3.48985 3.52483,-10.25175 8.52414,-4.78647 4.11849,-1.5741 5.61895,1.4438 4.7162,4.66293 5.3474,4.91093 -0.39614,6.32652 -4.34312,8.30831"
       id="path14-3"
       sodipodi:nodetypes="cccc" /><path
       style="fill:none;stroke:#013c4c;stroke-width:1.48;stroke-linecap:square;stroke-dasharray:none;stroke-opacity:1;paint-order:stroke markers fill"
       d="m 99.69848,162.81905 0.05466,9.34906 c -0.288192,2.32645 3.81902,7.24109 9.72632,6.83656 2.6087,-0.17865 6.86562,0.93737 10.4908,3.58271"
       id="path2-4"
       sodipodi:nodetypes="ccsc" /><ellipse
       style="fill:none;stroke:#013c4c;stroke-width:1.131;stroke-linecap:square;stroke-dasharray:none;stroke-opacity:1;paint-order:stroke markers fill"
       id="path3-0"
       cx="109.06202"
       cy="163.35629"
       rx="3.2804"
       ry="2.1777382" /><path
       style="fill:none;stroke:#013c4c;stroke-width:1.48;stroke-linecap:round;stroke-dasharray:none;stroke-opacity:1;paint-order:stroke markers fill"
       d="m 118.74772,165.21956 12.68293,2.95586"
       id="path4-91"
       sodipodi:nodetypes="cc" /><path
       style="fill:none;stroke:#013c4c;stroke-width:1.48;stroke-linecap:round;stroke-linejoin:round;stroke-dasharray:none;stroke-opacity:1;paint-order:stroke markers fill"
       d="m 131.88247,182.02284 c 3.24961,-1.2774 5.41908,-2.69201 7.38417,-5.64764"
       id="path15"
       sodipodi:nodetypes="cc" /><path
       style="fill:none;stroke:#013c4c;stroke-width:1.48;stroke-linecap:round;stroke-linejoin:round;stroke-dasharray:none;stroke-opacity:1;paint-order:stroke markers fill"
       d="m 126.1879,175.21752 c -3.00383,0.1586 -5.99518,-0.82338 -6.8296,-1.32326 -5.30679,-3.17925 -6.90811,-2.95448 -10.16555,-2.7275 -7.90272,0.55067 -9.947939,-5.70893 -9.442148,-8.90775 0.437418,-2.76645 3.211318,-6.84664 9.761158,-6.66803 4.43396,0.1209 8.05277,-1.65197 10.99055,-3.42459 5.33098,-3.21664 15.90943,-0.44126 19.32753,6.53062"
       id="path16"
       sodipodi:nodetypes="csssssc" /><path
       style="fill:none;stroke:#013c4c;stroke-width:1.48;stroke-linecap:round;stroke-linejoin:round;stroke-dasharray:none;stroke-opacity:1;paint-order:stroke markers fill"
       d="m 139.94183,158.72072 c 3.38683,-2.95561 7.93978,-0.8515 9.2898,0.70672 1.56945,1.81152 2.89906,5.74128 -0.10128,9.08197 l -28.00575,22.06715 c -2.53587,0.7162 -4.03461,-1.04488 -3.45741,-3.62951 z"
       id="path8-31-3"
       sodipodi:nodetypes="cscccc" /></g></svg>
