<?xml version="1.0" encoding="UTF-8" standalone="no"?>
<!-- Created with Inkscape (http://www.inkscape.org/) -->

<svg
   width="110.71688mm"
   height="125.89024mm"
   viewBox="0 0 110.71688 125.89024"
   version="1.1"
   id="svg1"
   xml:space="preserve"
   xmlns:inkscape="http://www.inkscape.org/namespaces/inkscape"
   xmlns:sodipodi="http://sodipodi.sourceforge.net/DTD/sodipodi-0.dtd"
   xmlns="http://www.w3.org/2000/svg"
   xmlns:svg="http://www.w3.org/2000/svg"><sodipodi:namedview
     id="namedview1"
     pagecolor="#ffffff"
     bordercolor="#000000"
     borderopacity="0.25"
     inkscape:showpageshadow="2"
     inkscape:pageopacity="0.0"
     inkscape:pagecheckerboard="0"
     inkscape:deskcolor="#d1d1d1"
     inkscape:document-units="mm" /><defs
     id="defs1" /><g
     inkscape:label="Layer 1"
     inkscape:groupmode="layer"
     id="layer1"
     transform="translate(-11.784027,-10.051132)"><path
       style="fill:#ace2e4;fill-opacity:1;stroke:#ace2e4;stroke-width:3.103;stroke-linecap:square;stroke-dasharray:none;stroke-opacity:1;paint-order:stroke markers fill"
       d="m 33.20238,11.602632 68.31365,0.11825 c -0.85642,35.28401 -11.918938,58.19951 -27.951468,68.41411 -0.60951,2.31619 -0.44119,17.22922 3.78236,22.497258 l 11.11269,-0.20151 c 3.111898,-0.0326 3.816208,2.07744 3.806328,3.80922 0,0 0.0662,20.07779 -0.0195,22.60776 l 8.80885,-0.12475 0.0853,5.66574 -67.47606,-0.0494 -0.0586,-5.69734 9.01296,0.0984 -0.12333,-21.08437 c -0.0185,-3.15517 0.48341,-4.9174 2.89978,-4.93209 l 11.43688,-0.0695 c 5.14811,-0.0313 6.37533,-17.525998 3.50222,-21.815658 C 45.27146,67.843642 33.47889,46.332982 33.2024,11.602632 Z"
       id="path1-8-5"
       sodipodi:nodetypes="ccccccccccccssscc" /><path
       style="fill:none;stroke:#ace2e4;stroke-width:4.703;stroke-linecap:square;stroke-dasharray:none;stroke-opacity:1;paint-order:stroke markers fill"
       d="m 32.95133,18.419682 -18.58462,-1e-5 c 1.23992,13.2029 4.5394,33.29309 32.34609,46.41731 -0.27992,-15.89119 2.72194,-32.10145 -13.76147,-46.4173 z"
       id="path2-1-8"
       sodipodi:nodetypes="cccc" /><path
       style="fill:none;stroke:#ace2e4;stroke-width:4.703;stroke-linecap:square;stroke-dasharray:none;stroke-opacity:1;paint-order:stroke markers fill"
       d="m 101.3336,16.800362 18.58463,-10e-6 c -1.23992,13.2029 -4.5394,33.29309 -32.346098,46.41731 0.27993,-15.89119 -2.72194,-32.10145 13.761468,-46.4173 z"
       id="path2-1-7-0"
       sodipodi:nodetypes="cccc" /></g></svg>
