<?xml version="1.0" encoding="UTF-8" standalone="no"?>
<!-- Created with Inkscape (http://www.inkscape.org/) -->

<svg
   width="122.79417mm"
   height="123.25835mm"
   viewBox="0 0 122.79417 123.25835"
   version="1.1"
   id="svg1"
   xml:space="preserve"
   xmlns:inkscape="http://www.inkscape.org/namespaces/inkscape"
   xmlns:sodipodi="http://sodipodi.sourceforge.net/DTD/sodipodi-0.dtd"
   xmlns="http://www.w3.org/2000/svg"
   xmlns:svg="http://www.w3.org/2000/svg"><sodipodi:namedview
     id="namedview1"
     pagecolor="#ffffff"
     bordercolor="#000000"
     borderopacity="0.25"
     inkscape:showpageshadow="2"
     inkscape:pageopacity="0.0"
     inkscape:pagecheckerboard="0"
     inkscape:deskcolor="#d1d1d1"
     inkscape:document-units="mm" /><defs
     id="defs1" /><g
     inkscape:label="Layer 1"
     inkscape:groupmode="layer"
     id="layer1"
     transform="translate(-27.570199,-18.470523)"><ellipse
       style="fill:none;stroke:#ace2e4;stroke-width:6.931;stroke-linecap:round;stroke-linejoin:round;stroke-dasharray:none;stroke-opacity:1;paint-order:stroke markers fill"
       id="path1"
       cx="88.849396"
       cy="80.022141"
       rx="26.096277"
       ry="25.757477" /><path
       style="fill:none;stroke:#ace2e4;stroke-width:6.931;stroke-linecap:round;stroke-linejoin:miter;stroke-dasharray:none;stroke-opacity:1;paint-order:stroke markers fill"
       d="m 44.886539,70.035218 c 1.175875,-4.555698 2.586834,-8.990233 5.645938,-14.369843 l -7.124105,-12.168504 8.98257,-9.115315 12.212753,7.345351 c 4.586303,-2.885702 9.246778,-4.546118 14.29246,-6.283372 l 3.824673,-13.380639 12.416591,-0.104603 3.874289,13.964928 c 4.963502,0.945661 9.474472,2.947227 13.687782,5.643334 l 12.67395,-7.020043 8.83409,9.016734 -6.81436,12.168502 c 2.80792,4.481173 4.57399,9.483268 5.97363,14.668578 l 13.45173,3.318685 0.0664,12.721616 -13.49597,3.584178 c -1.17618,6.431095 -3.74483,10.077245 -6.04001,14.270335 l 7.03561,12.30126 -8.98256,9.20381 -12.16851,-7.12411 c -4.49989,2.29 -8.50251,5.21288 -14.203962,5.97362 l -3.716925,13.58449 -12.374565,0.0241 -4.011102,-13.66001 c -5.629122,-1.40166 -10.083565,-3.61091 -14.397446,-5.9168 l -12.118888,7.05301 -8.942766,-8.88647 7.065564,-12.34773 C 48.416248,100.07784 46.175483,95.937945 44.613835,90.245783 L 31.193396,86.564592 31.062874,73.778825 Z"
       id="path2"
       sodipodi:nodetypes="ccccccccccccccccccccccccccccccccc" /></g></svg>
