<?xml version="1.0" encoding="UTF-8" standalone="no"?>
<!-- Created with Inkscape (http://www.inkscape.org/) -->

<svg
   width="62.543514mm"
   height="60.141682mm"
   viewBox="0 0 62.543514 60.141682"
   version="1.1"
   id="svg1"
   xml:space="preserve"
   inkscape:version="1.3.2 (091e20e, 2023-11-25, custom)"
   sodipodi:docname="mealpaln icons.svg"
   xmlns:inkscape="http://www.inkscape.org/namespaces/inkscape"
   xmlns:sodipodi="http://sodipodi.sourceforge.net/DTD/sodipodi-0.dtd"
   xmlns="http://www.w3.org/2000/svg"
   xmlns:svg="http://www.w3.org/2000/svg"><sodipodi:namedview
     id="namedview1"
     pagecolor="#ffffff"
     bordercolor="#000000"
     borderopacity="0.25"
     inkscape:showpageshadow="2"
     inkscape:pageopacity="0.0"
     inkscape:pagecheckerboard="0"
     inkscape:deskcolor="#d1d1d1"
     inkscape:document-units="mm"
     inkscape:zoom="2.114039"
     inkscape:cx="374.63832"
     inkscape:cy="390.01173"
     inkscape:window-width="2560"
     inkscape:window-height="1017"
     inkscape:window-x="1912"
     inkscape:window-y="564"
     inkscape:window-maximized="1"
     inkscape:current-layer="layer1" /><defs
     id="defs1" /><g
     inkscape:label="Layer 1"
     inkscape:groupmode="layer"
     id="layer1"
     transform="translate(-66.107454,-208.20881)"><rect
       style="fill:none;stroke:#013c4c;stroke-width:1.185;stroke-linecap:round;stroke-linejoin:round;stroke-dasharray:none;stroke-opacity:1;paint-order:stroke markers fill"
       id="rect29-5"
       width="15.592025"
       height="5.4811044"
       x="89.511337"
       y="208.8013" /><path
       style="fill:none;stroke:#013c4c;stroke-width:1.28;stroke-linecap:round;stroke-linejoin:round;stroke-dasharray:none;stroke-opacity:1;paint-order:stroke markers fill"
       d="m 95.266617,236.78669 2.708864,2.741 3.568509,-3.82423 0.0598,4.25051"
       id="path31-3"
       sodipodi:nodetypes="cccc" /><path
       style="fill:none;stroke:#013c4c;stroke-width:1.28;stroke-linecap:round;stroke-linejoin:round;stroke-dasharray:none;stroke-opacity:1;paint-order:stroke markers fill"
       d="m 78.551016,231.81651 c -1.49968,-2.07624 -4.231653,-2.67222 -5.35752,-2.67347 -2.725479,-0.003 -4.946634,2.57987 -6.087191,5.87303 -0.831149,2.39979 -0.0013,5.62223 0.777386,9.06433 0.819123,3.62104 0.995086,6.83912 1.733579,7.80503 1.170397,1.53081 3.123704,2.27004 5.216821,2.09988"
       id="path32-1"
       sodipodi:nodetypes="cssssc" /><path
       style="fill:none;stroke:#013c4c;stroke-width:1.28;stroke-linecap:round;stroke-linejoin:round;stroke-dasharray:none;stroke-opacity:1;paint-order:stroke markers fill"
       d="m 83.349825,231.67126 c 1.49968,-2.07624 4.231653,-2.67222 5.35752,-2.67347 2.725479,-0.003 4.946634,2.57987 6.087191,5.87303 0.831149,2.39979 0.0013,5.62223 -0.777386,9.06433 -0.819123,3.62104 -1.063549,6.79043 -1.733579,7.80503 -1.303144,1.9733 -4.141433,2.84528 -6.455796,1.3034"
       id="path32-6-2"
       sodipodi:nodetypes="cssssc" /><path
       style="fill:none;stroke:#013c4c;stroke-width:1.28;stroke-linecap:round;stroke-linejoin:round;stroke-dasharray:none;stroke-opacity:1;paint-order:stroke markers fill"
       d="m 73.418121,240.22384 c 0.590939,-6.44647 5.023931,-8.44398 7.080072,-8.36897 2.62128,0.0956 6.59592,2.66897 7.212388,8.05923 -0.01963,4.15517 -1.410646,9.68178 -2.38945,14.64645 -1.02042,4.68274 -8.39902,4.36016 -9.646305,0.17699 -1.210047,-7.05078 -2.447691,-11.90234 -2.256705,-14.51371 z"
       id="path34-6"
       sodipodi:nodetypes="csccccc" /><circle
       id="path35-1"
       style="fill:#000000;stroke:#013c4c;stroke-width:0.264583"
       cx="74.612846"
       cy="229.29431"
       r="0.014256831" /><circle
       id="path36-3"
       style="fill:#000000;stroke:#013c4c;stroke-width:0.264583"
       cx="86.891975"
       cy="229.31644"
       r="0.014256831" /><path
       style="fill:none;stroke:#013c4c;stroke-width:1.28;stroke-linecap:round;stroke-linejoin:round;stroke-dasharray:none;stroke-opacity:1;paint-order:stroke markers fill"
       d="m 74.811967,229.22793 c 1.143879,-0.64363 2.372477,-1.23884 3.925972,-1.6484 0.149494,-4.01392 2.150945,-6.49208 4.702539,-8.51402 l 1.75891,2.42108 c -1.495852,1.75998 -3.231371,3.37445 -3.14159,6.09714 1.823014,0.38566 3.367743,0.98004 4.966922,1.53358"
       id="path37-3"
       sodipodi:nodetypes="cccccc" /><path
       style="fill:none;stroke:#013c4c;stroke-width:1.28;stroke-linecap:round;stroke-linejoin:round;stroke-dasharray:none;stroke-opacity:1;paint-order:stroke markers fill"
       d="m 88.830081,228.92275 0.02009,-3.98642 2.39797,-10.57265"
       id="path43"
       sodipodi:nodetypes="ccc" /><path
       style="fill:none;stroke:#013c4c;stroke-width:1.28;stroke-linecap:round;stroke-linejoin:round;stroke-dasharray:none;stroke-opacity:1;paint-order:stroke markers fill"
       d="m 92.896575,231.22455 c 5.743029,-1.06601 11.006615,-2.79192 13.923525,-4.28658"
       id="path44"
       sodipodi:nodetypes="cc" /><path
       style="fill:none;stroke:#013c4c;stroke-width:1.28;stroke-linecap:round;stroke-linejoin:round;stroke-dasharray:none;stroke-opacity:1;paint-order:stroke markers fill"
       d="m 103.81645,214.38469 3.08192,10.35283 0.32761,14.3245"
       id="path45"
       sodipodi:nodetypes="ccc" /><path
       style="fill:none;stroke:#013c4c;stroke-width:1.28;stroke-linecap:round;stroke-linejoin:round;stroke-dasharray:none;stroke-opacity:1;paint-order:stroke markers fill"
       d="m 97.802382,243.52308 c 9.370758,-10.59362 14.465738,-0.29692 15.018638,2.44053 1.07018,6.5622 1.45006,11.94055 -2.67186,18.03246 -3.48817,4.46493 -8.51515,4.14245 -11.344768,2.93129 -4.70859,-2.01542 -7.22272,-6.09484 -6.72184,-9.69477 1.03083,-4.44408 0.74194,-6.89719 5.71983,-13.70951 z"
       id="path38-7"
       sodipodi:nodetypes="cccscc" /><path
       style="fill:none;stroke:#013c4c;stroke-width:1.28;stroke-linecap:round;stroke-linejoin:round;stroke-dasharray:none;stroke-opacity:1;paint-order:stroke markers fill"
       d="m 97.996034,243.61804 2.920816,3.12375 -0.86742,6.42605 4.01094,3.32891"
       id="path39-2"
       sodipodi:nodetypes="cccc" /><path
       style="fill:none;stroke:#013c4c;stroke-width:1.28;stroke-linecap:round;stroke-linejoin:round;stroke-dasharray:none;stroke-opacity:1;paint-order:stroke markers fill"
       d="m 100.21071,258.39946 0.92923,-4.15941"
       id="path40-1" /><path
       style="fill:none;stroke:#013c4c;stroke-width:1.28;stroke-linecap:round;stroke-linejoin:round;stroke-dasharray:none;stroke-opacity:1;paint-order:stroke markers fill"
       d="m 107.95429,239.10685 c 3.20291,-10.96726 10.35833,-9.20559 14.21704,-4.72934 1.63918,1.9015 5.36878,7.88262 5.79688,13.67322 0.35124,4.75099 -1.45349,9.44604 -6.14788,11.03984 -2.16544,0.73519 -5.08295,0.87487 -9.04288,-0.11587"
       id="path41-2"
       sodipodi:nodetypes="csssc" /><path
       style="fill:none;stroke:#013c4c;stroke-width:1.28;stroke-linecap:round;stroke-linejoin:round;stroke-dasharray:none;stroke-opacity:1;paint-order:stroke markers fill"
       d="m 117.11386,235.38993 c 1.71709,1.37472 3.45823,2.69172 4.60191,5.44264"
       id="path42-7"
       sodipodi:nodetypes="cc" /></g></svg>
