<?xml version="1.0" encoding="UTF-8" standalone="no"?>
<!-- Created with Inkscape (http://www.inkscape.org/) -->

<svg
   width="81.01165mm"
   height="68.992767mm"
   viewBox="0 0 81.01165 68.992767"
   version="1.1"
   id="svg1"
   xml:space="preserve"
   xmlns:inkscape="http://www.inkscape.org/namespaces/inkscape"
   xmlns:sodipodi="http://sodipodi.sourceforge.net/DTD/sodipodi-0.dtd"
   xmlns="http://www.w3.org/2000/svg"
   xmlns:svg="http://www.w3.org/2000/svg"><sodipodi:namedview
     id="namedview1"
     pagecolor="#ffffff"
     bordercolor="#000000"
     borderopacity="0.25"
     inkscape:showpageshadow="2"
     inkscape:pageopacity="0.0"
     inkscape:pagecheckerboard="0"
     inkscape:deskcolor="#d1d1d1"
     inkscape:document-units="mm" /><defs
     id="defs1" /><g
     inkscape:label="Layer 1"
     inkscape:groupmode="layer"
     id="layer1"
     transform="translate(-45.956704,-201.77941)"><path
       id="path18"
       style="fill:none;stroke:#013948;stroke-width:2.03332;stroke-linecap:round;stroke-linejoin:round;stroke-opacity:1;paint-order:stroke markers fill"
       d="m 63.505209,210.99546 a 12.115378,10.885977 0 0 1 11.586494,8.43942 12.115378,10.885977 0 0 1 -6.306749,12.14477 12.115378,10.885977 0 0 1 -14.641359,-2.55673 12.115378,10.885977 0 0 1 -0.785246,-13.38319" /><path
       style="fill:none;stroke:#013948;stroke-width:2.03332;stroke-linecap:round;stroke-linejoin:miter;stroke-dasharray:none;stroke-opacity:1;paint-order:stroke markers fill"
       d="m 62.612159,210.67439 c -2.338279,-2.79178 -10.871729,-2.07528 -13.259232,2.99483 5.647044,3.85766 12.575715,0.36449 13.259232,-2.99483 z"
       id="path19"
       sodipodi:nodetypes="ccc" /><path
       style="fill:none;stroke:#013948;stroke-width:2.03332;stroke-linecap:round;stroke-linejoin:miter;stroke-dasharray:none;stroke-opacity:1;paint-order:stroke markers fill"
       d="m 59.467923,205.45166 c 6.262093,5.84911 3.476669,8.1834 2.829139,10.89371"
       id="path20"
       sodipodi:nodetypes="cc" /><path
       id="path18-2"
       style="fill:none;stroke:#013948;stroke-width:2.054;stroke-linecap:round;stroke-linejoin:round;stroke-dasharray:none;stroke-opacity:1;paint-order:stroke markers fill"
       d="m 89.581923,208.9294 a 12.112997,10.888116 8.90594 0 1 10.009504,10.2355 12.112997,10.888116 8.90594 0 1 -8.25562,10.93366 12.112997,10.888116 8.90594 0 1 -14.008348,-4.93945 12.112997,10.888116 8.90594 0 1 1.470247,-13.32622" /><path
       style="fill:none;stroke:#013948;stroke-width:2.03332;stroke-linecap:round;stroke-linejoin:miter;stroke-dasharray:none;stroke-opacity:1;paint-order:stroke markers fill"
       d="m 88.755198,208.46531 c -1.837447,-3.13908 -10.37203,-3.84206 -13.576559,0.76296 4.921307,4.73661 12.339188,2.4366 13.576559,-0.76296 z"
       id="path19-3"
       sodipodi:nodetypes="ccc" /><path
       style="fill:none;stroke:#013948;stroke-width:2.054;stroke-linecap:round;stroke-linejoin:miter;stroke-dasharray:none;stroke-opacity:1;paint-order:stroke markers fill"
       d="m 109.97461,244.1287 c 0.76048,-3.55097 -5.09149,-9.7561 -10.581293,-8.47623 0.44553,6.78916 7.500313,10.02423 10.581293,8.47623 z"
       id="path19-3-9"
       sodipodi:nodetypes="ccc" /><path
       style="fill:none;stroke:#013948;stroke-width:2.03332;stroke-linecap:round;stroke-linejoin:miter;stroke-dasharray:none;stroke-opacity:1;paint-order:stroke markers fill"
       d="m 86.530728,202.79607 c 5.193789,6.80186 2.055721,8.64352 0.962686,11.20906"
       id="path20-3"
       sodipodi:nodetypes="cc" /><path
       style="fill:none;stroke:#013948;stroke-width:2.054;stroke-linecap:round;stroke-linejoin:miter;stroke-dasharray:none;stroke-opacity:1;paint-order:stroke markers fill"
       d="m 111.37329,224.65602 c -9.86333,0.62706 -14.335093,9.95494 -26.363165,11.53831 -16.861163,2.2196 -27.059972,-3.78647 -36.330672,-3.45226 -0.735201,-0.0726 -2.625345,3.59272 -1.131663,6.21428 1.942335,3.06631 5.197016,5.53725 9.628704,7.47423"
       id="path21"
       sodipodi:nodetypes="csccc" /><path
       style="fill:none;stroke:#013948;stroke-width:2.054;stroke-linecap:round;stroke-linejoin:miter;stroke-dasharray:none;stroke-opacity:1;paint-order:stroke markers fill"
       d="m 59.791458,258.17167 c -1.208074,-0.0304 -1.423684,-0.14718 -2.421911,-0.37762 -4.024495,-0.92908 -6.462646,-3.27569 -8.275174,-5.36096 -1.71169,-1.55275 -1.058965,-4.27254 -0.188592,-4.94147 3.756887,-2.98608 20.819905,1.52574 35.705446,-4.38456 14.38147,-5.71019 12.9786,-12.92953 26.762053,-18.07668"
       id="path22"
       sodipodi:nodetypes="csccsc" /><path
       style="fill:none;stroke:#013948;stroke-width:2.054;stroke-linecap:round;stroke-linejoin:miter;stroke-dasharray:none;stroke-opacity:1;paint-order:stroke markers fill"
       d="m 101.25471,241.20575 c -2.664363,2.91618 -6.362083,5.36997 -9.823523,7.59225 -15.42853,9.90527 -27.178625,2.39213 -31.042943,5.67671 -0.873966,0.4675 -1.392098,4.71821 1.226978,5.55887 12.60483,9.19237 26.440581,3.19535 35.102225,0.21177"
       id="path23"
       sodipodi:nodetypes="csccc" /><path
       style="fill:none;stroke:#013948;stroke-width:2.03332;stroke-linecap:round;stroke-linejoin:miter;stroke-dasharray:none;stroke-opacity:1;paint-order:stroke markers fill"
       d="m 111.60123,224.61562 3.0941,2.5412 h 3.30751 c 0.64477,-1.21846 4.8081,-3.47512 2.40219,-3.45405 -2.84608,-0.61811 -7.03151,-2.12542 -7.63018,-1.62834 -0.88336,0.44005 -0.82607,1.65802 -1.17362,2.54119 z"
       id="path24"
       sodipodi:nodetypes="cccccc" /><path
       style="fill:none;stroke:#013948;stroke-width:2.03332;stroke-linecap:round;stroke-linejoin:miter;stroke-dasharray:none;stroke-opacity:1;paint-order:stroke markers fill"
       d="m 105.14913,236.44818 9.01558,-9.28399"
       id="path25" /><path
       style="fill:none;stroke:#013948;stroke-width:2.03332;stroke-linecap:round;stroke-linejoin:miter;stroke-dasharray:none;stroke-opacity:1;paint-order:stroke markers fill"
       d="m 117.40878,227.20163 -1.11164,4.71296 0.65897,5.95613"
       id="path26"
       sodipodi:nodetypes="ccc" /><path
       style="fill:none;stroke:#013948;stroke-width:2.054;stroke-linecap:round;stroke-linejoin:round;stroke-dasharray:none;stroke-opacity:1;paint-order:stroke markers fill"
       d="m 103.3385,243.37372 c -5.777953,2.86985 -15.325206,15.16075 3.04631,25.81054 3.08837,1.10813 2.0351,-3.0519 4.12247,-3.34031 2.29559,-0.3938 2.75382,4.35461 5.74545,3.8708 12.41018,-5.80885 13.42159,-26.45569 -0.0153,-25.55755"
       id="path27"
       sodipodi:nodetypes="ccccc" /><path
       style="fill:none;stroke:#013948;stroke-width:2.03332;stroke-linecap:round;stroke-linejoin:round;stroke-dasharray:none;stroke-opacity:1;paint-order:stroke markers fill"
       d="m 106.47994,244.6805 c 2.87664,0.64377 5.44738,1.92227 9.81579,-0.52941"
       id="path28"
       sodipodi:nodetypes="cc" /><path
       style="fill:#1e3050;fill-opacity:1;stroke:#013948;stroke-width:2.03332;stroke-linecap:round;stroke-linejoin:round;stroke-dasharray:none;stroke-opacity:1;paint-order:stroke markers fill"
       d="m 111.6279,244.81285 c 1.47754,-3.1277 2.77243,-5.78412 3.89433,-7.99418 l 3.78762,1.16471 c -2.52045,3.33389 -5.02445,7.10012 -7.68195,6.82947 z"
       id="path29"
       sodipodi:nodetypes="cccc" /></g></svg>
