<?xml version="1.0" encoding="UTF-8" standalone="no"?>
<!-- Created with Inkscape (http://www.inkscape.org/) -->

<svg
   width="59.064789mm"
   height="64.963173mm"
   viewBox="0 0 59.064789 64.963173"
   version="1.1"
   id="svg1"
   xml:space="preserve"
   inkscape:version="1.3.2 (091e20e, 2023-11-25, custom)"
   sodipodi:docname="drawing.svg"
   xmlns:inkscape="http://www.inkscape.org/namespaces/inkscape"
   xmlns:sodipodi="http://sodipodi.sourceforge.net/DTD/sodipodi-0.dtd"
   xmlns="http://www.w3.org/2000/svg"
   xmlns:svg="http://www.w3.org/2000/svg"><sodipodi:namedview
     id="namedview1"
     pagecolor="#ffffff"
     bordercolor="#000000"
     borderopacity="0.25"
     inkscape:showpageshadow="2"
     inkscape:pageopacity="0.0"
     inkscape:pagecheckerboard="0"
     inkscape:deskcolor="#d1d1d1"
     inkscape:document-units="mm"
     inkscape:zoom="1.0570195"
     inkscape:cx="606.89514"
     inkscape:cy="894.49627"
     inkscape:window-width="2560"
     inkscape:window-height="1017"
     inkscape:window-x="1912"
     inkscape:window-y="564"
     inkscape:window-maximized="1"
     inkscape:current-layer="layer1"
     showgrid="true"><inkscape:grid
       id="grid30"
       units="mm"
       originx="-104.28959"
       originy="-230.57513"
       spacingx="0.99999998"
       spacingy="1"
       empcolor="#0099e5"
       empopacity="0.30196078"
       color="#0099e5"
       opacity="0.14901961"
       empspacing="5"
       dotted="false"
       gridanglex="30"
       gridanglez="30"
       visible="true" /></sodipodi:namedview><defs
     id="defs1" /><g
     inkscape:label="Layer 1"
     inkscape:groupmode="layer"
     id="layer1"
     transform="translate(-104.28959,-230.57513)"><path
       style="fill:none;fill-opacity:1;stroke:#95fc04;stroke-width:2.203;stroke-linecap:round;stroke-linejoin:round;stroke-dasharray:none;stroke-opacity:1;paint-order:stroke markers fill"
       d="m 146.60543,249.07289 -1.95377,-1.11606"
       id="path47-4-0"
       sodipodi:nodetypes="cc" /><path
       style="fill:none;fill-opacity:1;stroke:#95fc04;stroke-width:2.203;stroke-linecap:round;stroke-linejoin:round;stroke-dasharray:none;stroke-opacity:1;paint-order:stroke markers fill"
       d="m 146.79133,231.72929 -2.15715,1.18367"
       id="path47-9"
       sodipodi:nodetypes="cc" /><path
       style="fill:none;fill-opacity:1;stroke:#95fc04;stroke-width:2.203;stroke-linecap:round;stroke-linejoin:round;stroke-dasharray:none;stroke-opacity:1;paint-order:stroke markers fill"
       d="m 149.65665,240.4519 -3.91605,-0.0442"
       id="path47-0-1"
       sodipodi:nodetypes="cc" /><path
       style="fill:none;fill-opacity:1;stroke:#95fc04;stroke-width:2.203;stroke-linecap:round;stroke-linejoin:round;stroke-dasharray:none;stroke-opacity:1;paint-order:stroke markers fill"
       d="m 120.42094,249.02022 1.95377,-1.11606"
       id="path47-4"
       sodipodi:nodetypes="cc" /><path
       style="fill:none;fill-opacity:1;stroke:#95fc04;stroke-width:2.103;stroke-linecap:square;stroke-linejoin:round;stroke-dasharray:none;stroke-opacity:1;paint-order:stroke markers fill"
       d="m 136.02064,249.23946 c 4.21898,-2.46364 6.26532,-14.93889 -2.46628,-15.43807 -6.32329,-0.3615 -8.74258,9.23402 -2.47796,15.73576 0.23751,2.97664 -1.77016,4.38121 -5.02423,4.69759 -1.92393,0.41491 -2.46061,1.91567 -3.53511,5.05157 -0.94426,2.7558 -2.12088,6.84826 -3.02319,9.86929 l -7.81369,0.0865 0.41556,5.818 12.49847,-0.82219 1.90654,-7.32061 -1.92502,7.32124 -11.14399,3.41293 c -0.98136,-0.0756 -5.88368,4.95109 2.53509,7.32154 11.9073,1.47734 26.17364,3.43035 28.83754,8.51965 2.20287,2.7619 4.05945,-0.34722 2.08491,-7.90703 -0.20084,-0.76891 -0.98225,-2.84519 -3.21433,-2.07395 -8.64187,-2.30683 -12.81959,-3.77732 -13.2691,-4.38393 1.2629,0.045 0.13217,1.01336 3.10699,0.88909 2.08016,-0.0869 1.80411,-0.66578 3.15136,-1.21728 -1.091,1.25924 -5.03109,1.92483 -3.54663,1.23045 -0.25713,0.24977 6.8415,2.86638 10.54324,3.46988 1.47384,-0.75168 2.79538,0.71108 3.22207,2.09959 12.61377,-0.28014 8.43972,-7.28647 8.22653,-7.93689 l -12.42599,-2.7796 -2.02345,-8.00081 2.0441,7.96854 12.86011,0.22382 0.34181,-5.92769 -8.01115,0.0649 -3.60797,-11.19872 c -0.51743,-1.73734 -1.15803,-3.32307 -2.74477,-3.74433 -5.33823,-0.43777 -5.41611,-2.62915 -5.52146,-5.02925 z"
       id="path42"
       sodipodi:nodetypes="csccscccccccccsccsccccccccccccccc" /><path
       style="fill:none;fill-opacity:1;stroke:#95fc04;stroke-width:1.503;stroke-linecap:square;stroke-linejoin:round;stroke-dasharray:none;stroke-opacity:1;paint-order:stroke markers fill"
       d="m 120.21173,285.68278 c -0.53471,1.67085 -1.12239,6.56562 -0.40164,7.88161 0.50085,0.91448 2.31908,1.17628 3.31645,-0.93902 0.7949,-1.6859 5.67724,-3.7589 9.74153,-4.61158"
       id="path43"
       sodipodi:nodetypes="cssc" /><path
       style="fill:none;fill-opacity:1;stroke:#95fc04;stroke-width:1.503;stroke-linecap:square;stroke-linejoin:round;stroke-dasharray:none;stroke-opacity:1;paint-order:stroke markers fill"
       d="m 110.88742,269.3105 c -1.44329,-0.46033 -2.59895,-1.92735 -3.81996,-3.16564 -3.1395,1.1132 -3.37033,9.66427 5.01468,8.69678"
       id="path44"
       sodipodi:nodetypes="ccc" /><path
       style="fill:none;fill-opacity:1;stroke:#95fc04;stroke-width:1.503;stroke-linecap:square;stroke-linejoin:round;stroke-dasharray:none;stroke-opacity:1;paint-order:stroke markers fill"
       d="m 156.75656,269.30962 c 1.44329,-0.46033 2.59895,-1.92735 3.81996,-3.16564 3.1395,1.1132 3.37033,9.66427 -5.01468,8.69678"
       id="path44-1"
       sodipodi:nodetypes="ccc" /><path
       style="fill:none;fill-opacity:1;stroke:#95fc04;stroke-width:1.503;stroke-linecap:square;stroke-linejoin:round;stroke-dasharray:none;stroke-opacity:1;paint-order:stroke markers fill"
       d="m 130.53402,248.84528 c 2.55992,2.39969 4.29621,1.33786 5.92938,0.0885"
       id="path45"
       sodipodi:nodetypes="cc" /><path
       style="fill:none;fill-opacity:1;stroke:#95fc04;stroke-width:2.203;stroke-linecap:round;stroke-linejoin:round;stroke-dasharray:none;stroke-opacity:1;paint-order:stroke markers fill"
       d="m 120.23504,231.67662 2.15715,1.18367"
       id="path47"
       sodipodi:nodetypes="cc" /><path
       style="fill:none;fill-opacity:1;stroke:#95fc04;stroke-width:2.203;stroke-linecap:round;stroke-linejoin:round;stroke-dasharray:none;stroke-opacity:1;paint-order:stroke markers fill"
       d="m 117.36972,240.39923 3.91605,-0.0442"
       id="path47-0"
       sodipodi:nodetypes="cc" /></g></svg>
