<?xml version="1.0" encoding="UTF-8" standalone="no"?>
<!-- Created with Inkscape (http://www.inkscape.org/) -->

<svg
   width="68.272652mm"
   height="91.071083mm"
   viewBox="0 0 68.272652 91.071083"
   version="1.1"
   id="svg1"
   xml:space="preserve"
   xmlns:inkscape="http://www.inkscape.org/namespaces/inkscape"
   xmlns:sodipodi="http://sodipodi.sourceforge.net/DTD/sodipodi-0.dtd"
   xmlns="http://www.w3.org/2000/svg"
   xmlns:svg="http://www.w3.org/2000/svg"><sodipodi:namedview
     id="namedview1"
     pagecolor="#ffffff"
     bordercolor="#000000"
     borderopacity="0.25"
     inkscape:showpageshadow="2"
     inkscape:pageopacity="0.0"
     inkscape:pagecheckerboard="0"
     inkscape:deskcolor="#d1d1d1"
     inkscape:document-units="mm" /><defs
     id="defs1" /><g
     inkscape:label="Layer 1"
     inkscape:groupmode="layer"
     id="layer1"
     transform="translate(-6.467466,-109.66725)"><path
       style="fill:none;stroke:#95fc04;stroke-width:4.003;stroke-linecap:round;stroke-linejoin:round;stroke-dasharray:none;stroke-opacity:1;paint-order:stroke markers fill"
       d="M 13.829669,149.31036 C 9.4697479,140.74287 8.7582174,134.84324 8.5087318,129.83943 7.8404349,116.43573 15.575575,112.38519 19.395406,111.73345 c 2.461144,-0.41991 15.657188,1.32372 11.893436,23.12146 -0.802332,3.90452 -2.299607,5.92417 -2.127641,9.94986 0.181358,1.87704 -0.181479,3.07902 -1.752174,3.56692 l -9.011187,2.31537 c -2.414109,0.48159 -2.580214,0.59127 -4.568171,-1.3767 z"
       id="path12"
       sodipodi:nodetypes="cssccccc" /><path
       style="fill:none;stroke:#95fc04;stroke-width:4.003;stroke-linecap:round;stroke-linejoin:round;stroke-dasharray:none;stroke-opacity:1;paint-order:stroke markers fill"
       d="m 18.272683,157.00742 c -0.04577,3.33289 2.236197,7.31993 3.942506,9.85314 2.60573,3.86851 13.021692,3.38693 11.985119,-4.06371 -0.390651,-2.80791 -2.678733,-8.0495 -3.537244,-10.13858 z"
       id="path13"
       sodipodi:nodetypes="csscc" /><path
       style="fill:none;stroke:#95fc04;stroke-width:4.003;stroke-linecap:round;stroke-linejoin:round;stroke-dasharray:none;stroke-opacity:1;paint-order:stroke markers fill"
       d="m 67.37791,178.77029 c 4.359921,-8.56749 5.071452,-14.46712 5.320937,-19.47093 0.668297,-13.4037 -7.066843,-17.45424 -10.886674,-18.10598 -2.461144,-0.41991 -15.657188,1.32372 -11.893436,23.12146 0.802332,3.90452 2.299607,5.92417 2.127641,9.94986 -0.181358,1.87704 0.181479,3.07902 1.752174,3.56692 l 9.011187,2.31537 c 2.414109,0.48159 2.580214,0.59127 4.568171,-1.3767 z"
       id="path12-6"
       sodipodi:nodetypes="cssccccc" /><path
       style="fill:none;stroke:#95fc04;stroke-width:4.003;stroke-linecap:round;stroke-linejoin:round;stroke-dasharray:none;stroke-opacity:1;paint-order:stroke markers fill"
       d="m 62.934896,186.46735 c 0.04577,3.33289 -2.236197,7.31993 -3.942506,9.85314 -2.60573,3.86851 -13.021692,3.38693 -11.985119,-4.06371 0.390651,-2.80791 2.678733,-8.0495 3.537244,-10.13858 z"
       id="path13-3"
       sodipodi:nodetypes="csscc" /></g></svg>
