<?xml version="1.0" encoding="UTF-8" standalone="no"?>
<!-- Created with Inkscape (http://www.inkscape.org/) -->

<svg
   width="224.8709mm"
   height="55.290985mm"
   viewBox="0 0 224.8709 55.290985"
   version="1.1"
   id="svg1"
   xml:space="preserve"
   inkscape:version="1.4 (86a8ad7, 2024-10-11)"
   sodipodi:docname="drawing.svg"
   xmlns:inkscape="http://www.inkscape.org/namespaces/inkscape"
   xmlns:sodipodi="http://sodipodi.sourceforge.net/DTD/sodipodi-0.dtd"
   xmlns="http://www.w3.org/2000/svg"
   xmlns:svg="http://www.w3.org/2000/svg"><sodipodi:namedview
     id="namedview1"
     pagecolor="#ffffff"
     bordercolor="#000000"
     borderopacity="0.25"
     inkscape:showpageshadow="2"
     inkscape:pageopacity="0.0"
     inkscape:pagecheckerboard="0"
     inkscape:deskcolor="#d1d1d1"
     inkscape:document-units="mm"
     showgrid="false"
     inkscape:zoom="1"
     inkscape:cx="763.5"
     inkscape:cy="-167.5"
     inkscape:window-width="2560"
     inkscape:window-height="1017"
     inkscape:window-x="1912"
     inkscape:window-y="-8"
     inkscape:window-maximized="1"
     inkscape:current-layer="layer1"><inkscape:grid
       id="grid2"
       units="mm"
       originx="-239.7837"
       originy="-51.172296"
       spacingx="0.99999998"
       spacingy="1"
       empcolor="#0099e5"
       empopacity="0.30196078"
       color="#0099e5"
       opacity="0.14901961"
       empspacing="5"
       enabled="true"
       visible="false" /><inkscape:page
       x="0"
       y="0"
       width="224.8709"
       height="55.290985"
       id="page2"
       margin="0"
       bleed="0" /></sodipodi:namedview><defs
     id="defs1" /><g
     inkscape:label="Layer 1"
     inkscape:groupmode="layer"
     id="layer1"
     transform="translate(-239.7837,-51.172294)"><ellipse
       style="fill:none;stroke:#013948;stroke-width:1.051;stroke-linecap:square;stroke-linejoin:round;stroke-miterlimit:2;stroke-dasharray:none;stroke-opacity:1;paint-order:fill markers stroke"
       id="path1-1-7-3-87-3-20-3-10-8-0"
       cx="446.64258"
       cy="69.759567"
       rx="3.9229958"
       ry="3.8686666" /><path
       style="fill:none;fill-opacity:1;stroke:#013948;stroke-width:1.051;stroke-linecap:square;stroke-linejoin:miter;stroke-miterlimit:2;stroke-dasharray:none;stroke-opacity:1;paint-order:fill markers stroke"
       d="m 428.29332,99.657878 3.10059,0.446492 2.47219,-8.193819 c 0.54014,-1.48164 1.54201,-1.71575 2.67995,-1.73252 l 7.08694,-0.0721 0.0723,-3.66888 -8.90295,0.0858 c -1.83712,-0.0741 -1.31499,-2.39757 0.15954,-2.19779 l 8.67,-0.0525 -0.0391,-6.01834 c 0.11214,-3.74586 6.40362,-4.41302 6.60281,0.19556 l 0.0662,12.07989 c 0.13647,1.10817 -0.95316,4.93594 -5.6224,2.68716 l -8.36745,-0.0331 -2.80293,8.747789 c -0.27807,0.44764 -0.64532,0.82591 -1.75287,0.62839 l -3.86125,-0.74415 c -1.77081,-0.43023 -0.93435,-2.508302 0.4385,-2.157902 z"
       id="path13-3-8-2-6"
       sodipodi:nodetypes="cccccccccccccccccc" /><path
       style="fill:none;fill-opacity:1;stroke:#013948;stroke-width:1.051;stroke-linecap:square;stroke-linejoin:miter;stroke-miterlimit:2;stroke-dasharray:none;stroke-opacity:1;paint-order:fill markers stroke"
       d="m 440.00846,96.037671 -2.55395,0.78421 c 1.5951,3.921099 3.87563,6.318449 6.43933,7.565919 6.08649,2.96162 13.65598,1.42372 17.94586,-3.24077 2.70081,-2.936649 3.08557,-7.634289 0.75363,-11.354319 -1.60163,-2.555 -4.70628,-4.72021 -9.37556,-5.90566 l -0.37563,2.52703 c 8.69725,1.06999 11.6087,10.29769 5.70224,14.723699 -7.31534,5.48174 -17.31103,1.37997 -18.53592,-5.100109 z"
       id="path14-7-5-7-9"
       sodipodi:nodetypes="ccsssccsc" /><ellipse
       style="fill:none;stroke:#013948;stroke-width:1.051;stroke-linecap:square;stroke-miterlimit:2;stroke-dasharray:none;stroke-opacity:1;paint-order:fill markers stroke"
       id="path1-1-7-3-2-6-2-7"
       ry="3.8811119"
       rx="3.7315774"
       cy="57.135735"
       cx="277.3125" /><path
       style="fill:#013948;fill-opacity:1;stroke:#013948;stroke-width:1.051;stroke-linecap:square;stroke-miterlimit:2;stroke-dasharray:none;stroke-opacity:1;paint-order:fill markers stroke"
       d="m 267.41319,81.790141 c -0.024,2.33543 3.81784,2.22338 3.72581,0.0221 v -7.19759 c 0.25508,-1.83826 0.35854,-3.74149 0,-5.84273 0.0946,-1.09394 1.55965,-1.67648 1.50103,-0.19075 -0.2289,0.18471 -0.56053,2.83101 0.25316,4.19986 l -0.20748,8.37905 c -1.23868,6.01036 -0.4197,15.02062 -0.55981,22.607769 0.11158,2.36915 4.02279,1.91101 4.00302,0.0223 l 0.53226,-19.194559 1.44154,0.0222 0.57666,19.139109 c 0.24676,2.3472 3.97017,2.09067 3.95867,-0.0554 -0.16012,-7.483959 0.55053,-15.113049 -0.55989,-22.438629 l -0.21298,-8.53578 c 0.19872,-1.20574 0.74384,-2.84666 0.0921,-4.04454 -0.0674,-1.06635 1.64113,-1.11851 1.69488,0.15434 -0.0745,1.745 -0.4135,3.0937 -0.008,6.27404 l -0.009,6.94534 c 0.10656,2.2029 3.92572,1.60973 3.70364,-0.0998 0,0 -0.20274,-3.29863 -0.058,-6.91093 0.16871,-4.2109 0.33494,-8.812 0.17845,-9.24513 -0.66236,-1.83324 -2.07007,-2.957597 -3.3092,-2.963217 l -3.98498,-0.0181 c -0.93338,1.148077 -4.43528,1.249037 -5.58843,-0.0404 l -3.17231,0.0608 c -2.69966,-0.0373 -3.96466,1.468367 -4.37337,3.237897 -0.22329,1.91933 0.43798,5.87401 0.43808,9.02195 z"
       id="path2-4-6-2-54-5-8-8"
       sodipodi:nodetypes="ccccccccccccccccccccssscccccc" /><path
       style="fill:#000000;fill-opacity:1;stroke:#013948;stroke-width:0.1;stroke-linecap:square;stroke-linejoin:miter;stroke-miterlimit:2;stroke-dasharray:none;stroke-opacity:1;paint-order:fill markers stroke"
       d="m 275.83631,58.267944 c 0.23313,-0.24074 0.11525,-0.48871 0.91738,-0.62336 0.32673,0.13559 0.83876,0.27337 1.3212,-0.0237 0.75022,0.009 0.9514,0.28194 1.19181,0.57631 0.0715,0.23273 -0.17169,0.34503 -0.34108,0.28619 -0.22972,-0.35837 -0.50677,-0.46051 -0.85074,-0.40772 -0.30607,0.0621 -0.51943,0.21443 -1.19181,-0.008 -0.46771,-0.0106 -0.5442,0.25252 -0.68608,0.49397 -0.22441,0.0867 -0.44158,-0.037 -0.36068,-0.29371 z"
       id="path10-3-1-0-9"
       sodipodi:nodetypes="cccccccccc" /><ellipse
       style="fill:none;stroke:#013948;stroke-width:1.01432;stroke-linecap:square;stroke-miterlimit:2;stroke-dasharray:none;stroke-opacity:1;paint-order:fill markers stroke"
       id="path1-1-7-3-41-4-7-2-4"
       cx="250.17566"
       cy="65.825203"
       rx="3.9671905"
       ry="3.4002345" /><path
       style="fill:none;stroke:#013948;stroke-width:0.955227;stroke-linecap:square;stroke-miterlimit:2;stroke-dasharray:none;stroke-opacity:1;paint-order:fill markers stroke"
       d="m 240.26145,86.069451 c -0.0245,1.89036 3.89626,1.79966 3.80234,0.0179 v -10.55517 c 0.0966,-0.88547 1.94969,-1.14877 1.88986,0.0538 l -0.23811,7.62689 -1.59496,8.13973 1.34015,0.0219 -0.38976,12.484269 c 0.11387,1.91765 4.10542,1.54682 4.08524,0.0181 l 0.44419,-12.704779 0.35454,0.005 -0.10656,-2.81289 1.2124,0.018 -0.0747,2.80668 0.34314,0.006 0.42986,12.655959 c 0.25183,1.89989 4.05172,1.69224 4.03999,-0.0448 l -0.40234,-12.638629 1.21288,0.015 -1.46334,-7.88294 -0.24442,-7.67807 c -0.0688,-0.86314 1.87736,-1.06598 1.93221,-0.0357 l -0.0165,10.70012 c 0.10875,1.78308 4.00636,1.30295 3.77972,-0.0808 0,0 -0.12802,-12.33972 -0.14713,-13.05038 -0.0425,-1.5774 -1.84256,-2.42073 -3.10715,-2.42527 l -4.06683,-0.0147 c -0.95255,1.71035 -4.52639,1.59592 -5.70322,-0.0327 l -3.23748,0.0492 c -2.7611,-0.0302 -3.98365,1.18853 -3.93814,2.62084 z"
       id="path2-4-6-2-20-1-7-3-1"
       sodipodi:nodetypes="ccccccccccccccccccccccccssccccc" /><path
       style="fill:none;stroke:#013948;stroke-width:0.7;stroke-linecap:square;stroke-linejoin:round;stroke-miterlimit:2;stroke-dasharray:none;stroke-opacity:1;paint-order:fill markers stroke"
       d="m 248.54451,62.390042 c 0.0447,-0.52773 -0.69814,-0.93671 -1.55242,-1.15323 1.54931,-0.14353 4.35733,1.01151 2.02923,0.75404"
       id="path6-2-6-8-5"
       sodipodi:nodetypes="ccc" /><ellipse
       style="fill:none;stroke:#013948;stroke-width:1.051;stroke-linecap:square;stroke-miterlimit:2;stroke-dasharray:none;stroke-opacity:1;paint-order:fill markers stroke"
       id="path1-1-7-3-8-6-4-4-6"
       cx="306.46112"
       cy="56.306511"
       rx="3.7315774"
       ry="3.8811119" /><path
       style="fill:none;stroke:#013948;stroke-width:1.051;stroke-linecap:square;stroke-miterlimit:2;stroke-dasharray:none;stroke-opacity:1;paint-order:fill markers stroke"
       d="m 296.28264,81.988701 c -0.024,2.33543 3.81784,2.22338 3.72581,0.0221 0,-1.78145 -0.32056,-3.72433 -0.14294,-5.47084 0.25702,-2.52733 0.55924,-4.88387 0.14294,-7.56948 0.0946,-1.09394 1.47129,-1.466 1.41267,0.0197 -0.0975,1.09992 -0.0775,2.27487 0.48447,3.39116 0.064,2.791 0.50175,5.46986 -0.24508,8.50411 -2.44899,9.45043 -0.70027,15.66702 -0.66516,23.080929 0.11158,2.36915 4.02279,1.91101 4.00302,0.0223 l 0.2175,-7.843809 c 0.40902,-4.39178 0.39879,-7.94508 0.31476,-11.35075 l 1.44154,0.0222 c -0.29119,4.14561 0.0361,7.92012 0.35255,11.70117 l 0.22411,7.437939 c 0.24676,2.3472 3.97017,2.09067 3.95867,-0.0554 0.0505,-7.547319 1.58402,-13.991849 -0.56351,-23.146409 -0.53321,-3.07885 -0.13634,-5.59966 -0.20449,-8.39948 0.57562,-1.06366 0.57624,-2.26211 0.70715,-3.43998 -0.0674,-1.06635 1.34866,-1.19836 1.40241,0.0745 -0.66492,2.59027 -0.56823,5.51375 -0.24217,8.53757 0.025,1.54091 0.1632,3.0139 -0.10143,4.72858 0.41753,2.5583 3.93444,1.86692 3.61009,0.0405 0,0 -0.37039,-4.19017 0.0256,-8.20639 0.34585,-3.5075 0.28439,-7.00998 -0.0762,-8.05692 -0.56443,-1.63869 -1.56366,-2.989561 -3.04461,-2.996291 l -3.98498,-0.0181 -2.64157,3.224341 -2.94686,-3.264741 -3.17231,0.0608 c -2.70553,-0.0373 -3.99701,1.281281 -4.3266,3.074201 -0.57376,3.00213 0.098,6.04907 0.23648,8.99136 0.10686,2.27021 0.10782,4.60235 0.0982,6.88509 z"
       id="path2-4-6-2-5-1-5-3-66"
       sodipodi:nodetypes="ccscccccccccccccccccccssscccccscc" /><path
       style="fill:#000000;fill-opacity:1;stroke:#013948;stroke-width:0.1;stroke-linecap:square;stroke-linejoin:miter;stroke-miterlimit:2;stroke-dasharray:none;stroke-opacity:1;paint-order:fill markers stroke"
       d="m 304.99597,57.71646 c 0.0169,-0.29618 -0.0511,-0.544149 0.75105,-0.678799 0.32673,0.13559 0.83876,0.27337 1.3212,-0.0237 0.75022,0.009 1.11773,0.25976 0.75381,1.890319 -0.32447,0.6287 -0.39347,0.0179 -0.56286,-0.0409 0.42788,-0.31471 0.45211,-0.87359 0.30293,-1.17104 -0.11462,-0.22852 -0.34444,-0.24652 -0.49389,-0.22358 -0.30607,0.0621 -0.51943,0.21443 -1.19181,-0.008 -0.67437,-0.0175 -0.53338,1.05372 -0.0485,1.4476 0.53812,0.36854 1.10201,0.2396 1.37693,-0.0166 0.669,-0.62353 0.91508,-1.51939 0.53429,0.66111 -0.0382,0.21867 -2.03288,0.0728 -2.35425,-0.11381 -0.23307,-0.65884 -0.38533,-1.25154 -0.38887,-1.72258 z"
       id="path10-1-6-5-8-6"
       sodipodi:nodetypes="cccccscccssccc" /><ellipse
       style="fill:none;stroke:#013948;stroke-width:1.051;stroke-linecap:square;stroke-miterlimit:2;stroke-dasharray:none;stroke-opacity:1;paint-order:fill markers stroke"
       id="path1-1-7-3-89-6-7-4-6"
       cx="335.63159"
       cy="56.749466"
       rx="3.7315774"
       ry="3.8811119" /><path
       style="fill:none;stroke:#013948;stroke-width:1.051;stroke-linecap:square;stroke-miterlimit:2;stroke-dasharray:none;stroke-opacity:1;paint-order:fill markers stroke"
       d="m 325.57541,81.874341 c -0.024,2.33543 3.81784,2.22338 3.72581,0.0221 v -13.04032 c 0.0946,-1.09394 1.91044,-1.41923 1.85182,0.0665 -0.15437,4.50422 -0.88303,9.07606 -0.33434,13.50192 l -0.53058,21.427509 c 0.11158,2.36915 4.02279,1.91101 4.00302,0.0223 l 0.53226,-19.194559 1.44154,0.0222 0.57666,19.139109 c 0.24676,2.3472 3.97017,2.09067 3.95867,-0.0554 l -0.5243,-20.765539 c 0.63956,-4.5472 -0.11952,-9.3487 -0.35486,-14.05497 -0.0674,-1.06635 1.83957,-1.31695 1.89332,-0.0441 l -0.0162,13.21938 c 0.10656,2.2029 3.92572,1.60973 3.70364,-0.0998 0,0 -0.12544,-15.24501 -0.14416,-16.12299 -0.0416,-1.94878 -1.80548,-2.99067 -3.04461,-2.99629 l -3.98498,-0.0181 c -0.31229,0.38412 -1.0846,0.66671 -1.61528,0.78786 -0.19599,0.0447 0.0649,5.9579 0.65098,9.23307 l -1.60854,1.63211 -1.50694,-1.57638 c 0.5545,-3.20248 0.31316,-9.17524 0.12523,-9.206 -0.65317,-0.10693 -0.98277,-0.3927 -1.63388,-0.91105 l -3.17231,0.0608 c -2.70553,-0.0373 -3.90347,1.46837 -3.85888,3.2379 z"
       id="path2-4-6-2-2-3-9-3-7"
       sodipodi:nodetypes="ccccccccccccccccsscccccccccc" /><path
       style="fill:none;stroke:#013948;stroke-width:1.3;stroke-linecap:square;stroke-linejoin:round;stroke-miterlimit:2;stroke-dasharray:none;stroke-opacity:1;paint-order:fill markers stroke"
       d="m 332.71,58.948081 c 0.43532,0.79505 1.378,1.47201 3.11996,2.41795 0.82665,-0.59664 1.74835,-0.90067 2.83329,-2.59885"
       id="path7-5-7-0-14"
       sodipodi:nodetypes="ccc" /><path
       style="fill:#000000;fill-opacity:1;stroke:#013948;stroke-width:0.1;stroke-linecap:square;stroke-linejoin:miter;stroke-miterlimit:2;stroke-dasharray:none;stroke-opacity:1;paint-order:fill markers stroke"
       d="m 332.07773,56.698082 c -0.18148,0.53495 1.6615,2.544269 2.3151,1.38907 l 0.48782,2.496999 -2.76985,-1.90996 z"
       id="path11-18-5-8-06"
       sodipodi:nodetypes="ccccc" /><path
       style="fill:#000000;fill-opacity:1;stroke:#013948;stroke-width:0.1;stroke-linecap:square;stroke-linejoin:miter;stroke-miterlimit:2;stroke-dasharray:none;stroke-opacity:1;paint-order:fill markers stroke"
       d="m 339.34495,56.623202 c 0.18148,0.53495 -1.6615,2.544269 -2.3151,1.38907 0.26963,0.896369 -0.19896,1.683369 -0.48782,2.496999 l 2.76985,-1.90996 z"
       id="path11-1-6-4-0-1"
       sodipodi:nodetypes="ccccc" /><path
       style="fill:#000000;fill-opacity:1;stroke:#013948;stroke-width:0.1;stroke-linecap:square;stroke-linejoin:miter;stroke-miterlimit:2;stroke-dasharray:none;stroke-opacity:1;paint-order:fill markers stroke"
       d="m 334.30399,58.494391 c 0.0169,-0.296179 -0.0511,-0.544149 0.75105,-0.678799 0.32673,0.13559 0.83876,0.27337 1.3212,-0.0237 0.75022,0.009 1.11773,0.25976 0.75381,1.890319 -0.32447,0.6287 -0.39347,0.0179 -0.56286,-0.0409 0.42788,-0.31471 0.45211,-0.87359 0.30293,-1.17104 -0.11462,-0.228519 -0.34444,-0.246519 -0.49389,-0.223579 -0.30607,0.0621 -0.51943,0.214429 -1.19181,-0.008 -0.67437,-0.0175 -0.53338,1.053719 -0.0485,1.447599 0.53812,0.36854 1.10201,0.2396 1.37693,-0.0166 0.669,-0.62353 0.91508,-1.519389 0.53429,0.66111 -0.0382,0.21867 -2.03288,0.0728 -2.35425,-0.11381 -0.23307,-0.65884 -0.38533,-1.25154 -0.38887,-1.72258 z"
       id="path10-1-4-2-0-5-2"
       sodipodi:nodetypes="cccccscccssccc" /><ellipse
       style="fill:none;stroke:#013948;stroke-width:1.051;stroke-linecap:square;stroke-miterlimit:2;stroke-dasharray:none;stroke-opacity:1;paint-order:fill markers stroke"
       id="path1-1-7-3-4-3-8-6-1"
       cx="366.51193"
       cy="55.975777"
       rx="3.7315774"
       ry="3.8811119" /><path
       style="fill:none;stroke:#013948;stroke-width:1.051;stroke-linecap:square;stroke-miterlimit:2;stroke-dasharray:none;stroke-opacity:1;paint-order:fill markers stroke"
       d="m 356.4381,82.107131 c -0.024,2.33543 3.81784,2.22338 3.72581,0.0221 v -13.04032 c 0.0946,-1.09394 1.91044,-1.41923 1.85182,0.0665 -0.23765,4.33737 -0.61544,8.88918 -0.31328,12.65163 l -0.55164,22.277789 c 0.11158,2.36915 4.02279,1.91101 4.00302,0.0223 l 0.53226,-19.194559 1.44154,0.0222 0.57666,19.139099 c 0.24676,2.3472 3.97017,2.09067 3.95867,-0.0554 l -0.55637,-22.035849 c 0.30949,-4.41787 -0.12417,-8.53266 -0.32279,-12.78466 -0.0674,-1.06635 1.83957,-1.31695 1.89332,-0.0441 l -0.0162,13.21938 c 0.10656,2.2029 3.92572,1.60973 3.70364,-0.0998 0,0 -0.12544,-15.24502 -0.14416,-16.12299 -0.0416,-1.94878 -1.80856,-3.083735 -3.04461,-2.996295 l -3.95191,0.279565 c -0.0426,0.6216 -0.99606,8.68089 -2.9092,12.15718 -1.9302,-4.12451 -2.25946,-11.79653 -2.7123,-12.495245 l -3.17231,0.0608 c -2.70553,-0.0373 -3.90347,1.468375 -3.85888,3.237905 z"
       id="path2-4-6-2-3-5-3-8-49"
       sodipodi:nodetypes="ccccccccccccccccsscccccc" /><path
       style="fill:none;fill-opacity:1;stroke:#013948;stroke-width:1.3;stroke-linecap:square;stroke-linejoin:round;stroke-miterlimit:2;stroke-dasharray:none;stroke-opacity:1;paint-order:fill markers stroke"
       d="m 363.55596,58.175456 c 0.43532,0.79505 1.39454,2.19961 3.07035,3.41014 1.33815,-0.94433 2.30766,-2.47338 3.01519,-3.756399"
       id="path7-98-1-2-1-5"
       sodipodi:nodetypes="ccc" /><path
       style="fill:#000000;fill-opacity:1;stroke:#013948;stroke-width:0.1;stroke-linecap:square;stroke-linejoin:miter;stroke-miterlimit:2;stroke-dasharray:none;stroke-opacity:1;paint-order:fill markers stroke"
       d="m 362.92369,55.925457 c -0.18148,0.53495 1.6615,2.544269 2.3151,1.38907 l 0.48782,2.496999 -2.76985,-1.909959 z"
       id="path11-8-4-6-4-2"
       sodipodi:nodetypes="ccccc" /><path
       style="fill:#000000;fill-opacity:1;stroke:#013948;stroke-width:0.1;stroke-linecap:square;stroke-linejoin:miter;stroke-miterlimit:2;stroke-dasharray:none;stroke-opacity:1;paint-order:fill markers stroke"
       d="m 370.19091,55.850577 c 0.18148,0.53495 -1.6615,2.544269 -2.3151,1.38907 0.26963,0.896369 -0.19896,1.683369 -0.48782,2.496999 l 2.76985,-1.909959 z"
       id="path11-1-0-62-0-3-3"
       sodipodi:nodetypes="ccccc" /><path
       style="fill:#000000;fill-opacity:1;stroke:#013948;stroke-width:0.1;stroke-linecap:square;stroke-linejoin:miter;stroke-miterlimit:2;stroke-dasharray:none;stroke-opacity:1;paint-order:fill markers stroke"
       d="m 365.14995,57.721767 c 0.0169,-0.29618 -0.0511,-0.54415 0.75105,-0.6788 0.32673,0.13559 0.83876,0.27337 1.3212,-0.0237 0.75022,0.009 1.11773,0.25976 0.75381,1.890319 -0.32447,0.6287 -0.39347,0.0179 -0.56286,-0.0409 0.42788,-0.31471 0.45211,-0.87359 0.30293,-1.171039 -0.11462,-0.22852 -0.34444,-0.24652 -0.49389,-0.22358 -0.30607,0.0621 -0.51943,0.21443 -1.19181,-0.008 -0.67437,-0.0175 -0.53338,1.053719 -0.0485,1.447599 0.53812,0.36854 1.10201,0.2396 1.37693,-0.0166 0.669,-0.62353 0.73069,-1.543659 0.53429,0.66111 -0.0911,1.02258 -2.18917,2.44836 -2.35425,-0.11381 -0.23307,-0.65884 -0.38533,-1.25154 -0.38887,-1.722579 z"
       id="path10-1-4-8-9-6-6-4"
       sodipodi:nodetypes="cccccscccssccc" /><path
       style="fill:#000000;fill-opacity:1;stroke:#013948;stroke-width:0.1;stroke-linecap:square;stroke-linejoin:miter;stroke-miterlimit:2;stroke-dasharray:none;stroke-opacity:1;paint-order:fill markers stroke"
       d="m 364.88379,62.934846 -0.0137,1.488625 3.29454,-1.535065 -0.002,1.530455 z"
       id="path12-6-3-9-1"
       sodipodi:nodetypes="ccccc" /><ellipse
       style="fill:none;stroke:#013948;stroke-width:1.051;stroke-linecap:square;stroke-miterlimit:2;stroke-dasharray:none;stroke-opacity:1;paint-order:fill markers stroke"
       id="path1-1-7-3-3-5-0-4-5"
       cx="399.53751"
       cy="55.578903"
       rx="3.7315774"
       ry="3.8811119" /><path
       style="fill:none;stroke:#013948;stroke-width:1.051;stroke-linecap:square;stroke-miterlimit:2;stroke-dasharray:none;stroke-opacity:1;paint-order:fill markers stroke"
       d="m 389.64331,82.209191 c -0.024,2.33543 3.81784,2.22338 3.72581,0.0221 v -13.04032 c 0.0946,-1.09394 1.69547,-1.22079 1.63685,0.26494 -0.41278,4.29302 -0.63369,8.3897 -0.10187,12.59684 l -0.54808,22.134149 c 0.11158,2.36915 4.02279,1.91101 4.00302,0.0223 l 0.53226,-19.194559 1.44154,0.0222 0.57666,19.139109 c 0.24676,2.3472 3.97017,2.09067 3.95867,-0.0554 l -0.55143,-21.840169 c 0.36618,-4.26736 0.21971,-8.42929 -0.0962,-12.7819 -0.0674,-1.06635 1.60806,-1.51539 1.66181,-0.24254 l 1.53526,8.71884 6.16595,4.59408 c 1.56402,1.50227 4.41192,-1.0303 2.75636,-2.57118 l -5.42432,-4.17443 -1.48997,-9.57072 c -0.29984,-1.92602 -1.80548,-2.990668 -3.04461,-2.996288 l -3.98498,-0.0181 c -0.41287,0.507838 -1.32832,0.810798 -2.32074,0.879158 -0.099,0.007 -0.19878,0.0113 -0.29891,0.0134 -1.16504,0.0247 -2.37661,-0.27083 -2.96878,-0.932988 l -3.17231,0.0608 c -2.70553,-0.0373 -3.90347,1.468368 -3.85888,3.237898 z"
       id="path2-4-6-2-4-3-2-7-2"
       sodipodi:nodetypes="ccccccccccccccccccsscsscccc" /><path
       style="fill:none;stroke:#013948;stroke-width:2.151;stroke-linecap:round;stroke-linejoin:round;stroke-miterlimit:2;stroke-dasharray:none;stroke-opacity:1;paint-order:fill markers stroke"
       d="m 413.01057,87.379721 c -0.0498,-2.26682 3.87779,-2.43428 3.77016,0.13306 l -0.0332,17.874999"
       id="path1-18-2-2-3-3"
       sodipodi:nodetypes="ccc" /><path
       style="fill:none;fill-opacity:1;stroke:#013948;stroke-width:1.3;stroke-linecap:square;stroke-linejoin:round;stroke-miterlimit:2;stroke-dasharray:none;stroke-opacity:1;paint-order:fill markers stroke"
       d="m 396.1666,57.522913 c -0.005,0.89507 1.26305,3.57646 3.46722,4.66691 1.42306,-0.9231 3.14009,-3.32774 3.29631,-4.74859"
       id="path7-98-3-1-1-3-1"
       sodipodi:nodetypes="ccc" /><path
       style="fill:#000000;fill-opacity:1;stroke:#013948;stroke-width:0.1;stroke-linecap:square;stroke-linejoin:miter;stroke-miterlimit:2;stroke-dasharray:none;stroke-opacity:1;paint-order:fill markers stroke"
       d="m 395.98081,55.554034 c -0.18148,0.53495 1.6615,2.544269 2.3151,1.38907 l 0.48782,2.496999 -2.76985,-1.90996 z"
       id="path11-8-8-5-1-9-6"
       sodipodi:nodetypes="ccccc" /><path
       style="fill:#000000;fill-opacity:1;stroke:#013948;stroke-width:0.1;stroke-linecap:square;stroke-linejoin:miter;stroke-miterlimit:2;stroke-dasharray:none;stroke-opacity:1;paint-order:fill markers stroke"
       d="m 403.24803,55.479154 c 0.18148,0.53495 -1.6615,2.544269 -2.3151,1.38907 0.26963,0.896369 -0.19896,1.683369 -0.48782,2.496999 l 2.76985,-1.90996 z"
       id="path11-1-0-3-0-1-2-88"
       sodipodi:nodetypes="ccccc" /><path
       style="fill:#000000;fill-opacity:1;stroke:#013948;stroke-width:0.1;stroke-linecap:square;stroke-linejoin:miter;stroke-miterlimit:2;stroke-dasharray:none;stroke-opacity:1;paint-order:fill markers stroke"
       d="m 398.20707,57.350343 c 0.0169,-0.296179 -0.0511,-0.544149 0.75105,-0.678799 0.32673,0.13559 0.83876,0.27337 1.3212,-0.0237 0.75022,0.009 1.11773,0.25976 0.75381,1.890319 -0.32447,0.6287 -0.39347,0.0179 -0.56286,-0.0409 0.42788,-0.31471 0.45211,-0.87359 0.30293,-1.17104 -0.11462,-0.228519 -0.34444,-0.246519 -0.49389,-0.223579 -0.30607,0.0621 -0.51943,0.214429 -1.19181,-0.008 -0.67437,-0.0175 -0.53338,1.053719 -0.0485,1.447599 0.53812,0.36854 1.10201,0.2396 1.37693,-0.0166 0.669,-0.62353 0.73071,-1.543659 0.53429,0.66111 -0.0187,0.20962 0.91472,0.42824 0.65131,0.6217 -0.39228,0.28809 -1.03823,1.72756 -1.84861,1.79128 -1.0002,0.0787 -2.16435,-1.30667 -2.37215,-1.95368 -0.0623,-0.19398 1.23385,-0.28369 1.2152,-0.57311 -0.23307,-0.65884 -0.38533,-1.25154 -0.38887,-1.72258 z"
       id="path10-1-4-8-7-3-7-1-2"
       sodipodi:nodetypes="cccccscccsssssccc" /></g></svg>
