<?xml version="1.0" encoding="UTF-8" standalone="no"?>
<!-- Created with Inkscape (http://www.inkscape.org/) -->

<svg
   width="224.8709mm"
   height="55.290989mm"
   viewBox="0 0 224.8709 55.290989"
   version="1.1"
   id="svg1"
   xml:space="preserve"
   inkscape:version="1.4 (86a8ad7, 2024-10-11)"
   sodipodi:docname="drawing.svg"
   xmlns:inkscape="http://www.inkscape.org/namespaces/inkscape"
   xmlns:sodipodi="http://sodipodi.sourceforge.net/DTD/sodipodi-0.dtd"
   xmlns="http://www.w3.org/2000/svg"
   xmlns:svg="http://www.w3.org/2000/svg"><sodipodi:namedview
     id="namedview1"
     pagecolor="#ffffff"
     bordercolor="#000000"
     borderopacity="0.25"
     inkscape:showpageshadow="2"
     inkscape:pageopacity="0.0"
     inkscape:pagecheckerboard="0"
     inkscape:deskcolor="#d1d1d1"
     inkscape:document-units="mm"
     showgrid="false"
     inkscape:zoom="1"
     inkscape:cx="763.5"
     inkscape:cy="-167.5"
     inkscape:window-width="2560"
     inkscape:window-height="1017"
     inkscape:window-x="1912"
     inkscape:window-y="-8"
     inkscape:window-maximized="1"
     inkscape:current-layer="layer1"><inkscape:grid
       id="grid2"
       units="mm"
       originx="-237.52041"
       originy="8.3356535"
       spacingx="0.99999998"
       spacingy="1"
       empcolor="#0099e5"
       empopacity="0.30196078"
       color="#0099e5"
       opacity="0.14901961"
       empspacing="5"
       enabled="true"
       visible="false" /><inkscape:page
       x="0"
       y="0"
       width="224.8709"
       height="55.290989"
       id="page2"
       margin="0"
       bleed="0" /></sodipodi:namedview><defs
     id="defs1" /><g
     inkscape:label="Layer 1"
     inkscape:groupmode="layer"
     id="layer1"
     transform="translate(-237.52041,8.3356533)"><ellipse
       style="fill:none;stroke:#013948;stroke-width:1.051;stroke-linecap:square;stroke-linejoin:round;stroke-miterlimit:2;stroke-dasharray:none;stroke-opacity:1;paint-order:fill markers stroke"
       id="path1-1-7-3-87-3-20-3-10-8-1"
       cx="444.37927"
       cy="10.251627"
       rx="3.9229958"
       ry="3.8686666" /><path
       style="fill:none;fill-opacity:1;stroke:#013948;stroke-width:1.051;stroke-linecap:square;stroke-linejoin:miter;stroke-miterlimit:2;stroke-dasharray:none;stroke-opacity:1;paint-order:fill markers stroke"
       d="m 426.03002,40.149941 3.10059,0.44649 2.47219,-8.19382 c 0.54014,-1.48164 1.54201,-1.71575 2.67995,-1.73252 l 7.08694,-0.0721 0.0723,-3.66888 -8.90295,0.0858 c -1.83712,-0.0741 -1.31499,-2.39757 0.15954,-2.19779 l 8.67,-0.0525 -0.0391,-6.01834 c 0.11214,-3.74586 6.40362,-4.41302 6.60281,0.19556 l 0.0662,12.07989 c 0.13647,1.10817 -0.95316,4.93594 -5.6224,2.68716 l -8.36745,-0.0331 -2.80293,8.74779 c -0.27807,0.44764 -0.64532,0.82591 -1.75287,0.62839 l -3.86125,-0.74415 c -1.77081,-0.43023 -0.93435,-2.5083 0.4385,-2.1579 z"
       id="path13-3-8-2-1"
       sodipodi:nodetypes="cccccccccccccccccc" /><path
       style="fill:none;fill-opacity:1;stroke:#013948;stroke-width:1.051;stroke-linecap:square;stroke-linejoin:miter;stroke-miterlimit:2;stroke-dasharray:none;stroke-opacity:1;paint-order:fill markers stroke"
       d="m 437.74516,36.529731 -2.55395,0.78421 c 1.5951,3.9211 3.87563,6.31845 6.43933,7.56592 6.08649,2.96162 13.65598,1.42372 17.94586,-3.24077 2.70081,-2.93665 3.08557,-7.63429 0.75363,-11.35432 -1.60163,-2.555 -4.70628,-4.72021 -9.37556,-5.90566 l -0.37563,2.52703 c 8.69725,1.06999 11.6087,10.29769 5.70224,14.7237 -7.31534,5.48174 -17.31103,1.37997 -18.53592,-5.10011 z"
       id="path14-7-5-7-5"
       sodipodi:nodetypes="ccsssccsc" /><ellipse
       style="fill:none;stroke:#013948;stroke-width:1.051;stroke-linecap:square;stroke-miterlimit:2;stroke-dasharray:none;stroke-opacity:1;paint-order:fill markers stroke"
       id="path1-1-7-3-2-6-2-9"
       ry="3.8811119"
       rx="3.7315774"
       cy="-2.3722103"
       cx="275.04919" /><path
       style="fill:none;stroke:#013948;stroke-width:1.051;stroke-linecap:square;stroke-miterlimit:2;stroke-dasharray:none;stroke-opacity:1;paint-order:fill markers stroke"
       d="m 265.14989,22.282201 c -0.024,2.33543 3.81784,2.22338 3.72581,0.0221 v -7.19759 c 0.25508,-1.83826 0.35854,-3.74149 0,-5.8427304 0.0946,-1.09394 1.55965,-1.67648 1.50103,-0.19075 -0.2289,0.18471 -0.56053,2.8310104 0.25316,4.1998604 l -0.20748,8.37905 c -1.23868,6.01036 -0.4197,15.02062 -0.55981,22.60777 0.11158,2.36915 4.02279,1.91101 4.00302,0.0223 l 0.53226,-19.19456 1.44154,0.0222 0.57666,19.13911 c 0.24676,2.3472 3.97017,2.09067 3.95867,-0.0554 -0.16012,-7.48396 0.55053,-15.11305 -0.55989,-22.43863 l -0.21298,-8.53578 c 0.19872,-1.20574 0.74384,-2.84666 0.0921,-4.0445404 -0.0674,-1.06635 1.64113,-1.11851 1.69488,0.15434 -0.0745,1.7450004 -0.4135,3.0937004 -0.008,6.2740404 l -0.009,6.94534 c 0.10656,2.2029 3.92572,1.60973 3.70364,-0.0998 0,0 -0.20274,-3.29863 -0.058,-6.91093 0.16871,-4.2109 0.33494,-8.8120004 0.17845,-9.2451304 -0.66236,-1.8332404 -2.07007,-2.9576004 -3.3092,-2.9632204 l -3.98498,-0.0181 c -0.93338,1.14808 -4.43528,1.24904 -5.58843,-0.0404 l -3.17231,0.0608 c -2.69966,-0.0373 -3.96466,1.46837 -4.37337,3.2379004 -0.22329,1.91933 0.43798,5.8740104 0.43808,9.0219504 z"
       id="path2-4-6-2-54-5-8-0"
       sodipodi:nodetypes="ccccccccccccccccccccssscccccc" /><path
       style="fill:#000000;fill-opacity:1;stroke:#013948;stroke-width:0.1;stroke-linecap:square;stroke-linejoin:miter;stroke-miterlimit:2;stroke-dasharray:none;stroke-opacity:1;paint-order:fill markers stroke"
       d="m 273.57301,-1.2399998 c 0.23313,-0.2407396 0.11525,-0.4887096 0.91738,-0.6233596 0.32673,0.13559 0.83876,0.27337 1.3212,-0.0237 0.75022,0.009 0.9514,0.28194 1.19181,0.5763096 0.0715,0.23273 -0.17169,0.34503002 -0.34108,0.28619 -0.22972,-0.35837 -0.50677,-0.4605096 -0.85074,-0.40772 -0.30607,0.0621 -0.51943,0.21443 -1.19181,-0.008 -0.46771,-0.0106 -0.5442,0.2525176 -0.68608,0.49396762 -0.22441,0.0867 -0.44158,-0.037 -0.36068,-0.29371002 z"
       id="path10-3-1-0-8"
       sodipodi:nodetypes="cccccccccc" /><ellipse
       style="fill:#013948;fill-opacity:1;stroke:#013948;stroke-width:1.01432;stroke-linecap:square;stroke-miterlimit:2;stroke-dasharray:none;stroke-opacity:1;paint-order:fill markers stroke"
       id="path1-1-7-3-41-4-7-2-3"
       cx="247.91235"
       cy="6.3172579"
       rx="3.9671905"
       ry="3.4002345" /><path
       style="fill:#013948;fill-opacity:1;stroke:#013948;stroke-width:0.955227;stroke-linecap:square;stroke-miterlimit:2;stroke-dasharray:none;stroke-opacity:1;paint-order:fill markers stroke"
       d="m 237.99815,26.561509 c -0.0245,1.89036 3.89626,1.79966 3.80234,0.0179 v -10.55517 c 0.0966,-0.88547 1.94969,-1.14877 1.88986,0.0538 l -0.23811,7.62689 -1.59496,8.13973 1.34015,0.0219 -0.38976,12.48427 c 0.11387,1.91765 4.10542,1.54682 4.08524,0.0181 l 0.44419,-12.70478 0.35454,0.005 -0.10656,-2.81289 1.2124,0.018 -0.0747,2.80668 0.34314,0.006 0.42986,12.65596 c 0.25183,1.89989 4.05172,1.69224 4.03999,-0.0448 l -0.40234,-12.63863 1.21288,0.015 -1.46334,-7.88294 -0.24442,-7.67807 c -0.0688,-0.86314 1.87736,-1.06598 1.93221,-0.0357 l -0.0165,10.70012 c 0.10875,1.78308 4.00636,1.30295 3.77972,-0.0808 0,0 -0.12802,-12.33972 -0.14713,-13.05038 -0.0425,-1.5774 -1.84256,-2.42073 -3.10715,-2.42527 l -4.06683,-0.0147 c -0.95255,1.71035 -4.52639,1.59592 -5.70322,-0.0327 l -3.23748,0.0492 c -2.7611,-0.0302 -3.98365,1.18853 -3.93814,2.62084 z"
       id="path2-4-6-2-20-1-7-3-8"
       sodipodi:nodetypes="ccccccccccccccccccccccccssccccc" /><path
       style="fill:#013948;fill-opacity:1;stroke:#013948;stroke-width:0.7;stroke-linecap:square;stroke-linejoin:round;stroke-miterlimit:2;stroke-dasharray:none;stroke-opacity:1;paint-order:fill markers stroke"
       d="m 246.28121,2.8820982 c 0.0447,-0.52773 -0.69814,-0.93671 -1.55242,-1.15323 1.54931,-0.14353 4.35733,1.01151 2.02923,0.75404"
       id="path6-2-6-8-7"
       sodipodi:nodetypes="ccc" /><ellipse
       style="fill:none;stroke:#013948;stroke-width:1.051;stroke-linecap:square;stroke-miterlimit:2;stroke-dasharray:none;stroke-opacity:1;paint-order:fill markers stroke"
       id="path1-1-7-3-8-6-4-4-2"
       cx="304.19781"
       cy="-3.2014339"
       rx="3.7315774"
       ry="3.8811119" /><path
       style="fill:none;stroke:#013948;stroke-width:1.051;stroke-linecap:square;stroke-miterlimit:2;stroke-dasharray:none;stroke-opacity:1;paint-order:fill markers stroke"
       d="m 294.01934,22.480757 c -0.024,2.33543 3.81784,2.22338 3.72581,0.0221 0,-1.78145 -0.32056,-3.72433 -0.14294,-5.47084 0.25702,-2.52733 0.55924,-4.88387 0.14294,-7.5694804 0.0946,-1.09394 1.47129,-1.466 1.41267,0.0197 -0.0975,1.0999204 -0.0775,2.2748704 0.48447,3.3911604 0.064,2.791 0.50175,5.46986 -0.24508,8.50411 -2.44899,9.45043 -0.70027,15.66702 -0.66516,23.08093 0.11158,2.36915 4.02279,1.91101 4.00302,0.0223 l 0.2175,-7.84381 c 0.40902,-4.39178 0.39879,-7.94508 0.31476,-11.35075 l 1.44154,0.0222 c -0.29119,4.14561 0.0361,7.92012 0.35255,11.70117 l 0.22411,7.43794 c 0.24676,2.3472 3.97017,2.09067 3.95867,-0.0554 0.0505,-7.54732 1.58402,-13.99185 -0.56351,-23.14641 -0.53321,-3.07885 -0.13634,-5.59966 -0.20449,-8.39948 0.57562,-1.06366 0.57624,-2.26211 0.70715,-3.4399804 -0.0674,-1.06635 1.34866,-1.19836 1.40241,0.0745 -0.66492,2.5902704 -0.56823,5.5137504 -0.24217,8.5375704 0.025,1.54091 0.1632,3.0139 -0.10143,4.72858 0.41753,2.5583 3.93444,1.86692 3.61009,0.0405 0,0 -0.37039,-4.19017 0.0256,-8.20639 0.34585,-3.5075 0.28439,-7.0099804 -0.0762,-8.0569204 -0.56443,-1.6386904 -1.56366,-2.9895604 -3.04461,-2.9962904 l -3.98498,-0.0181 -2.64157,3.2243404 -2.94686,-3.2647404 -3.17231,0.0608 c -2.70553,-0.0373 -3.99701,1.28128 -4.3266,3.0742004 -0.57376,3.00213 0.098,6.0490704 0.23648,8.9913604 0.10686,2.27021 0.10782,4.60235 0.0982,6.88509 z"
       id="path2-4-6-2-5-1-5-3-6"
       sodipodi:nodetypes="ccscccccccccccccccccccssscccccscc" /><path
       style="fill:#000000;fill-opacity:1;stroke:#013948;stroke-width:0.1;stroke-linecap:square;stroke-linejoin:miter;stroke-miterlimit:2;stroke-dasharray:none;stroke-opacity:1;paint-order:fill markers stroke"
       d="m 302.73267,-1.7914834 c 0.0169,-0.29618 -0.0511,-0.544149 0.75105,-0.678799 0.32673,0.13559 0.83876,0.27337 1.3212,-0.0237 0.75022,0.009 1.11773,0.25976 0.75381,1.89031862 -0.32447,0.6287 -0.39347,0.0179 -0.56286,-0.0409 0.42788,-0.31471 0.45211,-0.87358962 0.30293,-1.17103962 -0.11462,-0.22852 -0.34444,-0.24652 -0.49389,-0.22358 -0.30607,0.0621 -0.51943,0.21443 -1.19181,-0.008 -0.67437,-0.0175 -0.53338,1.05371962 -0.0485,1.44759962 0.53812,0.36854 1.10201,0.2396 1.37693,-0.0166 0.669,-0.62353002 0.91508,-1.51938962 0.53429,0.66111 -0.0382,0.21867 -2.03288,0.0728 -2.35425,-0.11381 -0.23307,-0.65884 -0.38533,-1.25154002 -0.38887,-1.72257962 z"
       id="path10-1-6-5-8-9"
       sodipodi:nodetypes="cccccscccssccc" /><ellipse
       style="fill:none;stroke:#013948;stroke-width:1.051;stroke-linecap:square;stroke-miterlimit:2;stroke-dasharray:none;stroke-opacity:1;paint-order:fill markers stroke"
       id="path1-1-7-3-89-6-7-4-3"
       cx="333.36829"
       cy="-2.7584789"
       rx="3.7315774"
       ry="3.8811119" /><path
       style="fill:none;stroke:#013948;stroke-width:1.051;stroke-linecap:square;stroke-miterlimit:2;stroke-dasharray:none;stroke-opacity:1;paint-order:fill markers stroke"
       d="m 323.31211,22.366398 c -0.024,2.33543 3.81784,2.22338 3.72581,0.0221 V 9.3481776 c 0.0946,-1.09394 1.91044,-1.41923 1.85182,0.0665 -0.15437,4.5042204 -0.88303,9.0760604 -0.33434,13.5019204 l -0.53058,21.42751 c 0.11158,2.36915 4.02279,1.91101 4.00302,0.0223 l 0.53226,-19.19456 1.44154,0.0222 0.57666,19.13911 c 0.24676,2.3472 3.97017,2.09067 3.95867,-0.0554 l -0.5243,-20.76554 c 0.63956,-4.5472 -0.11952,-9.3487 -0.35486,-14.0549704 -0.0674,-1.06635 1.83957,-1.31695 1.89332,-0.0441 l -0.0162,13.2193804 c 0.10656,2.2029 3.92572,1.60973 3.70364,-0.0998 0,0 -0.12544,-15.2450104 -0.14416,-16.1229904 -0.0416,-1.9487804 -1.80548,-2.9906704 -3.04461,-2.9962904 l -3.98498,-0.0181 c -0.31229,0.38412 -1.0846,0.66671 -1.61528,0.78786 -0.19599,0.0447 0.0649,5.9579008 0.65098,9.2330708 l -1.60854,1.63211 -1.50694,-1.57638 c 0.5545,-3.20248 0.31316,-9.1752408 0.12523,-9.2060008 -0.65317,-0.10693 -0.98277,-0.3927 -1.63388,-0.91105 l -3.17231,0.0608 c -2.70553,-0.0373 -3.90347,1.46837 -3.85888,3.2379004 z"
       id="path2-4-6-2-2-3-9-3-8"
       sodipodi:nodetypes="ccccccccccccccccsscccccccccc" /><path
       style="fill:none;stroke:#013948;stroke-width:1.3;stroke-linecap:square;stroke-linejoin:round;stroke-miterlimit:2;stroke-dasharray:none;stroke-opacity:1;paint-order:fill markers stroke"
       d="m 330.4467,-0.55986278 c 0.43532,0.79505 1.378,1.47201 3.11996,2.41794998 0.82665,-0.59664 1.74835,-0.90066998 2.83329,-2.59884998"
       id="path7-5-7-0-1"
       sodipodi:nodetypes="ccc" /><path
       style="fill:#000000;fill-opacity:1;stroke:#013948;stroke-width:0.1;stroke-linecap:square;stroke-linejoin:miter;stroke-miterlimit:2;stroke-dasharray:none;stroke-opacity:1;paint-order:fill markers stroke"
       d="m 329.81443,-2.8098614 c -0.18148,0.53495 1.6615,2.54426862 2.3151,1.3890696 l 0.48782,2.496999 -2.76985,-1.90995998 z"
       id="path11-18-5-8-0"
       sodipodi:nodetypes="ccccc" /><path
       style="fill:#000000;fill-opacity:1;stroke:#013948;stroke-width:0.1;stroke-linecap:square;stroke-linejoin:miter;stroke-miterlimit:2;stroke-dasharray:none;stroke-opacity:1;paint-order:fill markers stroke"
       d="m 337.08165,-2.8847414 c 0.18148,0.53495 -1.6615,2.54426862 -2.3151,1.38907 0.26963,0.89636862 -0.19896,1.68336862 -0.48782,2.4969986 l 2.76985,-1.90995998 z"
       id="path11-1-6-4-0-3"
       sodipodi:nodetypes="ccccc" /><path
       style="fill:#000000;fill-opacity:1;stroke:#013948;stroke-width:0.1;stroke-linecap:square;stroke-linejoin:miter;stroke-miterlimit:2;stroke-dasharray:none;stroke-opacity:1;paint-order:fill markers stroke"
       d="m 332.04069,-1.0135528 c 0.0169,-0.296179 -0.0511,-0.5441486 0.75105,-0.6787986 0.32673,0.13559 0.83876,0.2733696 1.3212,-0.0237 0.75022,0.009 1.11773,0.25976 0.75381,1.89031862 -0.32447,0.6287 -0.39347,0.0179 -0.56286,-0.0409 0.42788,-0.31471 0.45211,-0.87359 0.30293,-1.17104002 -0.11462,-0.228519 -0.34444,-0.246519 -0.49389,-0.223579 -0.30607,0.0621 -0.51943,0.214429 -1.19181,-0.008 -0.67437,-0.0175 -0.53338,1.05371902 -0.0485,1.44759902 0.53812,0.36854 1.10201,0.2396 1.37693,-0.0166 0.669,-0.62353 0.91508,-1.51938902 0.53429,0.66111 -0.0382,0.21866998 -2.03288,0.0728 -2.35425,-0.11381 -0.23307,-0.65884 -0.38533,-1.25154 -0.38887,-1.72258002 z"
       id="path10-1-4-2-0-5-3"
       sodipodi:nodetypes="cccccscccssccc" /><ellipse
       style="fill:none;stroke:#013948;stroke-width:1.051;stroke-linecap:square;stroke-miterlimit:2;stroke-dasharray:none;stroke-opacity:1;paint-order:fill markers stroke"
       id="path1-1-7-3-4-3-8-6-8"
       cx="364.24863"
       cy="-3.5321681"
       rx="3.7315774"
       ry="3.8811119" /><path
       style="fill:none;stroke:#013948;stroke-width:1.051;stroke-linecap:square;stroke-miterlimit:2;stroke-dasharray:none;stroke-opacity:1;paint-order:fill markers stroke"
       d="m 354.1748,22.599183 c -0.024,2.33543 3.81784,2.22338 3.72581,0.0221 V 9.5809626 c 0.0946,-1.09394 1.91044,-1.41923 1.85182,0.0665 -0.23765,4.3373704 -0.61544,8.8891804 -0.31328,12.6516304 l -0.55164,22.2778 c 0.11158,2.36915 4.02279,1.91101 4.00302,0.0223 l 0.53226,-19.19456 1.44154,0.0222 0.57666,19.13911 c 0.24676,2.3472 3.97017,2.09067 3.95867,-0.0554 l -0.55637,-22.03585 c 0.30949,-4.41787 -0.12417,-8.53266 -0.32279,-12.7846604 -0.0674,-1.06635 1.83957,-1.31695 1.89332,-0.0441 l -0.0162,13.2193804 c 0.10656,2.2029 3.92572,1.60973 3.70364,-0.0998 0,0 -0.12544,-15.2450104 -0.14416,-16.1229904 -0.0416,-1.9487804 -1.80856,-3.0837304 -3.04461,-2.9962904 l -3.95191,0.27956 c -0.0426,0.6216 -0.99606,8.6808908 -2.9092,12.1571808 -1.9302,-4.12451 -2.25946,-11.7965208 -2.7123,-12.4952408 l -3.17231,0.0608 c -2.70553,-0.0373 -3.90347,1.46837 -3.85888,3.2379004 z"
       id="path2-4-6-2-3-5-3-8-4"
       sodipodi:nodetypes="ccccccccccccccccsscccccc" /><path
       style="fill:none;fill-opacity:1;stroke:#013948;stroke-width:1.3;stroke-linecap:square;stroke-linejoin:round;stroke-miterlimit:2;stroke-dasharray:none;stroke-opacity:1;paint-order:fill markers stroke"
       d="m 361.29266,-1.3324878 c 0.43532,0.79505002 1.39454,2.19961002 3.07035,3.41014 1.33815,-0.94433 2.30766,-2.47337998 3.01519,-3.7563986"
       id="path7-98-1-2-1-8"
       sodipodi:nodetypes="ccc" /><path
       style="fill:#000000;fill-opacity:1;stroke:#013948;stroke-width:0.1;stroke-linecap:square;stroke-linejoin:miter;stroke-miterlimit:2;stroke-dasharray:none;stroke-opacity:1;paint-order:fill markers stroke"
       d="m 360.66039,-3.5824864 c -0.18148,0.53495 1.6615,2.5442686 2.3151,1.38907 l 0.48782,2.49699862 -2.76985,-1.90995862 z"
       id="path11-8-4-6-4-0"
       sodipodi:nodetypes="ccccc" /><path
       style="fill:#000000;fill-opacity:1;stroke:#013948;stroke-width:0.1;stroke-linecap:square;stroke-linejoin:miter;stroke-miterlimit:2;stroke-dasharray:none;stroke-opacity:1;paint-order:fill markers stroke"
       d="m 367.92761,-3.6573664 c 0.18148,0.53495 -1.6615,2.5442686 -2.3151,1.38907 0.26963,0.8963686 -0.19896,1.68336862 -0.48782,2.49699862 l 2.76985,-1.90995862 z"
       id="path11-1-0-62-0-3-1"
       sodipodi:nodetypes="ccccc" /><path
       style="fill:#000000;fill-opacity:1;stroke:#013948;stroke-width:0.1;stroke-linecap:square;stroke-linejoin:miter;stroke-miterlimit:2;stroke-dasharray:none;stroke-opacity:1;paint-order:fill markers stroke"
       d="m 362.88665,-1.7861764 c 0.0169,-0.29618 -0.0511,-0.54415 0.75105,-0.6788 0.32673,0.13559 0.83876,0.27337 1.3212,-0.0237 0.75022,0.009 1.11773,0.25976 0.75381,1.89031862 -0.32447,0.6287 -0.39347,0.0179 -0.56286,-0.0409 0.42788,-0.31471 0.45211,-0.87358962 0.30293,-1.17103862 -0.11462,-0.22852 -0.34444,-0.24652 -0.49389,-0.22358 -0.30607,0.0621 -0.51943,0.21443 -1.19181,-0.008 -0.67437,-0.0175 -0.53338,1.05371862 -0.0485,1.44759862 0.53812,0.36854 1.10201,0.2396 1.37693,-0.0166 0.669,-0.62353002 0.73069,-1.54365862 0.53429,0.66111 -0.0911,1.02257998 -2.18917,2.44835998 -2.35425,-0.11381 -0.23307,-0.65884 -0.38533,-1.25154002 -0.38887,-1.72257862 z"
       id="path10-1-4-8-9-6-6-5"
       sodipodi:nodetypes="cccccscccssccc" /><path
       style="fill:#000000;fill-opacity:1;stroke:#013948;stroke-width:0.1;stroke-linecap:square;stroke-linejoin:miter;stroke-miterlimit:2;stroke-dasharray:none;stroke-opacity:1;paint-order:fill markers stroke"
       d="m 362.62049,3.4269022 -0.0137,1.48862 3.29454,-1.53506 -0.002,1.53045 z"
       id="path12-6-3-9-4"
       sodipodi:nodetypes="ccccc" /><ellipse
       style="fill:none;stroke:#013948;stroke-width:1.051;stroke-linecap:square;stroke-miterlimit:2;stroke-dasharray:none;stroke-opacity:1;paint-order:fill markers stroke"
       id="path1-1-7-3-3-5-0-4-1"
       cx="397.2742"
       cy="-3.9290414"
       rx="3.7315774"
       ry="3.8811119" /><path
       style="fill:none;stroke:#013948;stroke-width:1.051;stroke-linecap:square;stroke-miterlimit:2;stroke-dasharray:none;stroke-opacity:1;paint-order:fill markers stroke"
       d="m 387.38001,22.70125 c -0.024,2.33543 3.81784,2.22338 3.72581,0.0221 V 9.6830296 c 0.0946,-1.09394 1.69547,-1.22079 1.63685,0.26494 -0.41278,4.2930204 -0.63369,8.3897004 -0.10187,12.5968404 l -0.54808,22.13415 c 0.11158,2.36915 4.02279,1.91101 4.00302,0.0223 l 0.53226,-19.19456 1.44154,0.0222 0.57666,19.13911 c 0.24676,2.3472 3.97017,2.09067 3.95867,-0.0554 l -0.55143,-21.84017 c 0.36618,-4.26736 0.21971,-8.42929 -0.0962,-12.7819004 -0.0674,-1.06635 1.60806,-1.51539 1.66181,-0.24254 l 1.53526,8.7188404 6.16595,4.59408 c 1.56402,1.50227 4.41192,-1.0303 2.75636,-2.57118 l -5.42432,-4.17443 -1.48997,-9.5707204 c -0.29984,-1.9260204 -1.80548,-2.9906704 -3.04461,-2.9962904 l -3.98498,-0.0181 c -0.41287,0.50784 -1.32832,0.8108 -2.32074,0.87916 -0.099,0.007 -0.19878,0.0113 -0.29891,0.0134 -1.16504,0.0247 -2.37661,-0.27083 -2.96878,-0.93299 l -3.17231,0.0608 c -2.70553,-0.0373 -3.90347,1.4683704 -3.85888,3.2379004 z"
       id="path2-4-6-2-4-3-2-7-3"
       sodipodi:nodetypes="ccccccccccccccccccsscsscccc" /><path
       style="fill:none;stroke:#013948;stroke-width:2.151;stroke-linecap:round;stroke-linejoin:round;stroke-miterlimit:2;stroke-dasharray:none;stroke-opacity:1;paint-order:fill markers stroke"
       d="m 410.74727,27.871774 c -0.0498,-2.26682 3.87779,-2.43428 3.77016,0.13306 l -0.0332,17.875"
       id="path1-18-2-2-3-7"
       sodipodi:nodetypes="ccc" /><path
       style="fill:none;fill-opacity:1;stroke:#013948;stroke-width:1.3;stroke-linecap:square;stroke-linejoin:round;stroke-miterlimit:2;stroke-dasharray:none;stroke-opacity:1;paint-order:fill markers stroke"
       d="m 393.9033,-1.9850304 c -0.005,0.8950696 1.26305,3.5764596 3.46722,4.6669096 1.42306,-0.9231 3.14009,-3.32773998 3.29631,-4.7485896"
       id="path7-98-3-1-1-3-3"
       sodipodi:nodetypes="ccc" /><path
       style="fill:#000000;fill-opacity:1;stroke:#013948;stroke-width:0.1;stroke-linecap:square;stroke-linejoin:miter;stroke-miterlimit:2;stroke-dasharray:none;stroke-opacity:1;paint-order:fill markers stroke"
       d="m 393.71751,-3.9539094 c -0.18148,0.53495 1.6615,2.5442686 2.3151,1.38907 l 0.48782,2.49699862 -2.76985,-1.90995962 z"
       id="path11-8-8-5-1-9-5"
       sodipodi:nodetypes="ccccc" /><path
       style="fill:#000000;fill-opacity:1;stroke:#013948;stroke-width:0.1;stroke-linecap:square;stroke-linejoin:miter;stroke-miterlimit:2;stroke-dasharray:none;stroke-opacity:1;paint-order:fill markers stroke"
       d="m 400.98473,-4.0287894 c 0.18148,0.53495 -1.6615,2.544269 -2.3151,1.38907 0.26963,0.896369 -0.19896,1.68336862 -0.48782,2.49699862 l 2.76985,-1.90995962 z"
       id="path11-1-0-3-0-1-2-8"
       sodipodi:nodetypes="ccccc" /><path
       style="fill:#000000;fill-opacity:1;stroke:#013948;stroke-width:0.1;stroke-linecap:square;stroke-linejoin:miter;stroke-miterlimit:2;stroke-dasharray:none;stroke-opacity:1;paint-order:fill markers stroke"
       d="m 395.94377,-2.1576004 c 0.0169,-0.296179 -0.0511,-0.544149 0.75105,-0.678799 0.32673,0.13559 0.83876,0.27337 1.3212,-0.0237 0.75022,0.009 1.11773,0.25976 0.75381,1.89031862 -0.32447,0.6287 -0.39347,0.0179 -0.56286,-0.0409 0.42788,-0.31471 0.45211,-0.8735896 0.30293,-1.1710396 -0.11462,-0.228519 -0.34444,-0.246519 -0.49389,-0.223579 -0.30607,0.0621 -0.51943,0.214429 -1.19181,-0.008 -0.67437,-0.0175 -0.53338,1.0537186 -0.0485,1.4475987 0.53812,0.36854 1.10201,0.2396 1.37693,-0.0166 0.669,-0.6235297 0.73071,-1.5436587 0.53429,0.66111 -0.0187,0.20962 0.91472,0.42824 0.65131,0.6217 -0.39228,0.28809 -1.03823,1.7275599 -1.84861,1.7912799 -1.0002,0.0787 -2.16435,-1.3066699 -2.37215,-1.9536799 -0.0623,-0.19398 1.23385,-0.28369 1.2152,-0.57311 -0.23307,-0.6588401 -0.38533,-1.2515397 -0.38887,-1.7225797 z"
       id="path10-1-4-8-7-3-7-1-5"
       sodipodi:nodetypes="cccccscccsssssccc" /></g></svg>
