<?xml version="1.0" encoding="UTF-8" standalone="no"?>
<!-- Created with Inkscape (http://www.inkscape.org/) -->

<svg
   width="103.25997mm"
   height="103.7606mm"
   viewBox="0 0 103.25997 103.7606"
   version="1.1"
   id="svg1"
   xml:space="preserve"
   inkscape:version="1.3.2 (091e20e, 2023-11-25, custom)"
   sodipodi:docname="RevoIconBase.svg"
   xmlns:inkscape="http://www.inkscape.org/namespaces/inkscape"
   xmlns:sodipodi="http://sodipodi.sourceforge.net/DTD/sodipodi-0.dtd"
   xmlns="http://www.w3.org/2000/svg"
   xmlns:svg="http://www.w3.org/2000/svg"><sodipodi:namedview
     id="namedview1"
     pagecolor="#ffffff"
     bordercolor="#000000"
     borderopacity="0.25"
     inkscape:showpageshadow="2"
     inkscape:pageopacity="0.0"
     inkscape:pagecheckerboard="0"
     inkscape:deskcolor="#d1d1d1"
     inkscape:document-units="mm"
     inkscape:zoom="0.74742565"
     inkscape:cx="472.95674"
     inkscape:cy="642.87331"
     inkscape:window-width="2560"
     inkscape:window-height="1017"
     inkscape:window-x="1912"
     inkscape:window-y="564"
     inkscape:window-maximized="1"
     inkscape:current-layer="layer1" /><defs
     id="defs1"><inkscape:path-effect
       effect="powerclip"
       id="path-effect64"
       is_visible="true"
       lpeversion="1"
       inverse="true"
       flatten="false"
       hide_clip="false"
       message="Use fill-rule evenodd on &lt;b&gt;fill and stroke&lt;/b&gt; dialog if no flatten result after convert clip to paths." /><clipPath
       clipPathUnits="userSpaceOnUse"
       id="clipPath64"><path
         style="display:none;fill:#000000;fill-opacity:0;stroke:#6c6c6c;stroke-width:0.993;stroke-linecap:round;stroke-linejoin:round;stroke-dasharray:none;stroke-opacity:1"
         d="m 103.75801,213.96266 c 11.79255,5.18833 33.32746,0.43475 49.50861,2.9304 16.1056,1.10017 15.61388,27.48343 -2.83433,21.13609 l -13.67057,0.0442 c 3.41961,7.36365 27.46862,29.87183 42.0075,44.87135 8.5964,4.58687 18.58122,-5.21951 10.00971,-9.86872 -7.18745,1.07059 -21.25867,-16.81511 -26.58559,-23.44673 26.48271,-9.9307 10.54874,-43.34421 -7.77579,-41.9568 l -45.81106,0.0727 -13.105787,-5.93702 -6.001001,60.21083 10.907718,-0.96192 36.42022,-0.31288 c 3.6024,-0.46668 4.45473,-7.66963 -1.07142,-8.02828 l -38.336877,0.0152 c -0.55721,-2.32952 -0.84472,-4.43951 -1.07868,-6.68822 l 32.135537,-0.009 c 4.35235,-1.15186 3.46577,-8.06734 -0.31289,-8.1664 l -32.164928,0.12516 c 0.233431,-2.39305 0.462031,-4.82343 1.10427,-7.05295 l 36.817808,0.29456 c 4.216,-0.26579 4.04623,-7.44392 -0.37547,-7.63448 l -34.292566,-0.43803 c 1.174426,-3.2846 2.843156,-6.23968 4.505586,-9.19894 z"
         id="path64"
         sodipodi:nodetypes="ccccccccccccccccccccccccc" /><path
         id="lpe_path-effect64"
         style="fill:#000000;fill-opacity:0;stroke:#6c6c6c;stroke-width:0.993;stroke-linecap:round;stroke-linejoin:round;stroke-dasharray:none;stroke-opacity:1"
         class="powerclip"
         d="M 91.051014,185.0178 H 204.31099 V 298.7784 H 91.051014 Z m 12.706996,28.94486 c 11.79255,5.18833 33.32746,0.43475 49.50861,2.9304 16.1056,1.10017 15.61388,27.48343 -2.83433,21.13609 l -13.67057,0.0442 c 3.41961,7.36365 27.46862,29.87183 42.0075,44.87135 8.5964,4.58687 18.58122,-5.21951 10.00971,-9.86872 -7.18745,1.07059 -21.25867,-16.81511 -26.58559,-23.44673 26.48271,-9.9307 10.54874,-43.34421 -7.77579,-41.9568 l -45.81106,0.0727 -13.105787,-5.93702 -6.001001,60.21083 10.907718,-0.96192 36.42022,-0.31288 c 3.6024,-0.46668 4.45473,-7.66963 -1.07142,-8.02828 l -38.336877,0.0152 c -0.55721,-2.32952 -0.84472,-4.43951 -1.07868,-6.68822 l 32.135537,-0.009 c 4.35235,-1.15186 3.46577,-8.06734 -0.31289,-8.1664 l -32.164928,0.12516 c 0.233431,-2.39305 0.462031,-4.82343 1.10427,-7.05295 l 36.817808,0.29456 c 4.216,-0.26579 4.04623,-7.44392 -0.37547,-7.63448 l -34.292566,-0.43803 c 1.174426,-3.2846 2.843156,-6.23968 4.505586,-9.19894 z" /></clipPath></defs><g
     inkscape:label="Layer 1"
     inkscape:groupmode="layer"
     id="layer1"
     transform="translate(-16.452196,-9.2934396)"><path
       style="fill:#033a49;fill-opacity:1;stroke:none;stroke-width:0.861051;stroke-linecap:round;stroke-dasharray:none;stroke-opacity:1"
       id="path2-9-0-2"
       clip-path="url(#clipPath64)"
       inkscape:path-effect="#path-effect64"
       sodipodi:type="arc"
       sodipodi:cx="147.681"
       sodipodi:cy="241.8981"
       sodipodi:rx="51.629986"
       sodipodi:ry="51.880302"
       d="M 199.31099,241.8981 A 51.629986,51.880302 0 0 1 147.681,293.7784 51.629986,51.880302 0 0 1 96.051014,241.8981 51.629986,51.880302 0 0 1 147.681,190.0178 a 51.629986,51.880302 0 0 1 51.62999,51.8803 z"
       transform="translate(-79.598816,-180.72436)"
       inkscape:export-filename="icon.svg"
       inkscape:export-xdpi="96"
       inkscape:export-ydpi="96" /></g></svg>
