<?xml version="1.0" encoding="UTF-8" standalone="no"?>
<!-- Created with Inkscape (http://www.inkscape.org/) -->

<svg
   width="52.958263mm"
   height="63.629791mm"
   viewBox="0 0 52.958263 63.629791"
   version="1.1"
   id="svg1"
   xml:space="preserve"
   inkscape:version="1.3.2 (091e20e, 2023-11-25, custom)"
   sodipodi:docname="drawing.svg"
   xmlns:inkscape="http://www.inkscape.org/namespaces/inkscape"
   xmlns:sodipodi="http://sodipodi.sourceforge.net/DTD/sodipodi-0.dtd"
   xmlns="http://www.w3.org/2000/svg"
   xmlns:svg="http://www.w3.org/2000/svg"><sodipodi:namedview
     id="namedview1"
     pagecolor="#ffffff"
     bordercolor="#000000"
     borderopacity="0.25"
     inkscape:showpageshadow="2"
     inkscape:pageopacity="0.0"
     inkscape:pagecheckerboard="0"
     inkscape:deskcolor="#d1d1d1"
     inkscape:document-units="mm"
     inkscape:zoom="1.0570195"
     inkscape:cx="606.89514"
     inkscape:cy="894.49627"
     inkscape:window-width="2560"
     inkscape:window-height="1017"
     inkscape:window-x="1912"
     inkscape:window-y="564"
     inkscape:window-maximized="1"
     inkscape:current-layer="layer1"
     showgrid="true"><inkscape:grid
       id="grid30"
       units="mm"
       originx="-155.12433"
       originy="-223.60681"
       spacingx="0.99999998"
       spacingy="1"
       empcolor="#0099e5"
       empopacity="0.30196078"
       color="#0099e5"
       opacity="0.14901961"
       empspacing="5"
       dotted="false"
       gridanglex="30"
       gridanglez="30"
       visible="true" /></sodipodi:namedview><defs
     id="defs1" /><g
     inkscape:label="Layer 1"
     inkscape:groupmode="layer"
     id="layer1"
     transform="translate(-155.12433,-223.60682)"><path
       style="fill:none;fill-opacity:1;stroke:#ffffff;stroke-width:2.103;stroke-linecap:round;stroke-linejoin:round;stroke-dasharray:none;stroke-opacity:1;paint-order:stroke markers fill"
       d="m 164.07869,255.31695 c -4.38168,6.09024 -6.92337,15.72849 -4.0304,22.11319 2.44949,5.40593 9.04544,9.04488 22.00099,8.73667 9.70307,-0.23083 15.96303,-2.16861 19.32017,-6.32621 4.956,-6.13768 3.58579,-16.15369 -2.37241,-24.83654 2.98471,-7.68909 8.69506,-10.79614 7.97357,-19.55978 -1.80437,-8.63869 -7.16099,-9.76177 -10.89022,-10.71487 l -28.87577,-0.0711 c -6.32247,1.41642 -10.54084,5.88225 -10.98144,11.03494 -0.24231,2.86305 0.0668,6.43504 7.85551,19.6237 z"
       id="path51"
       sodipodi:nodetypes="cssscccccc"
       inkscape:export-filename="Activebell.svg"
       inkscape:export-xdpi="95.800003"
       inkscape:export-ydpi="95.800003" /><path
       style="fill:none;fill-opacity:1;stroke:#ffffff;stroke-width:2.103;stroke-linecap:round;stroke-linejoin:round;stroke-dasharray:none;stroke-opacity:1;paint-order:stroke markers fill"
       d="m 170.02357,249.74754 c -5.35424,-6.03366 -7.39847,-9.91397 -7.24188,-12.94299 0.20448,-3.9555 3.58428,-5.79333 5.87197,-5.80794 l 26.65031,-0.17013 c 1.16075,-0.007 5.56949,2.58031 5.54238,6.46346 -0.0333,4.77327 -5.41437,9.68377 -7.16842,12.39502 -4.76845,-3.27866 -14.88317,-6.61357 -23.65436,0.0626 z"
       id="path52"
       sodipodi:nodetypes="csssscc" /><ellipse
       style="fill:none;fill-opacity:1;stroke:#ffffff;stroke-width:1.93753;stroke-linecap:round;stroke-linejoin:round;stroke-dasharray:none;stroke-opacity:1;paint-order:stroke markers fill"
       id="path53"
       cx="181.64258"
       cy="265.84866"
       rx="10.658272"
       ry="10.702521" /></g></svg>
