<?xml version="1.0" encoding="UTF-8" standalone="no"?>
<!-- Created with Inkscape (http://www.inkscape.org/) -->

<svg
   width="151.02539mm"
   height="35.537868mm"
   viewBox="0 0 151.02539 35.537868"
   version="1.1"
   id="svg1"
   xml:space="preserve"
   xmlns:inkscape="http://www.inkscape.org/namespaces/inkscape"
   xmlns:sodipodi="http://sodipodi.sourceforge.net/DTD/sodipodi-0.dtd"
   xmlns="http://www.w3.org/2000/svg"
   xmlns:svg="http://www.w3.org/2000/svg"><sodipodi:namedview
     id="namedview1"
     pagecolor="#ffffff"
     bordercolor="#000000"
     borderopacity="0.25"
     inkscape:showpageshadow="2"
     inkscape:pageopacity="0.0"
     inkscape:pagecheckerboard="0"
     inkscape:deskcolor="#d1d1d1"
     inkscape:document-units="mm"
     showgrid="true"><inkscape:grid
       id="grid4"
       units="mm"
       originx="-33.518689"
       originy="-142.69112"
       spacingx="0.99999998"
       spacingy="1"
       empcolor="#0099e5"
       empopacity="0.30196078"
       color="#0099e5"
       opacity="0.14901961"
       empspacing="5"
       dotted="false"
       gridanglex="30"
       gridanglez="30"
       visible="true" /></sodipodi:namedview><defs
     id="defs1" /><g
     inkscape:label="Layer 1"
     inkscape:groupmode="layer"
     id="layer1"
     transform="translate(-33.518689,-142.69113)"><path
       style="fill:#ffffff;fill-opacity:1;stroke-width:5.09299;stroke-linecap:round"
       d="m 172.52308,178.22458 5.00675,-0.001 0.0151,-16.9708 c 0.30553,-2.70642 1.632,-2.85035 2.98231,-2.9487 l 4.01684,-0.0516 -0.0114,-5.02986 -19.0108,0.005 10e-4,4.97542 2.98615,0.0614 c 1.20094,0.0981 3.69686,-0.49112 4.03503,2.98861 z"
       id="path1-6-4-3-0-4"
       sodipodi:nodetypes="ccccccccccc"
       inkscape:export-filename="RevWhiteDB.svg"
       inkscape:export-xdpi="96"
       inkscape:export-ydpi="96" /><path
       style="fill:#ffffff;fill-opacity:1;stroke-width:5.09299;stroke-linecap:round"
       d="m 156.51158,178.22759 5.01221,0.001 0.009,-22.00301 -5.01065,0.99828 z"
       id="path1-6-40-3-1-1"
       sodipodi:nodetypes="ccccc" /><path
       style="fill:#ffffff;fill-opacity:1;stroke-width:5.09299;stroke-linecap:round"
       d="m 133.51977,178.22307 5.00363,0.002 -0.002,-10.00065 11.00023,5.5e-4 0.002,-5.00408 -8.39569,0.004 c -2.44044,-0.12529 -2.64173,-2.37934 -2.60673,-5.00555 l 12.00543,0.002 -0.003,-4.99211 -17.00036,-0.006 z"
       id="path1-6-8-1-8-5"
       sodipodi:nodetypes="ccccccccccc" /><path
       style="fill:#fbfdfe;fill-opacity:1;stroke-width:5.09299;stroke-linecap:round"
       d="m 88.333531,178.229 3.40022,-0.0378 10.936469,-24.85233 -5.022229,-0.15487 -6.30733,14.05749 c -0.41669,0.94762 -1.18609,1.01721 -1.54162,-0.003 l -6.18706,-14.08344 -5.10172,0.11743 z"
       id="path1-6-8-6-2-1-8"
       sodipodi:nodetypes="ccccccccc" /><path
       style="fill:#fbfdfe;fill-opacity:1;stroke-width:5.09299;stroke-linecap:round"
       d="m 33.522331,178.22232 4.99835,6.5e-4 0.004,-20.00111 6.98953,0.51168 c 4.24429,0.88443 3.93446,6.40323 1.12221,6.74452 l -6.61768,-0.25937 1.42372,3.79978 c 3.24425,-0.25415 6.13937,6.14001 8.08089,9.20795 l 5.99782,-10e-4 -6.68911,-9.11804 c 3.49292,-0.53611 4.87434,-4.02657 4.51476,-7.27494 -0.43344,-3.91571 -2.37245,-7.71715 -7.75104,-8.12202 l -12.07709,-0.49006 z"
       id="path1-8-8-1"
       sodipodi:nodetypes="ccccccccccsccc" /><path
       style="fill:#fbfdfe;fill-opacity:1;stroke-width:5.09299;stroke-linecap:round"
       d="m 58.521261,178.2258 16.99975,0.003 0.003,-5.00598 -9.37006,-0.0386 c -2.24029,-0.19135 -2.92415,-1.83145 -2.6329,-4.959 l 10.99981,-0.003 0.004,-4.99964 -8.4588,-0.027 c -2.92037,-0.23807 -2.6265,-3.04134 -2.5553,-4.94908 l 11.98485,0.0798 0.0442,-5.06652 -17.02021,-0.0348 z"
       id="path1-6-9-9-5"
       sodipodi:nodetypes="ccccccccccccc" /><ellipse
       style="fill:none;fill-opacity:0.615686;stroke:#ffffff;stroke-width:5.34602;stroke-linecap:round;stroke-opacity:1"
       id="path2-5-6-8"
       cx="117.25549"
       cy="165.55785"
       rx="10.338396"
       ry="9.9844046" /><ellipse
       style="fill:#444c88;fill-opacity:1;stroke:#ace2e4;stroke-width:4.5456;stroke-linecap:round;stroke-opacity:1"
       id="path3-1-4-0"
       cx="158.44727"
       cy="147.20882"
       rx="2.1979573"
       ry="2.2448902" /></g></svg>
