<?xml version="1.0" encoding="UTF-8" standalone="no"?>
<!-- Created with Inkscape (http://www.inkscape.org/) -->

<svg
   width="86.655067mm"
   height="75.390236mm"
   viewBox="0 0 86.655067 75.390236"
   version="1.1"
   id="svg1"
   xml:space="preserve"
   xmlns:inkscape="http://www.inkscape.org/namespaces/inkscape"
   xmlns:sodipodi="http://sodipodi.sourceforge.net/DTD/sodipodi-0.dtd"
   xmlns="http://www.w3.org/2000/svg"
   xmlns:svg="http://www.w3.org/2000/svg"><sodipodi:namedview
     id="namedview1"
     pagecolor="#ffffff"
     bordercolor="#000000"
     borderopacity="0.25"
     inkscape:showpageshadow="2"
     inkscape:pageopacity="0.0"
     inkscape:pagecheckerboard="0"
     inkscape:deskcolor="#d1d1d1"
     inkscape:document-units="mm" /><defs
     id="defs1" /><g
     inkscape:label="Layer 1"
     inkscape:groupmode="layer"
     id="layer1"
     transform="translate(-70.290842,-17.629131)"><rect
       style="fill:none;stroke:#013948;stroke-width:1.92141;stroke-linecap:round;stroke-linejoin:round;stroke-dasharray:none;stroke-opacity:1;paint-order:stroke markers fill"
       id="rect4-3"
       width="49.29385"
       height="10.026"
       x="91.108345"
       y="20.430264" /><path
       style="fill:none;stroke:#013948;stroke-width:0;stroke-linecap:round;stroke-linejoin:round;stroke-dasharray:none;stroke-opacity:1;paint-order:stroke markers fill"
       d="m 94.334628,29.087916 h 49.810282 l 0.14237,-8.37846 -3.55787,-3.080325 -43.121442,0.739273 -3.41557,2.710692 z"
       id="path1" /><path
       style="fill:none;stroke:#013948;stroke-width:1.69287;stroke-linecap:round;stroke-linejoin:round;stroke-dasharray:none;stroke-opacity:1;paint-order:stroke markers fill"
       d="m 78.96461,53.114456 c 0.960882,6.74372 -7.604202,6.94842 -7.542693,9.61061 l -0.284641,26.36755 c 0.283822,1.24989 0.527158,2.50814 4.696392,2.9571 l 23.90893,-0.24652 c 1.800342,-0.40269 2.558922,-1.82006 2.846302,-3.69636 l -0.42696,-24.14972 c -0.29105,-3.0865 -7.898772,-4.12756 -7.613862,-10.84274 z"
       id="path2"
       sodipodi:nodetypes="ccccccccc" /><path
       style="fill:none;stroke:#013948;stroke-width:1.69287;stroke-linecap:round;stroke-linejoin:round;stroke-dasharray:none;stroke-opacity:1;paint-order:stroke markers fill"
       d="m 71.920015,68.331236 16.815123,-0.0827 0.21896,14.63204 -17.5322,0.17445"
       id="path3"
       sodipodi:nodetypes="cccc" /><path
       style="fill:none;stroke:#013948;stroke-width:1.69287;stroke-linecap:round;stroke-linejoin:round;stroke-dasharray:none;stroke-opacity:1;paint-order:stroke markers fill"
       d="m 126.92475,67.468756 c -1.17631,4.13867 -5.28071,2.28246 -5.55026,5.66777 l 0.0712,16.26411 c 0.31198,1.62798 1.77734,2.45714 3.98479,2.77229 l 26.54175,-0.43124 c 2.54903,0.0536 3.83091,-1.53464 3.84251,-3.08031 l 0.28473,-15.34001 c -0.0673,-3.76744 -5.3681,-3.35404 -5.62153,-5.54458"
       id="path4"
       sodipodi:nodetypes="cccccccc" /><rect
       style="fill:none;stroke:#013948;stroke-width:1.69811;stroke-linecap:round;stroke-linejoin:round;stroke-dasharray:none;stroke-opacity:1;paint-order:stroke markers fill"
       id="rect4"
       width="29.5959"
       height="6.2789855"
       x="123.8678"
       y="60.940899" /><rect
       style="fill:none;stroke:#013948;stroke-width:1.62862;stroke-linecap:round;stroke-linejoin:round;stroke-dasharray:none;stroke-opacity:1;paint-order:stroke markers fill"
       id="rect4-9"
       width="19.139265"
       height="8.9311104"
       x="77.597221"
       y="44.088329" /><path
       style="fill:none;stroke:#013948;stroke-width:1.92141;stroke-linecap:round;stroke-linejoin:round;stroke-dasharray:none;stroke-opacity:1;paint-order:stroke markers fill"
       d="m 88.001608,40.916366 c 4.176,-2.38225 6.60856,-5.6098 6.0484,-10.28829"
       id="path5"
       sodipodi:nodetypes="cc" /><path
       style="fill:none;stroke:#013948;stroke-width:1.92141;stroke-linecap:round;stroke-linejoin:round;stroke-dasharray:none;stroke-opacity:1;paint-order:stroke markers fill"
       d="m 137.02913,30.566486 c -0.73039,10.45974 8.53589,7.81346 8.97645,15.54005 l 0.13191,11.6284"
       id="path6"
       sodipodi:nodetypes="ccc" /><path
       style="fill:none;stroke:#013948;stroke-width:1.92141;stroke-linecap:round;stroke-linejoin:round;stroke-dasharray:none;stroke-opacity:1;paint-order:stroke markers fill"
       d="m 145.63921,49.849296 -36.25299,0.0819 0.17562,28.93192 7.25856,0.0642"
       id="path7"
       sodipodi:nodetypes="cccc" /><path
       style="fill:none;stroke:#013948;stroke-width:1.92141;stroke-linecap:round;stroke-linejoin:round;stroke-dasharray:none;stroke-opacity:1;paint-order:stroke markers fill"
       d="m 105.43521,91.741686 13.16414,-0.12325"
       id="path8" /></g></svg>
