<?xml version="1.0" encoding="UTF-8" standalone="no"?>
<!-- Created with Inkscape (http://www.inkscape.org/) -->

<svg
   width="118.96466mm"
   height="158.42192mm"
   viewBox="0 0 118.96466 158.42192"
   version="1.1"
   id="svg1"
   xml:space="preserve"
   xmlns:inkscape="http://www.inkscape.org/namespaces/inkscape"
   xmlns:sodipodi="http://sodipodi.sourceforge.net/DTD/sodipodi-0.dtd"
   xmlns="http://www.w3.org/2000/svg"
   xmlns:svg="http://www.w3.org/2000/svg"><sodipodi:namedview
     id="namedview1"
     pagecolor="#ffffff"
     bordercolor="#000000"
     borderopacity="0.25"
     inkscape:showpageshadow="2"
     inkscape:pageopacity="0.0"
     inkscape:pagecheckerboard="0"
     inkscape:deskcolor="#d1d1d1"
     inkscape:document-units="mm"><inkscape:page
       x="5.0318938e-14"
       y="0"
       width="118.96465"
       height="158.42192"
       id="page2"
       margin="0"
       bleed="0" /></sodipodi:namedview><defs
     id="defs1" /><g
     inkscape:label="Layer 1"
     inkscape:groupmode="layer"
     id="layer1"
     transform="translate(316.65757,-355.73718)"><path
       style="fill:#013948;stroke:#013948;stroke-width:4.2;stroke-linecap:square;stroke-miterlimit:2;stroke-dasharray:none;stroke-opacity:1;paint-order:fill markers stroke"
       d="m -281.91244,469.54395 h 49.93086 c 0.5553,-5.55352 1.40402,-7.40991 4.15152,-11.19219 63.6237,-63.30721 3.66022,-100.33339 -29.30776,-100.51398 -28.41221,-0.15564 -94.41871,31.37305 -30.3455,98.57759 2.6726,3.63277 4.76149,7.16702 5.57088,13.12858 z"
       id="path3"
       sodipodi:nodetypes="cccscc" /><path
       d="m -265.82145,374.93382 c -8.60261,-0.30165 -29.65099,4.92527 -28.88432,27.62671"
       style="fill:none;stroke:#ffffff;stroke-width:8.501;stroke-linecap:round;stroke-miterlimit:2;stroke-dasharray:none;stroke-opacity:1;paint-order:fill markers stroke"
       id="path1-0" /><path
       style="fill:#013948;stroke:#013948;stroke-width:4.2;stroke-linecap:square;stroke-miterlimit:2;stroke-dasharray:none;stroke-opacity:1;paint-order:fill markers stroke"
       d="m -281.22489,483.04679 49.14516,0.0887 0.88711,14.19356 c 0.16528,6.197 -6.0339,14.10058 -12.15324,14.19352 l -24.30645,0.53227 c -10.1172,-1.879 -13.71905,-11.09152 -13.83872,-14.6371 z"
       id="path4"
       sodipodi:nodetypes="ccccccc" /></g></svg>
