<?xml version="1.0" encoding="UTF-8" standalone="no"?>
<!-- Created with Inkscape (http://www.inkscape.org/) -->

<svg
   width="224.50719mm"
   height="53.261238mm"
   viewBox="0 0 224.50719 53.261238"
   version="1.1"
   id="svg1"
   xml:space="preserve"
   inkscape:version="1.4 (86a8ad7, 2024-10-11)"
   sodipodi:docname="drawing.svg"
   xmlns:inkscape="http://www.inkscape.org/namespaces/inkscape"
   xmlns:sodipodi="http://sodipodi.sourceforge.net/DTD/sodipodi-0.dtd"
   xmlns="http://www.w3.org/2000/svg"
   xmlns:svg="http://www.w3.org/2000/svg"><sodipodi:namedview
     id="namedview1"
     pagecolor="#ffffff"
     bordercolor="#000000"
     borderopacity="0.25"
     inkscape:showpageshadow="2"
     inkscape:pageopacity="0.0"
     inkscape:pagecheckerboard="0"
     inkscape:deskcolor="#d1d1d1"
     inkscape:document-units="mm"
     showgrid="false"
     inkscape:zoom="1"
     inkscape:cx="763.5"
     inkscape:cy="-167.5"
     inkscape:window-width="2560"
     inkscape:window-height="1017"
     inkscape:window-x="1912"
     inkscape:window-y="-8"
     inkscape:window-maximized="1"
     inkscape:current-layer="layer1"><inkscape:grid
       id="grid2"
       units="mm"
       originx="11.729622"
       originy="-58.634754"
       spacingx="0.99999998"
       spacingy="1"
       empcolor="#0099e5"
       empopacity="0.30196078"
       color="#0099e5"
       opacity="0.14901961"
       empspacing="5"
       enabled="true"
       visible="false" /><inkscape:page
       x="2.6439066e-15"
       y="0"
       width="224.50717"
       height="53.261238"
       id="page2"
       margin="0"
       bleed="0" /></sodipodi:namedview><defs
     id="defs1" /><g
     inkscape:label="Layer 1"
     inkscape:groupmode="layer"
     id="layer1"
     transform="translate(11.729622,-58.634756)"><path
       style="fill:none;stroke:#013948;stroke-width:1.051;stroke-linecap:square;stroke-linejoin:round;stroke-miterlimit:2;stroke-dasharray:none;stroke-opacity:1;paint-order:fill markers stroke"
       d="m 45.040606,85.839016 c -0.024,2.33543 3.28465,2.53702 3.19263,0.33574 l 2.38363,-11.566232 c 0.0224,-0.94963 1.28003,-1.31887 1.44409,-0.2785 -0.95285,1.50902 -0.92329,3.478412 -0.24102,4.713092 0.44931,2.05817 0.26152,2.70057 0.1746,3.56711 -1.75592,2.86183 -2.86576,8.25081 -0.60166,12.14257 l -0.19684,14.506634 c 0.11158,2.36915 4.02279,1.91101 4.00302,0.0223 l 0.39308,-14.457514 1.72074,-0.0675 0.43664,14.491774 c 0.24676,2.3472 3.97017,2.09067 3.95867,-0.0554 l -0.11731,-14.267934 c 2.64356,-4.1403 1.43179,-8.91653 -0.52204,-12.31413 -0.82253,-1.08479 -0.48248,-2.45581 -0.15539,-3.59122 1.15614,-1.1568 0.57856,-3.590392 -0.0143,-4.787522 0.1198,-1.5148 1.29107,-0.19536 1.3043,-0.0219 l 2.47853,11.973222 c 0.49861,2.45381 3.97276,1.32745 3.24886,-0.47617 0,0 -2.87534,-13.189182 -3.15506,-14.021622 -0.44933,-1.33719 -2.40367,-2.55789 -3.12302,-2.52584 l -2.7618,0.12303 c -0.98165,1.58249 -3.96837,1.68868 -5.08661,0.0851 l -1.98049,-0.12739 c -1.4134,0.0189 -3.30288,1.11676 -3.82752,2.86154 z"
       id="path2-4-6-2-42-3-4-4-6"
       sodipodi:nodetypes="ccccccccccccccccccccssccccc" /><path
       style="fill:none;stroke:#013948;stroke-width:1.051;stroke-linecap:square;stroke-linejoin:round;stroke-miterlimit:2;stroke-dasharray:none;stroke-opacity:1;paint-order:fill markers stroke"
       d="m 74.184217,85.898316 c -0.024,2.33543 3.28465,2.53702 3.19262,0.33574 l 2.38364,-11.566232 c 0.0946,-1.09394 1.50271,-1.76423 1.44409,-0.2785 -0.81422,1.5707 -1.25204,3.244332 -0.0414,4.390192 l 0.0435,3.95576 c -2.07129,4.46618 -2.71105,8.78921 -4.06658,13.18382 l 3.52244,0.36133 -0.32286,13.038304 c 0.11158,2.36915 4.022792,1.91101 4.003022,0.0223 l 0.3603,-12.993134 1.79826,-0.0472 0.3919,13.007104 c 0.24676,2.3472 3.97017,2.09067 3.95867,-0.0554 l -0.28555,-12.908414 4.292389,-0.35177 c -1.545499,-4.43971 -2.263639,-8.64302 -4.646189,-13.32188 l -0.3036,-3.72848 c 1.32771,-0.68166 1.19024,-3.110302 0.25088,-4.790572 0.0549,-1.75278 1.05542,-0.49036 1.18737,0.11838 l 2.478529,11.973222 c 0.49861,2.45381 3.97277,1.32746 3.24887,-0.47617 0,0 -2.87535,-13.189182 -3.15507,-14.021622 -0.44933,-1.33719 -2.403669,-2.55789 -3.123019,-2.52584 l -2.7618,0.12303 c -0.98165,1.58249 -3.96837,1.68868 -5.086612,0.0851 l -1.98049,-0.12739 c -1.4134,0.0189 -3.30288,1.11676 -3.82752,2.86154 z"
       id="path2-4-6-2-42-3-0-82-8"
       sodipodi:nodetypes="ccccccccccccccccccccccssccccc" /><path
       style="fill:none;stroke:#013948;stroke-width:1.051;stroke-linecap:square;stroke-linejoin:round;stroke-miterlimit:2;stroke-dasharray:none;stroke-opacity:1;paint-order:fill markers stroke"
       d="m 102.91909,86.169836 c -0.024,2.33543 3.28466,2.53702 3.19263,0.33574 l 2.38364,-11.56623 c 0.0946,-1.09394 1.19869,-1.43682 1.14007,0.0489 -0.5886,1.00806 -1.03502,3.33405 -0.41802,4.23839 0.35731,0.98771 -0.1046,1.75926 -0.58409,3.69349 -2.2637,6.14752 -2.78257,11.66056 -4.15554,17.484184 l 4.83279,-0.3462 -0.23604,9.53213 c 0.11158,2.36915 4.02279,1.91101 4.00302,0.0223 l 0.26062,-9.39867 2.00898,0.0437 0.28086,9.32169 c 0.24676,2.3472 3.97017,2.09067 3.95867,-0.0554 l -0.20846,-9.42318 5.01369,0.50977 c -1.38735,-5.868074 -2.17086,-11.736144 -4.42325,-17.604224 -0.68026,-1.6725 -0.91836,-3.14829 -0.85383,-3.85695 1.33835,-1.48748 -0.18577,-3.73563 -0.40731,-4.4459 0.0549,-1.38655 1.18404,-0.45494 1.31599,0.0131 l 2.537,11.79782 c 0.49861,2.45381 3.97276,1.32746 3.24886,-0.47617 0,0 -2.87534,-13.18918 -3.15506,-14.02162 -0.44933,-1.33719 -2.40367,-2.55789 -3.12302,-2.52584 l -2.7618,0.12303 c -0.98165,1.58249 -3.96837,1.68868 -5.08661,0.0851 l -1.98049,-0.12739 c -1.4134,0.0189 -3.30288,1.11676 -3.82752,2.86154 z"
       id="path2-4-6-2-42-3-6-3-0"
       sodipodi:nodetypes="ccccccccccccccccccccccssccccc" /><path
       style="fill:none;stroke:#013948;stroke-width:1.03147;stroke-linecap:square;stroke-linejoin:round;stroke-miterlimit:2;stroke-dasharray:none;stroke-opacity:1;paint-order:fill markers stroke"
       d="m 134.03816,88.338406 c -0.44791,2.11093 3.13127,2.67763 3.82148,0.45813 l 3.73325,-11.68881 c 0.0965,-1.032853 1.53298,-1.665723 1.47318,-0.26295 -1.1166,2.95801 -1.09768,5.31041 -1.33244,7.79811 -3.25277,7.25996 -4.9629,10.85274 -5.08199,16.064364 l 5.77288,0.11668 -0.2408,8.99988 c 0.11383,2.23686 4.10383,1.8043 4.08366,0.0211 l 0.26587,-8.87387 2.04945,0.0413 0.28652,8.80119 c 0.25173,2.21614 4.05014,1.97393 4.03841,-0.0523 l -0.21266,-8.89701 6.13483,-0.0953 c -0.24735,-6.114784 -1.69239,-10.323404 -4.25895,-15.730864 0.0212,-3.14847 -0.53711,-5.52423 -1.30555,-7.61983 0.056,-1.654913 1.51845,-0.60248 2.06079,0.6309 l 1.56813,6.35815 6.32349,4.66424 c 1.57629,1.78298 4.53189,-1.19735 3.03204,-2.51958 0,0 -4.14939,-2.96503 -6.54491,-4.92973 -0.82278,-3.63253 -1.44339,-7.141043 -1.56644,-7.556233 -0.59606,-2.01124 -4.15634,-2.58194 -5.13046,-2.44753 l -1.75107,0.24161 c -1.22097,2.29893 -6.33785,2.04019 -6.81998,-0.13914 -2.54654,-0.33033 -5.96848,-0.1034 -6.86592,2.76966 z"
       id="path2-4-6-2-42-3-6-6-6-7"
       sodipodi:nodetypes="ccccccccccccccccccccccsscccc" /><ellipse
       style="fill:none;stroke:#013948;stroke-width:1.051;stroke-linecap:square;stroke-linejoin:round;stroke-miterlimit:2;stroke-dasharray:none;stroke-opacity:1;paint-order:fill markers stroke"
       id="path1-1-7-3-87-30-7"
       cx="28.204752"
       cy="63.621464"
       rx="3.7315774"
       ry="3.8811119" /><ellipse
       style="fill:none;stroke:#013948;stroke-width:1.07589;stroke-linecap:square;stroke-linejoin:round;stroke-miterlimit:2;stroke-dasharray:none;stroke-opacity:1;paint-order:fill markers stroke"
       id="path1-1-7-3-87-3-2-35-43"
       cx="147.91106"
       cy="65.797707"
       rx="3.9229958"
       ry="3.8686666" /><ellipse
       style="fill:none;stroke:#013948;stroke-width:1.07589;stroke-linecap:square;stroke-linejoin:round;stroke-miterlimit:2;stroke-dasharray:none;stroke-opacity:1;paint-order:fill markers stroke"
       id="path1-1-7-3-87-3-5-2-13"
       cx="114.45348"
       cy="63.041363"
       rx="3.9229958"
       ry="3.8686666" /><ellipse
       style="fill:none;stroke:#013948;stroke-width:1.07589;stroke-linecap:square;stroke-linejoin:round;stroke-miterlimit:2;stroke-dasharray:none;stroke-opacity:1;paint-order:fill markers stroke"
       id="path1-1-7-3-87-3-0-8-6"
       cx="85.78009"
       cy="63.43716"
       rx="3.9229958"
       ry="3.8686666" /><ellipse
       style="fill:none;stroke:#013948;stroke-width:1.07589;stroke-linecap:square;stroke-linejoin:round;stroke-miterlimit:2;stroke-dasharray:none;stroke-opacity:1;paint-order:fill markers stroke"
       id="path1-1-7-3-87-3-6-0-3"
       cx="56.422138"
       cy="63.299961"
       rx="3.9229958"
       ry="3.8686666" /><path
       style="fill:none;stroke:#013948;stroke-width:1.051;stroke-linecap:square;stroke-linejoin:round;stroke-miterlimit:2;stroke-dasharray:none;stroke-opacity:1;paint-order:fill markers stroke"
       d="m 16.669489,85.800696 c -0.024,2.33543 3.284654,2.53702 3.192624,0.33574 l 2.38364,-11.566232 c 0.0946,-1.09394 1.50271,-1.76423 1.44409,-0.2785 -0.269363,1.29065 -0.06175,2.30874 0.281707,3.249202 l -0.490107,5.16691 -2.45892,8.34551 2.25015,0.0857 -0.44775,18.082084 c 0.11158,2.36915 4.02279,1.91101 4.00302,0.0223 l 0.53226,-19.194564 1.44154,0.0222 0.57666,19.139114 c 0.24676,2.3472 3.97017,2.09067 3.95867,-0.0554 l -0.39958,-18.062934 2.52134,0.0346 -2.76111,-8.55373 -0.54535,-5.18331 c 0.412775,-1.106462 0.543704,-1.749612 0.30554,-3.055112 0.0549,-1.75278 1.24251,-0.77099 1.37446,-0.16225 l 2.47853,11.973222 c 0.49861,2.45381 3.97276,1.32745 3.24886,-0.47617 0,0 -2.87534,-13.189182 -3.15506,-14.021622 -0.44933,-1.33719 -2.40367,-2.55789 -3.12302,-2.52584 l -2.7618,0.12303 c -0.98165,1.58249 -3.96837,1.68868 -5.08661,0.0851 l -1.98049,-0.12739 c -1.4134,0.0189 -3.30288,1.11676 -3.82752,2.86154 z"
       id="path2-4-6-2-42-3-8-72-0"
       sodipodi:nodetypes="ccccccccccccccccccccccssccccc" /><ellipse
       style="fill:#013948;fill-opacity:1;stroke:#013948;stroke-width:0.976306;stroke-linecap:square;stroke-linejoin:round;stroke-miterlimit:2;stroke-dasharray:none;stroke-opacity:1;paint-order:fill markers stroke"
       id="path1-1-7-3-87-1-2-1"
       cx="0.39422771"
       cy="70.262535"
       rx="3.7640271"
       ry="3.3201857" /><path
       style="fill:#013948;fill-opacity:1;stroke:#013948;stroke-width:0.976306;stroke-linecap:square;stroke-linejoin:round;stroke-miterlimit:2;stroke-dasharray:none;stroke-opacity:1;paint-order:fill markers stroke"
       d="m -11.24135,89.236266 c -0.0242,1.99789 3.3132169,2.17035 3.2203859,0.28721 l 2.404369,-9.8946 c 0.09543,-0.93583 1.515777,-1.50925 1.456647,-0.23824 l -0.210212,7.19975 -2.480303,7.13936 2.269718,0.0733 -0.451644,15.468734 c 0.11255,2.02674 4.05777298,1.63482 4.03783098,0.0191 l 0.536888,-16.420434 1.454075,0.019 0.58167502,16.372984 c 0.248906,2.00798 4.004695,1.78852 3.993095,-0.0474 l -0.403055,-15.452354 2.543266,0.0296 -2.785121,-7.31749 -0.241895,-7.04774 c 0.05537,-1.49946 1.253315,-0.65956 1.386412,-0.1388 l 2.500083,10.24276 c 0.502946,2.09918 4.0073071,1.1356 3.2771121,-0.40734 0,0 -2.9003431,-11.28299 -3.1824961,-11.99512 -0.453237,-1.143927 -2.424572,-2.188207 -3.150177,-2.160787 l -2.785817,0.10525 c -0.990187,1.35378 -4.002879,1.44462 -5.130844,0.0728 l -1.997712,-0.10898 c -1.42569,0.0161 -3.331602,0.95536 -3.860804,2.447967 z"
       id="path2-4-6-2-42-3-8-6-5-90"
       sodipodi:nodetypes="ccccccccccccccccccccssccccc" /><path
       style="fill:none;stroke:#013948;stroke-width:2.151;stroke-linecap:round;stroke-linejoin:round;stroke-miterlimit:2;stroke-dasharray:none;stroke-opacity:1;paint-order:fill markers stroke"
       d="m 162.8222,92.740776 c -0.0498,-2.26682 3.87779,-2.43428 3.77016,0.13306 l -0.0332,17.875004"
       id="path1-9-4"
       sodipodi:nodetypes="ccc" /><ellipse
       style="fill:none;stroke:#013948;stroke-width:1.051;stroke-linecap:square;stroke-linejoin:round;stroke-miterlimit:2;stroke-dasharray:none;stroke-opacity:1;paint-order:fill markers stroke"
       id="path1-1-7-3-87-3-20-3-10-29"
       cx="194.76553"
       cy="75.201324"
       rx="3.9229958"
       ry="3.8686666" /><path
       style="fill:none;fill-opacity:1;stroke:#013948;stroke-width:1.051;stroke-linecap:square;stroke-linejoin:miter;stroke-miterlimit:2;stroke-dasharray:none;stroke-opacity:1;paint-order:fill markers stroke"
       d="m 176.41624,105.09964 3.10059,0.44649 2.47219,-8.193824 c 0.54014,-1.48164 1.54201,-1.71575 2.67995,-1.73252 l 7.08694,-0.0721 0.0723,-3.66888 -8.90295,0.0858 c -1.83712,-0.0741 -1.31499,-2.39757 0.15954,-2.19779 l 8.67,-0.0525 -0.0391,-6.01834 c 0.11214,-3.74586 6.40362,-4.41302 6.60281,0.19556 l 0.0662,12.07989 c 0.13647,1.10817 -0.95316,4.935944 -5.6224,2.68716 l -8.36745,-0.0331 -2.80293,8.747794 c -0.27807,0.44764 -0.64532,0.82591 -1.75287,0.62839 l -3.86125,-0.74415 c -1.77081,-0.43023 -0.93435,-2.5083 0.4385,-2.1579 z"
       id="path13-3-8-3"
       sodipodi:nodetypes="cccccccccccccccccc" /><path
       style="fill:none;fill-opacity:1;stroke:#013948;stroke-width:1.051;stroke-linecap:square;stroke-linejoin:miter;stroke-miterlimit:2;stroke-dasharray:none;stroke-opacity:1;paint-order:fill markers stroke"
       d="m 188.13138,101.47943 -2.55395,0.78421 c 1.5951,3.9211 3.87563,6.31845 6.43933,7.56592 6.08649,2.96162 13.65598,1.42372 17.94586,-3.24077 2.70081,-2.93665 3.08557,-7.634294 0.75363,-11.354324 -1.60163,-2.555 -4.70628,-4.72021 -9.37556,-5.90566 l -0.37563,2.52703 c 8.69725,1.06999 11.6087,10.297694 5.70224,14.723704 -7.31534,5.48174 -17.31103,1.37997 -18.53592,-5.10011 z"
       id="path14-7-5-1"
       sodipodi:nodetypes="ccsssccsc" /></g></svg>
