<?xml version="1.0" encoding="UTF-8" standalone="no"?>
<!-- Created with Inkscape (http://www.inkscape.org/) -->

<svg
   width="122.79417mm"
   height="123.25834mm"
   viewBox="0 0 122.79417 123.25834"
   version="1.1"
   id="svg1"
   xml:space="preserve"
   xmlns:inkscape="http://www.inkscape.org/namespaces/inkscape"
   xmlns:sodipodi="http://sodipodi.sourceforge.net/DTD/sodipodi-0.dtd"
   xmlns="http://www.w3.org/2000/svg"
   xmlns:svg="http://www.w3.org/2000/svg"><sodipodi:namedview
     id="namedview1"
     pagecolor="#ffffff"
     bordercolor="#000000"
     borderopacity="0.25"
     inkscape:showpageshadow="2"
     inkscape:pageopacity="0.0"
     inkscape:pagecheckerboard="0"
     inkscape:deskcolor="#d1d1d1"
     inkscape:document-units="mm" /><defs
     id="defs1" /><g
     inkscape:label="Layer 1"
     inkscape:groupmode="layer"
     id="layer1"
     transform="translate(-29.447226,-162.85746)"><ellipse
       style="fill:none;stroke:#ffffff;stroke-width:6.931;stroke-linecap:round;stroke-linejoin:round;stroke-dasharray:none;stroke-opacity:1;paint-order:stroke markers fill"
       id="path1-2"
       cx="90.726425"
       cy="224.40909"
       rx="26.096277"
       ry="25.757477" /><path
       style="fill:none;stroke:#ffffff;stroke-width:6.931;stroke-linecap:round;stroke-linejoin:miter;stroke-dasharray:none;stroke-opacity:1;paint-order:stroke markers fill"
       d="m 46.763566,214.42217 c 1.175875,-4.5557 2.586834,-8.99024 5.645938,-14.36985 l -7.124105,-12.1685 8.98257,-9.11531 12.212753,7.34535 c 4.586303,-2.88571 9.246778,-4.54612 14.29246,-6.28338 l 3.824673,-13.38063 12.416591,-0.10461 3.874294,13.96493 c 4.9635,0.94566 9.47447,2.94723 13.68778,5.64333 l 12.67395,-7.02004 8.83409,9.01674 -6.81436,12.1685 c 2.80792,4.48117 4.57399,9.48327 5.97363,14.66858 l 13.45173,3.31868 0.0664,12.72162 -13.49597,3.58417 c -1.17618,6.4311 -3.74483,10.07725 -6.04001,14.27034 l 7.03561,12.30126 -8.98256,9.20381 -12.16851,-7.12411 c -4.49989,2.29 -8.50251,5.21288 -14.20396,5.97362 l -3.716933,13.58449 -12.374562,0.0241 -4.011102,-13.66001 c -5.629122,-1.40166 -10.083565,-3.61091 -14.397446,-5.9168 l -12.118888,7.05301 -8.942766,-8.88647 7.065564,-12.34773 c -2.117152,-4.42247 -4.357917,-8.56237 -5.919565,-14.25453 l -13.420439,-3.68119 -0.130522,-12.78577 z"
       id="path2-9"
       sodipodi:nodetypes="ccccccccccccccccccccccccccccccccc" /></g></svg>
