<?xml version="1.0" encoding="UTF-8" standalone="no"?>
<!-- Created with Inkscape (http://www.inkscape.org/) -->

<svg
   width="354.41248mm"
   height="250.02661mm"
   viewBox="0 0 354.41248 250.02661"
   version="1.1"
   id="svg1"
   xml:space="preserve"
   inkscape:version="1.4 (86a8ad7, 2024-10-11)"
   sodipodi:docname="drawing-4.svg"
   xmlns:inkscape="http://www.inkscape.org/namespaces/inkscape"
   xmlns:sodipodi="http://sodipodi.sourceforge.net/DTD/sodipodi-0.dtd"
   xmlns="http://www.w3.org/2000/svg"
   xmlns:svg="http://www.w3.org/2000/svg"><sodipodi:namedview
     id="namedview1"
     pagecolor="#ffffff"
     bordercolor="#000000"
     borderopacity="0.25"
     inkscape:showpageshadow="2"
     inkscape:pageopacity="0.0"
     inkscape:pagecheckerboard="0"
     inkscape:deskcolor="#d1d1d1"
     inkscape:document-units="mm"
     inkscape:zoom="0.056568542"
     inkscape:cx="-8246.6328"
     inkscape:cy="13779.743"
     inkscape:window-width="2560"
     inkscape:window-height="1017"
     inkscape:window-x="1912"
     inkscape:window-y="-8"
     inkscape:window-maximized="1"
     inkscape:current-layer="layer1"><inkscape:page
       x="0"
       y="0"
       width="354.41248"
       height="250.02661"
       id="page2"
       margin="0"
       bleed="0" /></sodipodi:namedview><defs
     id="defs1"><inkscape:path-effect
       effect="powerclip"
       message=""
       id="path-effect30"
       is_visible="true"
       lpeversion="1"
       inverse="true"
       flatten="false"
       hide_clip="false" /><inkscape:path-effect
       effect="powerclip"
       message=""
       id="path-effect29"
       is_visible="true"
       lpeversion="1"
       inverse="true"
       flatten="false"
       hide_clip="false" /><inkscape:path-effect
       effect="powerclip"
       message=""
       id="path-effect28"
       is_visible="true"
       lpeversion="1"
       inverse="true"
       flatten="false"
       hide_clip="false" /><inkscape:path-effect
       effect="powerclip"
       message=""
       id="path-effect27"
       is_visible="true"
       lpeversion="1"
       inverse="true"
       flatten="false"
       hide_clip="false" /><clipPath
       clipPathUnits="userSpaceOnUse"
       id="clipPath24"><ellipse
         style="display:none;fill:#313131;fill-opacity:0.532213;stroke:none;stroke-width:18.4779;stroke-linecap:square;stroke-linejoin:round;stroke-miterlimit:2;stroke-dasharray:none;stroke-opacity:1;paint-order:stroke fill markers"
         id="ellipse24"
         cx="-1357.9664"
         cy="2767.3345"
         rx="53.717907"
         ry="54.131317"
         d="m -1304.2485,2767.3345 a 53.717907,54.131317 0 0 1 -53.7179,54.1313 53.717907,54.131317 0 0 1 -53.7179,-54.1313 53.717907,54.131317 0 0 1 53.7179,-54.1313 53.717907,54.131317 0 0 1 53.7179,54.1313 z" /><path
         id="lpe_path-effect27"
         style="fill:#313131;fill-opacity:0.532213;stroke:none;stroke-width:18.4779;stroke-linecap:square;stroke-linejoin:round;stroke-miterlimit:2;stroke-dasharray:none;stroke-opacity:1;paint-order:stroke fill markers"
         class="powerclip"
         d="m -1482.0895,2848.809 h 146.3665 v 124.4556 h -146.3665 z m 177.841,-81.4745 a 53.717907,54.131317 0 0 0 -53.7179,-54.1313 53.717907,54.131317 0 0 0 -53.7179,54.1313 53.717907,54.131317 0 0 0 53.7179,54.1313 53.717907,54.131317 0 0 0 53.7179,-54.1313 z" /></clipPath><clipPath
       clipPathUnits="userSpaceOnUse"
       id="clipPath25"><ellipse
         style="display:none;fill:#313131;fill-opacity:0.532213;stroke:none;stroke-width:18.4779;stroke-linecap:square;stroke-linejoin:round;stroke-miterlimit:2;stroke-dasharray:none;stroke-opacity:1;paint-order:stroke fill markers"
         id="ellipse25"
         cx="-1357.9664"
         cy="2767.3345"
         rx="53.717907"
         ry="54.131317"
         d="m -1304.2485,2767.3345 a 53.717907,54.131317 0 0 1 -53.7179,54.1313 53.717907,54.131317 0 0 1 -53.7179,-54.1313 53.717907,54.131317 0 0 1 53.7179,-54.1313 53.717907,54.131317 0 0 1 53.7179,54.1313 z" /><path
         id="lpe_path-effect28"
         style="fill:#313131;fill-opacity:0.532213;stroke:none;stroke-width:18.4779;stroke-linecap:square;stroke-linejoin:round;stroke-miterlimit:2;stroke-dasharray:none;stroke-opacity:1;paint-order:stroke fill markers"
         class="powerclip"
         d="m -1676.8529,2847.1088 h 146.0463 v 132.4037 h -146.0463 z m 372.6044,-79.7743 a 53.717907,54.131317 0 0 0 -53.7179,-54.1313 53.717907,54.131317 0 0 0 -53.7179,54.1313 53.717907,54.131317 0 0 0 53.7179,54.1313 53.717907,54.131317 0 0 0 53.7179,-54.1313 z" /></clipPath><clipPath
       clipPathUnits="userSpaceOnUse"
       id="clipPath26"><ellipse
         style="display:none;fill:#313131;fill-opacity:0.532213;stroke:none;stroke-width:18.4779;stroke-linecap:square;stroke-linejoin:round;stroke-miterlimit:2;stroke-dasharray:none;stroke-opacity:1;paint-order:stroke fill markers"
         id="ellipse26"
         cx="-1357.9664"
         cy="2767.3345"
         rx="53.717907"
         ry="54.131317"
         d="m -1304.2485,2767.3345 a 53.717907,54.131317 0 0 1 -53.7179,54.1313 53.717907,54.131317 0 0 1 -53.7179,-54.1313 53.717907,54.131317 0 0 1 53.7179,-54.1313 53.717907,54.131317 0 0 1 53.7179,54.1313 z" /><path
         id="lpe_path-effect29"
         style="fill:#313131;fill-opacity:0.532213;stroke:none;stroke-width:18.4779;stroke-linecap:square;stroke-linejoin:round;stroke-miterlimit:2;stroke-dasharray:none;stroke-opacity:1;paint-order:stroke fill markers"
         class="powerclip"
         d="m -1678.067,2749.9831 h 344.8625 v 162.4571 h -344.8625 z m 373.8185,17.3514 a 53.717907,54.131317 0 0 0 -53.7179,-54.1313 53.717907,54.131317 0 0 0 -53.7179,54.1313 53.717907,54.131317 0 0 0 53.7179,54.1313 53.717907,54.131317 0 0 0 53.7179,-54.1313 z" /></clipPath><clipPath
       clipPathUnits="userSpaceOnUse"
       id="clipPath27"><ellipse
         style="display:none;fill:#313131;fill-opacity:0.532213;stroke:none;stroke-width:18.4779;stroke-linecap:square;stroke-linejoin:round;stroke-miterlimit:2;stroke-dasharray:none;stroke-opacity:1;paint-order:stroke fill markers"
         id="ellipse27"
         cx="-1357.9664"
         cy="2767.3345"
         rx="53.717907"
         ry="54.131317"
         d="m -1304.2485,2767.3345 a 53.717907,54.131317 0 0 1 -53.7179,54.1313 53.717907,54.131317 0 0 1 -53.7179,-54.1313 53.717907,54.131317 0 0 1 53.7179,-54.1313 53.717907,54.131317 0 0 1 53.7179,54.1313 z" /><path
         id="lpe_path-effect30"
         style="fill:#313131;fill-opacity:0.532213;stroke:none;stroke-width:18.4779;stroke-linecap:square;stroke-linejoin:round;stroke-miterlimit:2;stroke-dasharray:none;stroke-opacity:1;paint-order:stroke fill markers"
         class="powerclip"
         d="m -1678.195,2747.7882 h 348.4083 v 232.2398 h -348.4083 z m 373.9465,19.5463 a 53.717907,54.131317 0 0 0 -53.7179,-54.1313 53.717907,54.131317 0 0 0 -53.7179,54.1313 53.717907,54.131317 0 0 0 53.7179,54.1313 53.717907,54.131317 0 0 0 53.7179,-54.1313 z" /></clipPath></defs><g
     inkscape:label="Layer 1"
     inkscape:groupmode="layer"
     id="layer1"
     transform="translate(1673.1949,-2725.0015)"><path
       style="fill:none;fill-opacity:1;stroke:#013948;stroke-width:18.0246;stroke-linecap:square;stroke-linejoin:round;stroke-miterlimit:2;stroke-dasharray:none;stroke-opacity:1;paint-order:stroke fill markers"
       id="rect21"
       width="320.38376"
       height="204.21515"
       x="-1664.1827"
       y="2761.8005"
       ry="17.11697"
       clip-path="url(#clipPath27)"
       inkscape:path-effect="#path-effect30"
       sodipodi:type="rect"
       d="m -1647.0658,2761.8005 h 286.1498 c 9.4829,0 17.117,7.6342 17.117,17.117 v 169.9812 c 0,9.4828 -7.6341,17.117 -17.117,17.117 h -286.1498 c -9.4828,0 -17.1169,-7.6342 -17.1169,-17.117 v -169.9812 c 0,-9.4828 7.6341,-17.117 17.1169,-17.117 z" /><path
       style="fill:none;fill-opacity:1;stroke:#013948;stroke-width:17.601;stroke-linecap:square;stroke-linejoin:round;stroke-miterlimit:2;stroke-dasharray:none;stroke-opacity:1;paint-order:stroke fill markers"
       d="m -1660.6738,2767.3763 157.9256,131.2637 152.133,-130.8502"
       id="path21"
       sodipodi:nodetypes="ccc"
       clip-path="url(#clipPath26)"
       inkscape:path-effect="#path-effect29"
       inkscape:original-d="m -1660.6738,2767.3763 157.9256,131.2637 152.133,-130.8502" /><path
       style="fill:none;fill-opacity:1;stroke:#013948;stroke-width:17.601;stroke-linecap:square;stroke-linejoin:round;stroke-miterlimit:2;stroke-dasharray:none;stroke-opacity:1;paint-order:stroke fill markers"
       d="m -1659.4336,2962.0932 111.2077,-97.5651"
       id="path22"
       clip-path="url(#clipPath25)"
       inkscape:path-effect="#path-effect28"
       inkscape:original-d="m -1659.4336,2962.0932 111.2077,-97.5651" /><path
       style="fill:none;fill-opacity:1;stroke:#013948;stroke-width:17.601;stroke-linecap:square;stroke-linejoin:round;stroke-miterlimit:2;stroke-dasharray:none;stroke-opacity:1;paint-order:stroke fill markers"
       d="m -1464.7168,2866.1817 111.6211,89.7102"
       id="path23"
       clip-path="url(#clipPath24)"
       inkscape:path-effect="#path-effect27"
       inkscape:original-d="m -1464.7168,2866.1817 111.6211,89.7102" /><ellipse
       style="fill:#013948;fill-opacity:1;stroke:none;stroke-width:17.0664;stroke-linecap:square;stroke-linejoin:round;stroke-miterlimit:2;stroke-dasharray:none;stroke-opacity:1;paint-order:stroke fill markers"
       id="path30"
       ry="43.098148"
       rx="40.51432"
       cy="2768.0996"
       cx="-1359.2969" /><path
       style="fill:none;fill-opacity:0.655462;stroke:#ffffff;stroke-width:7.301;stroke-linecap:square;stroke-linejoin:miter;stroke-miterlimit:2;stroke-dasharray:none;stroke-opacity:1;paint-order:stroke fill markers"
       d="m -1368.4953,2758.1778 11.5239,-10.0768 v 38.424 l -13.4993,-0.073 13.4993,0.072 7.7596,0.09"
       id="path31"
       sodipodi:nodetypes="cccccc" /></g></svg>
