<?xml version="1.0" encoding="UTF-8" standalone="no"?>
<!-- Created with Inkscape (http://www.inkscape.org/) -->

<svg
   width="397.80746mm"
   height="86.291451mm"
   viewBox="0 0 397.80746 86.291451"
   version="1.1"
   id="svg1"
   xml:space="preserve"
   inkscape:version="1.3.2 (091e20e, 2023-11-25, custom)"
   sodipodi:docname="metav.svg"
   xmlns:inkscape="http://www.inkscape.org/namespaces/inkscape"
   xmlns:sodipodi="http://sodipodi.sourceforge.net/DTD/sodipodi-0.dtd"
   xmlns="http://www.w3.org/2000/svg"
   xmlns:svg="http://www.w3.org/2000/svg"><sodipodi:namedview
     id="namedview1"
     pagecolor="#ffffff"
     bordercolor="#000000"
     borderopacity="0.25"
     inkscape:showpageshadow="2"
     inkscape:pageopacity="0.0"
     inkscape:pagecheckerboard="0"
     inkscape:deskcolor="#d1d1d1"
     inkscape:document-units="mm"
     inkscape:zoom="0.37371282"
     inkscape:cx="274.27478"
     inkscape:cy="295.68159"
     inkscape:window-width="2560"
     inkscape:window-height="1017"
     inkscape:window-x="1912"
     inkscape:window-y="564"
     inkscape:window-maximized="1"
     inkscape:current-layer="layer1" /><defs
     id="defs1" /><g
     inkscape:label="Layer 1"
     inkscape:groupmode="layer"
     id="layer1"
     transform="translate(43.867414,-57.232477)"><path
       style="fill:none;fill-opacity:1;stroke:#3a2052;stroke-width:12.8174;stroke-linecap:square;stroke-dasharray:none;stroke-opacity:1"
       d="m 193.27522,63.711728 0.0155,1.40006"
       id="path1-7-3-8-7"
       sodipodi:nodetypes="cc"
       inkscape:export-filename="metav.svg"
       inkscape:export-xdpi="96"
       inkscape:export-ydpi="96" /><path
       style="fill:none;fill-opacity:1;stroke:#3a2052;stroke-width:12.993;stroke-linecap:square;stroke-dasharray:none;stroke-opacity:1"
       d="m -37.358877,136.04388 0.130904,-70.601502 4.650919,10e-7 31.3912227,71.530741 3.4677555,-0.0442 30.6518868,-69.364966"
       id="path1"
       sodipodi:nodetypes="cccccc" /><path
       style="fill:none;fill-opacity:1;stroke:#3a2052;stroke-width:12.993;stroke-linecap:square;stroke-dasharray:none;stroke-opacity:1"
       d="m 261.33858,135.64105 16.9337,-0.17526 -34.02761,-62.9372 -33.93122,62.99445 16.88821,-0.0679"
       id="path1-3"
       sodipodi:nodetypes="ccccc" /><path
       style="fill:none;fill-opacity:1;stroke:#41ab33;stroke-width:12.993;stroke-linecap:square;stroke-dasharray:none;stroke-opacity:1"
       d="m 292.01306,65.144034 -16.9337,0.17526 34.02761,62.937206 33.93122,-62.994456 -16.88821,0.0679"
       id="path1-3-1"
       sodipodi:nodetypes="ccccc" /><path
       style="fill:none;fill-opacity:1;stroke:#3a2052;stroke-width:12.993;stroke-linecap:square;stroke-dasharray:none;stroke-opacity:1"
       d="M 168.61315,135.557 168.47857,64.64575 142.36036,64.528188"
       id="path1-6"
       sodipodi:nodetypes="ccc" /><path
       style="fill:none;stroke:#fff5f5;stroke-width:0.593;stroke-linecap:square;stroke-opacity:1"
       d="m 135.59785,57.706087 -0.058,13.577998 26.1581,0.123474 0.14121,70.954331 13.58162,-0.0397 -0.17717,-84.427684 z"
       id="path5-4"
       sodipodi:nodetypes="ccccccc" /><path
       style="fill:none;fill-opacity:1;stroke:#3a2052;stroke-width:12.993;stroke-linecap:square;stroke-dasharray:none;stroke-opacity:1"
       d="M 70.101299,64.343112 109.15823,64.48085"
       id="path1-7"
       sodipodi:nodetypes="cc" /><path
       style="fill:none;fill-opacity:1;stroke:#3a2052;stroke-width:12.993;stroke-linecap:square;stroke-dasharray:none;stroke-opacity:1"
       d="m 70.447518,135.28144 39.056932,0.13774"
       id="path1-7-5"
       sodipodi:nodetypes="cc" /><path
       style="fill:none;fill-opacity:1;stroke:#3a2052;stroke-width:12.8976;stroke-linecap:square;stroke-dasharray:none;stroke-opacity:1"
       d="M 70.367353,99.916852 93.05947,100.15043"
       id="path1-7-3"
       sodipodi:nodetypes="cc" /><path
       style="fill:none;fill-opacity:1;stroke:#3a2052;stroke-width:12.8174;stroke-linecap:square;stroke-dasharray:none;stroke-opacity:1"
       d="m 38.314983,135.36441 0.01553,1.40006"
       id="path1-7-3-8"
       sodipodi:nodetypes="cc" /><path
       style="fill:#3a2052;fill-opacity:1;stroke:#3a2052;stroke-width:0.593;stroke-linecap:square;stroke-dasharray:none;stroke-opacity:1"
       d="m 29.624666,59.296267 14.042574,-0.03677 -2.461894,4.891469 z"
       id="path2"
       sodipodi:nodetypes="cccc" /><path
       style="fill:none;stroke:#ffffff;stroke-width:0.593;stroke-linecap:square;stroke-opacity:1"
       d="m -44.168779,142.82913 13.590448,0.0147 0.102542,-55.683575 24.8931879,56.659995 12.302978,-0.15821 L 44.048406,58.8775 29.614433,58.859497 0.53656382,124.73449 -28.302791,58.936068 l -15.470756,0.0173 z"
       id="path3"
       sodipodi:nodetypes="ccccccccccc" /><path
       style="fill:none;stroke:#ffffff;stroke-width:0.593;stroke-linecap:square;stroke-opacity:1"
       d="m 31.530876,128.7353 0.17991,14.7918 13.39084,-0.12672 -0.179125,-14.79023 z"
       id="path4"
       sodipodi:nodetypes="ccccc" /><path
       style="fill:none;stroke:#ffffff;stroke-width:0.593;stroke-linecap:square;stroke-opacity:1"
       d="m 186.47856,57.073916 0.17991,14.7918 13.39084,-0.12672 -0.17913,-14.79023 z"
       id="path4-4"
       sodipodi:nodetypes="ccccc" /><path
       style="fill:none;stroke:#ffffff;stroke-width:0.593;stroke-linecap:square;stroke-opacity:1"
       d="m 63.667778,128.46679 -0.03455,13.58582 52.637541,0.18326 0.0411,-13.57487 z"
       id="path5"
       sodipodi:nodetypes="ccccc" /><path
       style="fill:none;stroke:#ffffff;stroke-width:0.593;stroke-linecap:square;stroke-opacity:1"
       d="m 63.326504,57.522172 -0.03455,13.58582 52.637536,0.18326 0.0411,-13.57487 z"
       id="path5-8"
       sodipodi:nodetypes="ccccc" /><path
       style="fill:none;stroke:#ffffff;stroke-width:0.593;stroke-linecap:square;stroke-opacity:1"
       d="m 63.693269,93.106695 -0.134918,13.485655 36.181944,0.37336 0.132746,-13.493216 z"
       id="path6"
       sodipodi:nodetypes="ccccc" /><path
       style="fill:none;stroke:#ffffff;stroke-width:0.593;stroke-linecap:square;stroke-opacity:1"
       d="m 221.75152,128.68614 22.50249,-41.860916 22.68606,41.963066 -12.45534,0.13024 0.1324,13.58235 34.97632,-0.36774 -45.35268,-83.967115 -44.68276,84.212655 34.45795,-0.15808 -0.0571,-13.57522 z"
       id="path4-47"
       sodipodi:nodetypes="ccccccccccc" /><path
       style="fill:none;stroke:#ffffff;stroke-width:0.593;stroke-linecap:square;stroke-opacity:1"
       d="m 331.61003,72.041919 -22.50249,41.860911 -22.68606,-41.963061 12.45534,-0.13024 -0.1324,-13.58235 -34.97632,0.36774 45.35268,83.967111 44.68276,-84.212651 -34.45795,0.15808 0.0571,13.57522 z"
       id="path4-47-4"
       sodipodi:nodetypes="ccccccccccc" /></g></svg>
