<?xml version="1.0" encoding="UTF-8" standalone="no"?>
<!-- Created with Inkscape (http://www.inkscape.org/) -->

<svg
   width="65.211266mm"
   height="87.86544mm"
   viewBox="0 0 65.211266 87.86544"
   version="1.1"
   id="svg1"
   xml:space="preserve"
   xmlns:inkscape="http://www.inkscape.org/namespaces/inkscape"
   xmlns:sodipodi="http://sodipodi.sourceforge.net/DTD/sodipodi-0.dtd"
   xmlns="http://www.w3.org/2000/svg"
   xmlns:svg="http://www.w3.org/2000/svg"><sodipodi:namedview
     id="namedview1"
     pagecolor="#ffffff"
     bordercolor="#000000"
     borderopacity="0.25"
     inkscape:showpageshadow="2"
     inkscape:pageopacity="0.0"
     inkscape:pagecheckerboard="0"
     inkscape:deskcolor="#d1d1d1"
     inkscape:document-units="mm" /><defs
     id="defs1" /><g
     inkscape:label="Layer 1"
     inkscape:groupmode="layer"
     id="layer1"
     transform="translate(-141.1315,-114.29601)"><path
       style="fill:none;stroke:#013948;stroke-width:1.71867;stroke-linecap:round;stroke-linejoin:round;stroke-dasharray:none;stroke-opacity:1;paint-order:stroke markers fill"
       d="m 157.47661,168.80084 32.34847,-0.14883 c 1.27765,0.12397 4.88548,0.73849 4.82648,5.13469 l 0.13882,27.51242 -14.02877,0.003 -7.01865,-18.80858 -6.48128,18.7618 -14.41654,-0.0391 0.17343,-27.80144 c -0.19412,-3.21178 2.83464,-4.55797 4.45804,-4.61378 z"
       id="path10"
       sodipodi:nodetypes="cccccccccc" /><path
       style="fill:none;stroke:#013948;stroke-width:1.71867;stroke-linecap:round;stroke-linejoin:round;stroke-dasharray:none;stroke-opacity:1;paint-order:stroke markers fill"
       d="m 169.74544,176.61449 4.20015,-7.44157"
       id="path11" /><path
       style="fill:none;stroke:#013948;stroke-width:1.71867;stroke-linecap:round;stroke-linejoin:round;stroke-dasharray:none;stroke-opacity:1;paint-order:stroke markers fill"
       d="m 177.99837,176.01916 -3.97909,-6.84624"
       id="path12" /><path
       style="fill:none;stroke:#013948;stroke-width:1.71867;stroke-linecap:round;stroke-linejoin:round;stroke-dasharray:none;stroke-opacity:1;paint-order:stroke markers fill"
       d="m 158.01084,168.91246 0.0921,-6.1393 c -0.1709,-2.1372 1.58892,-2.60091 2.80009,-2.60454 l 24.97981,0.18603 c 2.09417,-0.1995 3.78646,0.28318 3.75802,2.26968 l -0.0184,5.89745"
       id="path13"
       sodipodi:nodetypes="cccccc" /><path
       style="fill:none;stroke:#013948;stroke-width:1.71867;stroke-linecap:round;stroke-linejoin:round;stroke-dasharray:none;stroke-opacity:1;paint-order:stroke markers fill"
       d="m 155.45022,153.84327 36.76968,0.0744 -0.0261,-15.75886 6.58418,1.3222 6.70549,-10.64145 c -5.25337,-3.00001 -9.32283,-5.91461 -12.63312,-8.77445 -3.8954,-2.33452 -6.96829,-3.50615 -10.20529,-4.9098 -1.24697,8.74921 -16.40855,8.8726 -17.6156,0.21499 -3.10346,0.69375 -6.31715,2.44513 -9.55835,4.46048 -4.44195,2.9645 -7.98992,6.35386 -13.48031,8.82009 l 6.45915,10.60689 7.2213,-1.04182 z"
       id="path14"
       sodipodi:nodetypes="ccccccccccccc" /><path
       style="fill:none;stroke:#013948;stroke-width:1.71867;stroke-linecap:round;stroke-linejoin:round;stroke-dasharray:none;stroke-opacity:1;paint-order:stroke markers fill"
       d="m 155.67205,138.19791 c 5.27466,-6.24738 1.31523,-12.08213 -0.85972,-17.99662"
       id="path15"
       sodipodi:nodetypes="cc" /><path
       style="fill:none;stroke:#013948;stroke-width:1.71867;stroke-linecap:round;stroke-linejoin:round;stroke-dasharray:none;stroke-opacity:1;paint-order:stroke markers fill"
       d="m 192.71859,120.26668 c -2.51762,6.42506 -5.88792,12.97213 -0.36025,18.24617"
       id="path16"
       sodipodi:nodetypes="cc" /></g></svg>
