<?xml version="1.0" encoding="UTF-8" standalone="no"?>
<!-- Created with Inkscape (http://www.inkscape.org/) -->

<svg
   width="523.37024mm"
   height="389.32812mm"
   viewBox="0 0 523.37024 389.32812"
   version="1.1"
   id="svg1"
   xml:space="preserve"
   inkscape:version="1.4 (86a8ad7, 2024-10-11)"
   sodipodi:docname="base.svg"
   xmlns:inkscape="http://www.inkscape.org/namespaces/inkscape"
   xmlns:sodipodi="http://sodipodi.sourceforge.net/DTD/sodipodi-0.dtd"
   xmlns="http://www.w3.org/2000/svg"
   xmlns:svg="http://www.w3.org/2000/svg"><sodipodi:namedview
     id="namedview1"
     pagecolor="#ffffff"
     bordercolor="#000000"
     borderopacity="0.25"
     inkscape:showpageshadow="2"
     inkscape:pageopacity="0.0"
     inkscape:pagecheckerboard="0"
     inkscape:deskcolor="#d1d1d1"
     inkscape:document-units="mm"
     inkscape:zoom="0.13181247"
     inkscape:cx="2211.4751"
     inkscape:cy="-155.52398"
     inkscape:window-width="2560"
     inkscape:window-height="1017"
     inkscape:window-x="1912"
     inkscape:window-y="-8"
     inkscape:window-maximized="1"
     inkscape:current-layer="layer1"><inkscape:page
       x="0"
       y="-9.1268768e-13"
       width="523.37024"
       height="389.32809"
       id="page2"
       margin="0"
       bleed="0" /></sodipodi:namedview><defs
     id="defs1" /><g
     inkscape:label="Layer 1"
     inkscape:groupmode="layer"
     id="layer1"
     transform="translate(-403.70255,-152.52436)"><path
       style="fill:none;stroke:#013948;stroke-width:17.4217;stroke-linecap:round;stroke-linejoin:round;stroke-miterlimit:2;stroke-dasharray:none;stroke-opacity:1;paint-order:fill markers stroke"
       d="m 635.45544,302.20775 0.28182,-12.49558"
       id="path1-4-50-8"
       sodipodi:nodetypes="cc" /><path
       style="fill:none;stroke:#013948;stroke-width:17.4217;stroke-linecap:round;stroke-linejoin:round;stroke-miterlimit:2;stroke-dasharray:none;stroke-opacity:1;paint-order:fill markers stroke"
       d="m 666.8653,492.16909 13.52734,-1.91822"
       id="path1-4-8"
       sodipodi:nodetypes="cc" /><path
       style="fill:none;stroke:#013948;stroke-width:17.4217;stroke-linecap:round;stroke-linejoin:round;stroke-miterlimit:2;stroke-dasharray:none;stroke-opacity:1;paint-order:fill markers stroke"
       d="m 711.16585,486.06633 13.25424,-2.76443"
       id="path1-4-7-0"
       sodipodi:nodetypes="cc" /><path
       style="fill:none;stroke:#013948;stroke-width:17.4217;stroke-linecap:round;stroke-linejoin:round;stroke-miterlimit:2;stroke-dasharray:none;stroke-opacity:1;paint-order:fill markers stroke"
       d="m 755.00469,475.1059 13.11768,-3.97324"
       id="path1-4-6-8"
       sodipodi:nodetypes="cc" /><path
       style="fill:none;stroke:#013948;stroke-width:17.4217;stroke-linecap:round;stroke-linejoin:round;stroke-miterlimit:2;stroke-dasharray:none;stroke-opacity:1;paint-order:fill markers stroke"
       d="m 794.43476,455.81009 c 2.91121,-2.8016 5.60963,-6.92732 6.52698,-11.10709"
       id="path1-4-5-7"
       sodipodi:nodetypes="cc" /><path
       style="fill:none;stroke:#013948;stroke-width:17.4217;stroke-linecap:round;stroke-linejoin:round;stroke-miterlimit:2;stroke-dasharray:none;stroke-opacity:1;paint-order:fill markers stroke"
       d="m 779.95574,410.21663 10.43753,8.33911"
       id="path1-4-1-7"
       sodipodi:nodetypes="cc" /><path
       style="fill:none;stroke:#013948;stroke-width:17.4217;stroke-linecap:round;stroke-linejoin:round;stroke-miterlimit:2;stroke-dasharray:none;stroke-opacity:1;paint-order:fill markers stroke"
       d="m 745.75834,382.3313 9.47196,10.47607"
       id="path1-4-14-8"
       sodipodi:nodetypes="cc" /><path
       style="fill:none;stroke:#013948;stroke-width:17.4217;stroke-linecap:round;stroke-linejoin:round;stroke-miterlimit:2;stroke-dasharray:none;stroke-opacity:1;paint-order:fill markers stroke"
       d="m 753.8528,357.95181 11.0694,-8.08331"
       id="path1-4-17-3"
       sodipodi:nodetypes="cc" /><path
       style="fill:none;stroke:#013948;stroke-width:17.4217;stroke-linecap:round;stroke-linejoin:round;stroke-miterlimit:2;stroke-dasharray:none;stroke-opacity:1;paint-order:fill markers stroke"
       d="m 793.65168,338.31723 12.57148,-3.97326"
       id="path1-4-3-8"
       sodipodi:nodetypes="cc" /><path
       style="fill:none;stroke:#013948;stroke-width:17.4217;stroke-linecap:round;stroke-linejoin:round;stroke-miterlimit:2;stroke-dasharray:none;stroke-opacity:1;paint-order:fill markers stroke"
       d="m 837.56998,327.75948 13.52734,-3.12708"
       id="path1-4-9-3"
       sodipodi:nodetypes="cc" /><path
       style="fill:none;stroke:#013948;stroke-width:17.4217;stroke-linecap:square;stroke-linejoin:miter;stroke-miterlimit:2;stroke-dasharray:none;stroke-opacity:1;paint-order:fill markers stroke"
       d="m 480.73634,420.57334 -30.32604,91.91897 c -8.02855,17.24937 18.65366,27.87494 24.68774,10.98765 l 28.55588,-83.73945 z"
       id="path10-8-7"
       sodipodi:nodetypes="ccccc" /><path
       style="fill:none;stroke:#013948;stroke-width:17.4217;stroke-linecap:square;stroke-linejoin:miter;stroke-miterlimit:2;stroke-dasharray:none;stroke-opacity:1;paint-order:fill markers stroke"
       d="m 575.4575,442.49718 5.80063,70.2076 c 4.44533,21.31354 -20.60283,24.84368 -26.23265,9.79096 L 550.02946,451.407 498.2267,400.90683 c -15.04618,-11.76567 -11.00131,-24.65994 -9.68591,-37.83997 l 10.85913,-78.68076 c 2.10051,-15.65371 24.79527,-24.62542 34.1734,-12.34941 9.94984,13.02439 18.48152,37.48834 42.9638,50.26292 l 52.39461,2.50121 c 16.05894,-1.27977 20.51646,28.97915 0.74188,27.76018 l -53.40594,-1.39296 c -23.06896,-1.09896 -33.82217,-10.02642 -43.69215,-25.55536 l -5.35108,53.40655 c -0.74843,9.2844 6.57319,18.35899 8.69968,19.44984 14.08436,14.0672 38.68708,21.07052 39.53338,44.02811 z"
       id="path10-8-1-1"
       sodipodi:nodetypes="cccccccscccccccc" /><path
       style="fill:none;stroke:#013948;stroke-width:17.4217;stroke-linecap:round;stroke-linejoin:round;stroke-miterlimit:2;stroke-dasharray:none;stroke-opacity:1;paint-order:fill markers stroke"
       d="m 621.37135,533.14157 8.06526,-153.688"
       id="path1-4-38-0"
       sodipodi:nodetypes="cc" /><path
       style="fill:none;stroke:#013948;stroke-width:17.4217;stroke-linecap:square;stroke-linejoin:miter;stroke-miterlimit:2;stroke-dasharray:none;stroke-opacity:1;paint-order:fill markers stroke"
       d="m 866.49728,287.04395 c 23.68851,-28.80944 44.86599,-47.43054 50.45742,-66.61136 8.0601,-27.64938 -20.21519,-59.33512 -49.39817,-59.19692 -33.5115,0.1587 -52.54014,22.39065 -53.28303,48.15939 -0.76527,26.5444 30.77289,51.52253 52.22378,77.64889 z"
       id="path14-7"
       sodipodi:nodetypes="csssc" /><ellipse
       style="fill:none;stroke:#013948;stroke-width:17.4217;stroke-linecap:square;stroke-linejoin:miter;stroke-miterlimit:2;stroke-dasharray:none;stroke-opacity:1;paint-order:fill markers stroke"
       id="path15-4-3"
       cx="536.4679"
       cy="216.43678"
       rx="31.221567"
       ry="30.117317" /><path
       style="fill:none;stroke:#013948;stroke-width:17.4217;stroke-linecap:square;stroke-linejoin:round;stroke-miterlimit:2;stroke-dasharray:none;stroke-opacity:1;paint-order:fill markers stroke"
       d="m 425.73231,274.27677 c 1.05371,-6.28155 6.50158,-10.39686 11.91776,-10.23144 l 29.66714,3.96148 c 7.15473,1.34068 9.51911,6.67326 8.99754,13.49367 l -12.33368,85.53931 c -0.63196,4.89363 -3.69241,10.00469 -12.68519,9.35831 l -28.34903,-3.52124 c -7.77371,-1.51444 -11.726,-7.54126 -10.29036,-13.46136 z"
       id="path16-4"
       sodipodi:nodetypes="ccccccccc" /></g></svg>
