<?xml version="1.0" encoding="UTF-8" standalone="no"?>
<!-- Created with Inkscape (http://www.inkscape.org/) -->

<svg
   width="290.18701mm"
   height="544.72211mm"
   viewBox="0 0 290.18701 544.72211"
   version="1.1"
   id="svg1"
   xml:space="preserve"
   inkscape:version="1.4 (86a8ad7, 2024-10-11)"
   sodipodi:docname="base.svg"
   xmlns:inkscape="http://www.inkscape.org/namespaces/inkscape"
   xmlns:sodipodi="http://sodipodi.sourceforge.net/DTD/sodipodi-0.dtd"
   xmlns="http://www.w3.org/2000/svg"
   xmlns:svg="http://www.w3.org/2000/svg"><sodipodi:namedview
     id="namedview1"
     pagecolor="#ffffff"
     bordercolor="#000000"
     borderopacity="0.25"
     inkscape:showpageshadow="2"
     inkscape:pageopacity="0.0"
     inkscape:pagecheckerboard="0"
     inkscape:deskcolor="#d1d1d1"
     inkscape:document-units="mm"
     inkscape:zoom="0.13181247"
     inkscape:cx="2211.4751"
     inkscape:cy="-155.52398"
     inkscape:window-width="2560"
     inkscape:window-height="1017"
     inkscape:window-x="1912"
     inkscape:window-y="-8"
     inkscape:window-maximized="1"
     inkscape:current-layer="layer1"><inkscape:page
       x="0"
       y="0"
       width="290.18701"
       height="544.72211"
       id="page2"
       margin="0"
       bleed="0" /></sodipodi:namedview><defs
     id="defs1" /><g
     inkscape:label="Layer 1"
     inkscape:groupmode="layer"
     id="layer1"
     transform="translate(979.03757,-59.384056)"><path
       style="fill:none;stroke:#013948;stroke-width:17.8652;stroke-linecap:square;stroke-linejoin:miter;stroke-miterlimit:2;stroke-dasharray:none;stroke-opacity:1;paint-order:fill markers stroke"
       d="m -873.62958,315.02036 c -0.91022,-8.37714 5.4452,-16.26069 14.67127,-16.08658 l 49.37443,0.93179 c 14.73761,0.27812 14.28519,10.35252 14.16806,14.78432"
       id="path3-9-1-2-1-49"
       sodipodi:nodetypes="cssc" /><ellipse
       style="fill:none;stroke:#013948;stroke-width:17.9811;stroke-linecap:square;stroke-linejoin:miter;stroke-miterlimit:2;stroke-dasharray:none;stroke-opacity:1;paint-order:fill markers stroke"
       id="path7"
       cx="-833.94409"
       cy="465.56705"
       rx="136.10295"
       ry="129.54854" /><path
       style="fill:none;stroke:#013948;stroke-width:9.69728;stroke-linecap:square;stroke-linejoin:miter;stroke-miterlimit:2;stroke-dasharray:none;stroke-opacity:1;paint-order:fill markers stroke"
       d="m -972.60902,101.36834 67.83065,-34.030495 c 1.59303,63.217885 18.31795,130.300835 70.45885,212.328555 l -35.359,-0.43447 c -2.43211,0.99362 -5.03771,2.00582 -6.02289,2.84441 -76.73091,-85.30725 -88.46871,-132.5999 -96.90761,-180.708 z"
       id="path8"
       sodipodi:nodetypes="cccccc" /><path
       style="fill:none;stroke:#013948;stroke-width:9.69728;stroke-linecap:square;stroke-linejoin:miter;stroke-miterlimit:2;stroke-dasharray:none;stroke-opacity:1;paint-order:fill markers stroke"
       d="M -696.41746,101.24904 -765.4996,67.218545 c 0.642,60.640105 -28.40354,162.971545 -83.65762,231.202175 l 45.06934,-2.94802 c 76.73088,-85.30725 99.2315,-146.11556 107.67042,-194.22366 z"
       id="path8-8"
       sodipodi:nodetypes="ccccc" /><path
       sodipodi:type="star"
       style="fill:none;stroke:#013948;stroke-width:8.15241;stroke-linecap:square;stroke-linejoin:miter;stroke-miterlimit:2;stroke-dasharray:none;stroke-opacity:1;paint-order:fill markers stroke"
       id="path9"
       inkscape:flatsided="false"
       sodipodi:sides="5"
       sodipodi:cx="-913.05731"
       sodipodi:cy="381.63239"
       sodipodi:r1="38.297108"
       sodipodi:r2="19.148556"
       sodipodi:arg1="0.62253433"
       sodipodi:arg2="1.2508529"
       inkscape:rounded="-0.01"
       inkscape:randomized="0"
       d="m -881.94461,403.96327 c 0.14829,-0.20661 -25.33165,-4.07407 -25.09023,-4.15406 0.24141,-0.08 -17.88838,18.23654 -17.64606,18.31373 0.24233,0.0772 -3.95323,-25.35078 -3.80256,-25.1459 0.15067,0.20488 -22.87179,-11.37745 -22.87032,-11.12314 0.001,0.25432 22.88841,-11.59357 22.74012,-11.38696 -0.14829,0.20661 3.75283,-25.26819 3.51141,-25.18821 -0.24141,0.08 18.09905,18.18556 17.85673,18.10838 -0.24232,-0.0772 25.19117,-4.23915 25.0405,-4.44403 -0.15068,-0.20488 -11.70259,22.83286 -11.70406,22.57855 -0.001,-0.25432 11.81617,22.64825 11.96447,22.44164 z"
       inkscape:transform-center-x="-8.8034047"
       inkscape:transform-center-y="-21.149231"
       transform="matrix(1.9887051,0.63320523,-0.66823133,1.8882083,1235.8747,323.8792)" /></g></svg>
