<?xml version="1.0" encoding="UTF-8" standalone="no"?>
<!-- Created with Inkscape (http://www.inkscape.org/) -->

<svg
   width="263.36221mm"
   height="279.06247mm"
   viewBox="0 0 263.36221 279.06247"
   version="1.1"
   id="svg1"
   xml:space="preserve"
   inkscape:version="1.4 (86a8ad7, 2024-10-11)"
   sodipodi:docname="base.svg"
   xmlns:inkscape="http://www.inkscape.org/namespaces/inkscape"
   xmlns:sodipodi="http://sodipodi.sourceforge.net/DTD/sodipodi-0.dtd"
   xmlns="http://www.w3.org/2000/svg"
   xmlns:svg="http://www.w3.org/2000/svg"><sodipodi:namedview
     id="namedview1"
     pagecolor="#ffffff"
     bordercolor="#000000"
     borderopacity="0.25"
     inkscape:showpageshadow="2"
     inkscape:pageopacity="0.0"
     inkscape:pagecheckerboard="0"
     inkscape:deskcolor="#d1d1d1"
     inkscape:document-units="mm"
     inkscape:zoom="0.13181247"
     inkscape:cx="2211.4751"
     inkscape:cy="-155.52398"
     inkscape:window-width="2560"
     inkscape:window-height="1017"
     inkscape:window-x="1912"
     inkscape:window-y="-8"
     inkscape:window-maximized="1"
     inkscape:current-layer="layer1"><inkscape:page
       x="0"
       y="0"
       width="263.36221"
       height="279.06247"
       id="page2"
       margin="0"
       bleed="0" /></sodipodi:namedview><defs
     id="defs1" /><g
     inkscape:label="Layer 1"
     inkscape:groupmode="layer"
     id="layer1"
     transform="translate(400.67057,258.51066)"><path
       style="fill:none;stroke:#013948;stroke-width:10.351;stroke-linecap:round;stroke-linejoin:round;stroke-miterlimit:2;stroke-dasharray:none;stroke-opacity:1;paint-order:fill markers stroke"
       d="m -264.10393,-119.41583 c -63.72817,7.15327 -55.93383,-41.00594 -95.87993,-61.50755 80.9475,-42.1948 106.76752,1.10766 117.03681,30.81492"
       id="path1"
       sodipodi:nodetypes="ccc" /><path
       style="fill:none;stroke:#013948;stroke-width:10.351;stroke-linecap:round;stroke-linejoin:round;stroke-miterlimit:2;stroke-dasharray:none;stroke-opacity:1;paint-order:fill markers stroke"
       d="m -229.2132,-172.23538 c 6.17012,-63.83085 51.67923,-46.25297 79.99293,-81.10036 24.55684,87.91963 -23.14654,104.2342 -54.33469,108.14303"
       id="path1-7"
       sodipodi:nodetypes="ccc" /><path
       style="fill:none;stroke:#013948;stroke-width:10.351;stroke-linecap:round;stroke-linejoin:round;stroke-miterlimit:2;stroke-dasharray:none;stroke-opacity:1;paint-order:fill markers stroke"
       d="m -285.03245,-156.81803 c 34.47267,16.85077 48.28501,44.04257 50.43267,84.807189 -5.17707,-71.033849 29.19733,-99.867639 43.40723,-111.905349"
       id="path2"
       sodipodi:nodetypes="ccc" /><path
       style="fill:none;stroke:#013948;stroke-width:10.351;stroke-linecap:round;stroke-linejoin:round;stroke-miterlimit:2;stroke-dasharray:none;stroke-opacity:1;paint-order:fill markers stroke"
       d="m -395.49508,-56.579947 10.60268,-5.907797 c 4.67678,-2.220337 8.30433,-1.176388 10.85209,3.2269 l 33.08121,57.1064855 c 2.64879,4.0834588 2.59072,8.834593 -1.2115,11.1461579 l -11.77308,6.3845186"
       id="path3"
       sodipodi:nodetypes="cccccc" /><path
       style="fill:none;stroke:#013948;stroke-width:10.351;stroke-linecap:round;stroke-linejoin:round;stroke-miterlimit:2;stroke-dasharray:none;stroke-opacity:1;paint-order:fill markers stroke"
       d="m -371.69461,-57.379815 43.7801,-28.617474 c 5.83001,-4.52679 15.66723,-5.079614 23.44886,-1.918262 l 57.22133,24.99862 c 7.8744,2.831915 10.41344,21.618578 -6.10423,20.55524 l -43.38759,-6.913651"
       id="path3-9"
       sodipodi:nodetypes="cccccc" /><path
       style="fill:none;stroke:#013948;stroke-width:10.351;stroke-linecap:round;stroke-linejoin:round;stroke-miterlimit:2;stroke-dasharray:none;stroke-opacity:1;paint-order:fill markers stroke"
       d="m -340.80072,-4.7068313 11.17336,-5.3976807 81.61137,4.5501142 c 6.59148,0.6870346 13.5377,0.5411256 18.2548,-2.8056423 l 81.7541,-62.8553609 c 7.90806,-4.473559 1.16299,-29.066229 -16.03971,-21.442337 l -61.30695,33.526554"
       id="path3-9-5"
       sodipodi:nodetypes="ccccccc" /></g></svg>
