<?xml version="1.0" encoding="UTF-8" standalone="no"?>
<!-- Created with Inkscape (http://www.inkscape.org/) -->

<svg
   width="388.29993mm"
   height="312.66882mm"
   viewBox="0 0 388.29993 312.66882"
   version="1.1"
   id="svg1"
   xml:space="preserve"
   inkscape:version="1.4 (86a8ad7, 2024-10-11)"
   sodipodi:docname="base.svg"
   xmlns:inkscape="http://www.inkscape.org/namespaces/inkscape"
   xmlns:sodipodi="http://sodipodi.sourceforge.net/DTD/sodipodi-0.dtd"
   xmlns="http://www.w3.org/2000/svg"
   xmlns:svg="http://www.w3.org/2000/svg"><sodipodi:namedview
     id="namedview1"
     pagecolor="#ffffff"
     bordercolor="#000000"
     borderopacity="0.25"
     inkscape:showpageshadow="2"
     inkscape:pageopacity="0.0"
     inkscape:pagecheckerboard="0"
     inkscape:deskcolor="#d1d1d1"
     inkscape:document-units="mm"
     inkscape:zoom="0.13181247"
     inkscape:cx="2211.4751"
     inkscape:cy="-155.52398"
     inkscape:window-width="2560"
     inkscape:window-height="1017"
     inkscape:window-x="1912"
     inkscape:window-y="-8"
     inkscape:window-maximized="1"
     inkscape:current-layer="layer1"><inkscape:page
       x="1.3446648e-21"
       y="0"
       width="388.29993"
       height="312.66882"
       id="page2"
       margin="0"
       bleed="0" /></sodipodi:namedview><defs
     id="defs1" /><g
     inkscape:label="Layer 1"
     inkscape:groupmode="layer"
     id="layer1"
     transform="translate(473.87803,-187.68474)"><path
       style="fill:none;stroke:#013948;stroke-width:14.029;stroke-linecap:round;stroke-linejoin:miter;stroke-miterlimit:2;stroke-dasharray:none;stroke-opacity:1;paint-order:fill markers stroke"
       d="m -437.85391,394.33358 80.90397,0.61835"
       id="path13-4"
       sodipodi:nodetypes="cc" /><path
       style="fill:none;stroke:#013948;stroke-width:14.029;stroke-linecap:round;stroke-linejoin:miter;stroke-miterlimit:2;stroke-dasharray:none;stroke-opacity:1;paint-order:fill markers stroke"
       d="m -466.86352,428.3585 80.90397,0.61835"
       id="path13-4-3"
       sodipodi:nodetypes="cc" /><path
       style="fill:none;stroke:#013948;stroke-width:12.029;stroke-linecap:square;stroke-linejoin:round;stroke-miterlimit:2;stroke-dasharray:none;stroke-opacity:1;paint-order:fill markers stroke"
       d="m -293.93973,365.8251 -76.65264,116.42173 c -6.14592,9.40569 4.78001,16.04598 10.53816,9.65997 l 87.56719,-103.4999 c -13.05172,-5.06439 -18.61371,-14.5155 -21.45271,-22.5818 z"
       id="path10"
       sodipodi:nodetypes="ccccc" /><path
       style="fill:none;stroke:#013948;stroke-width:12.029;stroke-linecap:square;stroke-linejoin:miter;stroke-miterlimit:2;stroke-dasharray:none;stroke-opacity:1;paint-order:fill markers stroke"
       d="m -231.2125,358.29784 50.18176,30.98725 c 11.88159,5.62119 13.50753,25.91338 -5.01818,31.73996 l -67.01158,20.21446 c -14.55199,4.02357 -14.68199,-10.81686 -6.9089,-13.02203 l 58.7405,-24.12877 -59.96247,-32.81406 c -11.04416,-4.91868 -24.60465,-22.09959 -15.72069,-38.3721 l 29.89599,-46.5925 -37.41803,0.0661 -28.29705,35.16877 c -6.68089,9.68489 -15.9338,7.8994 -18.25461,6.97196 -2.01638,-0.80579 -8.65638,-5.89628 -0.99405,-15.52961 l 31.83193,-41.08294 c 4.7417,-7.13186 9.4834,-7.21763 14.2251,-7.95425 l 92.08751,-0.45521 c 7.06051,0.33825 14.65256,3.61151 19.39057,11.83608 l 29.04302,43.07238 h 42.27814 c 6.11786,0.32611 11.002064,4.52908 11.468034,8.6927 0.366601,3.27573 -2.216578,11.90367 -10.589854,11.88182 l -52.57297,0.36059 c -6.20579,0.20207 -10.20523,-1.7619 -12.78879,-6.00603 l -17.78864,-26.51464 c -2.06557,-3.35166 -10.21599,-4.44261 -12.44587,-0.45805 z"
       id="path11"
       sodipodi:nodetypes="cccccccccccscccccccscccccc" /><ellipse
       style="fill:none;stroke:#013948;stroke-width:12.029;stroke-linecap:square;stroke-linejoin:miter;stroke-miterlimit:2;stroke-dasharray:none;stroke-opacity:1;paint-order:fill markers stroke"
       id="path12"
       cx="-177.51801"
       cy="219.29433"
       rx="26.473274"
       ry="25.595089" /><path
       style="fill:none;stroke:#013948;stroke-width:14.029;stroke-linecap:round;stroke-linejoin:miter;stroke-miterlimit:2;stroke-dasharray:none;stroke-opacity:1;paint-order:fill markers stroke"
       d="m -410.68953,362.87508 80.90397,0.61835"
       id="path13"
       sodipodi:nodetypes="cc" /></g></svg>
