<?xml version="1.0" encoding="UTF-8" standalone="no"?>
<!-- Created with Inkscape (http://www.inkscape.org/) -->

<svg
   width="287.64438mm"
   height="281.79727mm"
   viewBox="0 0 287.64438 281.79727"
   version="1.1"
   id="svg1"
   xml:space="preserve"
   inkscape:version="1.4 (86a8ad7, 2024-10-11)"
   sodipodi:docname="base.svg"
   xmlns:inkscape="http://www.inkscape.org/namespaces/inkscape"
   xmlns:sodipodi="http://sodipodi.sourceforge.net/DTD/sodipodi-0.dtd"
   xmlns="http://www.w3.org/2000/svg"
   xmlns:svg="http://www.w3.org/2000/svg"><sodipodi:namedview
     id="namedview1"
     pagecolor="#ffffff"
     bordercolor="#000000"
     borderopacity="0.25"
     inkscape:showpageshadow="2"
     inkscape:pageopacity="0.0"
     inkscape:pagecheckerboard="0"
     inkscape:deskcolor="#d1d1d1"
     inkscape:document-units="mm"
     inkscape:zoom="0.13181247"
     inkscape:cx="2211.4751"
     inkscape:cy="-155.52398"
     inkscape:window-width="2560"
     inkscape:window-height="1017"
     inkscape:window-x="1912"
     inkscape:window-y="-8"
     inkscape:window-maximized="1"
     inkscape:current-layer="layer1"><inkscape:page
       x="1.2810052e-13"
       y="0"
       width="287.64441"
       height="281.79727"
       id="page2"
       margin="0"
       bleed="0" /></sodipodi:namedview><defs
     id="defs1" /><g
     inkscape:label="Layer 1"
     inkscape:groupmode="layer"
     id="layer1"
     transform="translate(15.22429,358.07327)"><path
       style="fill:none;stroke:#013948;stroke-width:12.896;stroke-linecap:square;stroke-linejoin:miter;stroke-miterlimit:2;stroke-dasharray:none;stroke-opacity:1;paint-order:fill markers stroke"
       d="m 110.14897,-194.78601 c 21.78279,-14.20512 58.6868,-1.18945 75.84373,19.24379"
       id="path3-9-1-2-1"
       sodipodi:nodetypes="cc" /><path
       style="fill:none;stroke:#013948;stroke-width:12.896;stroke-linecap:square;stroke-linejoin:miter;stroke-miterlimit:2;stroke-dasharray:none;stroke-opacity:1;paint-order:fill markers stroke"
       d="m 188.30836,-128.77799 c -19.72576,5.89921 -40.35954,10.36946 -58.0292,6.85073"
       id="path3-9-1-2-1-6"
       sodipodi:nodetypes="cc" /><path
       style="fill:none;stroke:#013948;stroke-width:12.896;stroke-linecap:square;stroke-linejoin:miter;stroke-miterlimit:2;stroke-dasharray:none;stroke-opacity:1;paint-order:fill markers stroke"
       d="m 151.6071,-290.24552 c 5.1349,7.93402 10.65694,17.31566 14.0849,33.86903 3.83096,18.49939 1.43229,39.59574 -0.0178,60.74873"
       id="path3-9-1-2-1-4"
       sodipodi:nodetypes="csc" /><path
       style="fill:none;stroke:#013948;stroke-width:12.896;stroke-linecap:square;stroke-linejoin:miter;stroke-miterlimit:2;stroke-dasharray:none;stroke-opacity:1;paint-order:fill markers stroke"
       d="m 155.55216,-298.83866 c -0.41944,8.26398 -16.6806,13.36321 -30.75725,12.41882 -10.91167,3.0186 -30.851453,9.3588 -35.178373,11.03173 -3.1751,1.2276 -13.7857,-12.58962 -5.10557,-18.72621"
       id="path3-9-1-8-3"
       sodipodi:nodetypes="ccsc" /><path
       style="fill:none;stroke:#013948;stroke-width:12.896;stroke-linecap:square;stroke-linejoin:miter;stroke-miterlimit:2;stroke-dasharray:none;stroke-opacity:1;paint-order:fill markers stroke"
       d="m 109.57089,-321.6454 c -2.38101,2.81794 -5.61525,11.54716 -7.14061,13.71239 -4.067463,5.77371 -11.473163,9.99656 -16.552823,11.52383 -6.47964,-3.5992 -13.45022,-12.34935 -14.96846,-15.13656 -1.70627,-1.91895 5.90321,-11.68419 11.64189,-20.68824 7.03532,-11.03851 12.68874,-21.51196 18.650443,-19.1238 14.61706,5.85535 41.38963,18.8108 60.11539,26.39135 13.19346,5.34096 20.31511,10.86452 25.67242,20.14572 19.47903,33.74616 38.89578,51.3267 50.66894,76.3748 13.27232,28.23767 18.75507,49.82191 19.46001,62.18164 6.0297,20.13132 11.02438,28.6893 7.90604,32.25824 -21.09013,24.13762 -62.72409,43.265563 -92.00241,48.506323 -37.02862,6.62803 -70.16577,0.0669 -88.508913,-6.70524"
       id="path3-9-1-8-9"
       sodipodi:nodetypes="csccssssscssc" /><path
       style="fill:none;stroke:#013948;stroke-width:12.896;stroke-linecap:square;stroke-linejoin:miter;stroke-miterlimit:2;stroke-dasharray:none;stroke-opacity:1;paint-order:fill markers stroke"
       id="path6"
       sodipodi:type="arc"
       sodipodi:cx="55.827229"
       sodipodi:cy="-155.06166"
       sodipodi:rx="64.585747"
       sodipodi:ry="68.725746"
       sodipodi:start="1.2129881"
       sodipodi:end="5.9689637"
       sodipodi:open="true"
       sodipodi:arc-type="arc"
       d="M 78.446585,-90.688544 A 64.585747,68.725746 0 0 1 8.115733,-108.74048 64.585747,68.725746 0 0 1 -2.3461351,-184.91682 64.585747,68.725746 0 0 1 60.188665,-223.63053 64.585747,68.725746 0 0 1 117.25068,-176.30316" /></g></svg>
