<?xml version="1.0" encoding="UTF-8" standalone="no"?>
<!-- Created with Inkscape (http://www.inkscape.org/) -->

<svg
   width="210mm"
   height="297mm"
   viewBox="0 0 210 297"
   version="1.1"
   id="svg1"
   xml:space="preserve"
   inkscape:version="1.3.2 (091e20e, 2023-11-25, custom)"
   sodipodi:docname="icons.svg"
   xmlns:inkscape="http://www.inkscape.org/namespaces/inkscape"
   xmlns:sodipodi="http://sodipodi.sourceforge.net/DTD/sodipodi-0.dtd"
   xmlns="http://www.w3.org/2000/svg"
   xmlns:svg="http://www.w3.org/2000/svg"><sodipodi:namedview
     id="namedview1"
     pagecolor="#ffffff"
     bordercolor="#000000"
     borderopacity="0.25"
     inkscape:showpageshadow="2"
     inkscape:pageopacity="0.0"
     inkscape:pagecheckerboard="0"
     inkscape:deskcolor="#d1d1d1"
     inkscape:document-units="mm"
     inkscape:zoom="0.74742565"
     inkscape:cx="59.537695"
     inkscape:cy="507.74281"
     inkscape:window-width="2560"
     inkscape:window-height="1017"
     inkscape:window-x="1912"
     inkscape:window-y="564"
     inkscape:window-maximized="1"
     inkscape:current-layer="layer1" /><defs
     id="defs1" /><g
     inkscape:label="Layer 1"
     inkscape:groupmode="layer"
     id="layer1"><path
       style="fill:none;stroke:#ace2e4;stroke-width:10.593;stroke-linecap:round;stroke-linejoin:miter;stroke-dasharray:none;stroke-opacity:1"
       d="m 68.481589,102.53611 67.213271,0.11432 -48.820273,-0.52755 c 0.338,-26.018651 16.845153,-31.892081 27.464883,-31.409481 13.64208,0.61994 21.73134,13.70268 20.68529,31.974231 l 21.55918,0.0377 11.00484,85.49541 -107.261574,-0.14365 z"
       id="path1-8"
       sodipodi:nodetypes="cccsccccc"
       inkscape:export-filename="..\AppIcons\weight.svg"
       inkscape:export-xdpi="96"
       inkscape:export-ydpi="96" /><path
       style="fill:none;stroke:#ace2e4;stroke-width:9.38861;stroke-linecap:round;stroke-linejoin:miter;stroke-dasharray:none;stroke-opacity:1"
       d="m -26.770809,73.182259 -54.423208,0.0634 c -2.553592,3.44345 -13.704686,26.47215 4.324369,41.340511 6.224997,5.13368 14.527217,11.42015 24.237319,18.80323 7.89947,7.39007 15.33928,9.4645 24.60673,18.93286 10.92864,11.16556 9.33695,30.38083 1.12825,39.59171 l -54.454723,-0.0894 c -7.555912,-10.68494 -7.462292,-28.26732 0.110805,-36.94758 8.829311,-10.12011 16.362896,-12.64796 29.061748,-23.77271 6.81431,-5.96962 24.70053,-14.79843 29.34771,-25.78981 2.58117,-6.104911 6.07229,-19.323791 -3.939,-32.132261 z"
       id="path1-2-2"
       sodipodi:nodetypes="ccscsccsssc"
       inkscape:export-filename="..\AppIcons\hourGloass.svg"
       inkscape:export-xdpi="96"
       inkscape:export-ydpi="96" /><path
       style="fill:none;stroke:#ace2e4;stroke-width:8.78626;stroke-linecap:round;stroke-linejoin:miter;stroke-dasharray:none;stroke-opacity:1"
       d="m 263.83899,70.968849 c 15.35036,14.46195 28.726,29.681191 27.74053,59.971511 6.85285,-7.63526 9.46759,-16.1843 9.58569,-27.62613 49.88277,75.369 -29.27322,103.94537 -56.71162,74.88796 -46.99117,-49.76389 27.17041,-75.43905 19.3854,-107.233341 z"
       id="path1"
       sodipodi:nodetypes="cccsc"
       inkscape:export-filename="..\AppIcons\fire.svg"
       inkscape:export-xdpi="96"
       inkscape:export-ydpi="96" /></g></svg>
