<?xml version="1.0" encoding="UTF-8" standalone="no"?>
<!-- Created with Inkscape (http://www.inkscape.org/) -->

<svg
   width="210mm"
   height="297mm"
   viewBox="0 0 210 297"
   version="1.1"
   id="svg1"
   xml:space="preserve"
   inkscape:version="1.3.2 (091e20e, 2023-11-25, custom)"
   sodipodi:docname="drawing.svg"
   xmlns:inkscape="http://www.inkscape.org/namespaces/inkscape"
   xmlns:sodipodi="http://sodipodi.sourceforge.net/DTD/sodipodi-0.dtd"
   xmlns="http://www.w3.org/2000/svg"
   xmlns:svg="http://www.w3.org/2000/svg"><sodipodi:namedview
     id="namedview1"
     pagecolor="#ffffff"
     bordercolor="#000000"
     borderopacity="0.25"
     inkscape:showpageshadow="2"
     inkscape:pageopacity="0.0"
     inkscape:pagecheckerboard="0"
     inkscape:deskcolor="#d1d1d1"
     inkscape:document-units="mm"
     inkscape:zoom="0.52850975"
     inkscape:cx="1005.6579"
     inkscape:cy="227.99958"
     inkscape:window-width="2560"
     inkscape:window-height="1017"
     inkscape:window-x="1912"
     inkscape:window-y="564"
     inkscape:window-maximized="1"
     inkscape:current-layer="layer1"
     showgrid="true"><inkscape:grid
       id="grid30"
       units="mm"
       originx="0"
       originy="0"
       spacingx="0.99999998"
       spacingy="1"
       empcolor="#0099e5"
       empopacity="0.30196078"
       color="#0099e5"
       opacity="0.14901961"
       empspacing="5"
       dotted="false"
       gridanglex="30"
       gridanglez="30"
       visible="true" /></sodipodi:namedview><defs
     id="defs1" /><g
     inkscape:label="Layer 1"
     inkscape:groupmode="layer"
     id="layer1"><path
       style="fill:none;stroke:#95fc04;stroke-width:4.003;stroke-linecap:round;stroke-linejoin:round;stroke-dasharray:none;stroke-opacity:1;paint-order:stroke markers fill"
       d="m 19.837127,46.182335 c -4.359921,-8.56749 -5.071452,-14.46712 -5.320937,-19.47093 -0.668297,-13.4037 7.066843,-17.4542398 10.886674,-18.1059798 2.461144,-0.41991 15.657188,1.32372 11.893436,23.1214598 -0.802332,3.90452 -2.299607,5.92417 -2.127641,9.94986 0.181358,1.87704 -0.181479,3.07902 -1.752174,3.56692 l -9.011187,2.31537 c -2.414109,0.48159 -2.580214,0.59127 -4.568171,-1.3767 z"
       id="path12"
       sodipodi:nodetypes="cssccccc"
       inkscape:export-filename="ActiveSteps.svg"
       inkscape:export-xdpi="96"
       inkscape:export-ydpi="96" /><path
       style="fill:none;stroke:#95fc04;stroke-width:4.003;stroke-linecap:round;stroke-linejoin:round;stroke-dasharray:none;stroke-opacity:1;paint-order:stroke markers fill"
       d="m 24.280141,53.879395 c -0.04577,3.33289 2.236197,7.31993 3.942506,9.85314 2.60573,3.86851 13.021692,3.38693 11.985119,-4.06371 -0.390651,-2.80791 -2.678733,-8.0495 -3.537244,-10.13858 z"
       id="path13"
       sodipodi:nodetypes="csscc" /><path
       style="fill:none;stroke:#95fc04;stroke-width:4.003;stroke-linecap:round;stroke-linejoin:round;stroke-dasharray:none;stroke-opacity:1;paint-order:stroke markers fill"
       d="m 73.385368,75.642265 c 4.359921,-8.56749 5.071452,-14.46712 5.320937,-19.47093 0.668297,-13.4037 -7.066843,-17.45424 -10.886674,-18.10598 -2.461144,-0.41991 -15.657188,1.32372 -11.893436,23.12146 0.802332,3.90452 2.299607,5.92417 2.127641,9.94986 -0.181358,1.87704 0.181479,3.07902 1.752174,3.56692 l 9.011187,2.31537 c 2.414109,0.48159 2.580214,0.59127 4.568171,-1.3767 z"
       id="path12-6"
       sodipodi:nodetypes="cssccccc" /><path
       style="fill:none;stroke:#95fc04;stroke-width:4.003;stroke-linecap:round;stroke-linejoin:round;stroke-dasharray:none;stroke-opacity:1;paint-order:stroke markers fill"
       d="m 68.942354,83.339325 c 0.04577,3.33289 -2.236197,7.31993 -3.942506,9.85314 -2.60573,3.86851 -13.021692,3.38693 -11.985119,-4.06371 0.390651,-2.80791 2.678733,-8.0495 3.537244,-10.13858 z"
       id="path13-3"
       sodipodi:nodetypes="csscc" /><path
       style="fill:none;stroke:#95fc04;stroke-width:4.603;stroke-linecap:round;stroke-linejoin:round;stroke-dasharray:none;stroke-opacity:1;paint-order:stroke markers fill"
       d="m 120.96663,38.292115 45.84208,43.36413 24.16001,-1e-5 c -3.59864,-17.18402 -10.07111,-15.87596 -16.19517,-15.84117 l -10.4428,-43.45263 c -5.67946,-1.03991 -6.0625,3.50721 -7.96483,6.46037 -8.92778,-4.62481 -9.29988,-11.57557 -9.7348,-17.16865 -11.01701,4.18717 -24.47689,14.88362 -25.66449,26.63796 z"
       id="path14"
       sodipodi:nodetypes="cccccccc"
       inkscape:export-filename="ActiveRun.svg"
       inkscape:export-xdpi="96"
       inkscape:export-ydpi="96" /><path
       style="fill:none;stroke:#95fc04;stroke-width:4.603;stroke-linecap:round;stroke-linejoin:round;stroke-dasharray:none;stroke-opacity:1;paint-order:stroke markers fill"
       d="m 135.92283,52.805825 c 6.29091,-1.93883 18.63379,-1.82929 10.7518,-8.5651 -8.54217,-6.7335 12.52735,-7.35854 19.86859,-12.40897"
       id="path15"
       sodipodi:nodetypes="ccc" /><path
       style="fill:none;stroke:#95fc04;stroke-width:4.603;stroke-linecap:round;stroke-linejoin:round;stroke-dasharray:none;stroke-opacity:1;paint-order:stroke markers fill"
       d="m 131.94041,21.211955 c 3.65636,8.1037 5.71206,14.32353 -2.92044,24.51401"
       id="path16"
       sodipodi:nodetypes="cc" /><path
       style="fill:none;stroke:#95fc04;stroke-width:4.603;stroke-linecap:round;stroke-linejoin:round;stroke-dasharray:none;stroke-opacity:1;paint-order:stroke markers fill"
       d="m 120.43565,38.734605 c -1.73252,1.99701 -5.38873,3.58878 -4.8741,6.45284 l 47.23336,44.05256 28.19445,-0.23361 -0.28613,-7.26166"
       id="path17"
       sodipodi:nodetypes="ccccc" /><path
       style="fill:none;stroke:#95fc04;stroke-width:4.603;stroke-linecap:round;stroke-linejoin:round;stroke-dasharray:none;stroke-opacity:1;paint-order:stroke markers fill"
       d="m 165.21574,62.363635 8.23034,-2.12396"
       id="path18" /><path
       style="fill:none;stroke:#95fc04;stroke-width:4.603;stroke-linecap:round;stroke-linejoin:round;stroke-dasharray:none;stroke-opacity:1;paint-order:stroke markers fill"
       d="m 163.53428,53.425305 6.72586,-1.94696"
       id="path19" /><path
       style="fill:none;stroke:#95fc04;stroke-width:4.603;stroke-linecap:round;stroke-linejoin:round;stroke-dasharray:none;stroke-opacity:1;paint-order:stroke markers fill"
       d="m 160.34834,44.575485 7.52235,-2.12395"
       id="path20" /><path
       style="fill:none;stroke:#95fc04;stroke-width:4.603;stroke-linecap:round;stroke-linejoin:round;stroke-dasharray:none;stroke-opacity:1;paint-order:stroke markers fill"
       d="m 155.56944,28.557315 10.44279,3.89392"
       id="path21" /><path
       style="fill:none;stroke:#95fc04;stroke-width:4.603;stroke-linecap:round;stroke-linejoin:round;stroke-dasharray:none;stroke-opacity:1;paint-order:stroke markers fill"
       d="m 104.50597,67.673525 19.9121,-0.0885"
       id="path22"
       sodipodi:nodetypes="cc" /><path
       style="fill:none;stroke:#95fc04;stroke-width:4.603;stroke-linecap:round;stroke-linejoin:round;stroke-dasharray:none;stroke-opacity:1;paint-order:stroke markers fill"
       d="m 105.69589,78.543775 h 28.67342"
       id="path22-3"
       sodipodi:nodetypes="cc" /><path
       style="fill:none;stroke:#95fc04;stroke-width:4.603;stroke-linecap:round;stroke-linejoin:round;stroke-dasharray:none;stroke-opacity:1;paint-order:stroke markers fill"
       d="m 109.00587,89.223805 36.72676,0.0885"
       id="path22-2"
       sodipodi:nodetypes="cc" /><path
       style="fill:none;stroke:#95fc04;stroke-width:1.503;stroke-linecap:round;stroke-linejoin:round;stroke-dasharray:none;paint-order:stroke markers fill"
       d="m 37.27657,118.38337 c 4.15504,0.73103 6.63001,8.10101 7.53701,10.30927 0.64286,2.01174 -0.23912,1.85829 -0.77364,1.97144 l -7.98624,-0.48721 -3.92521,-0.72585 c 0,0 -1.88206,-1.57315 -1.90271,-1.76996 -0.0733,-0.69863 0.177,-8.58433 0.177,-8.58433 0.902,-0.41821 1.68602,4.70883 2.51238,7.84552 l 5.4681,0.32714 2.15701,-0.74909 -0.096,-0.2081 c -1.51202,0.18526 -2.23827,-1.10119 -3.18966,-1.32275 z"
       id="path1"
       sodipodi:nodetypes="cccccsccccccc" /><path
       style="fill:none;stroke:#95fc04;stroke-width:1.503;stroke-linecap:round;stroke-linejoin:round;stroke-dasharray:none;paint-order:stroke markers fill"
       d="m 23.20057,118.3685 c -4.15503,0.73103 -6.63,8.10101 -7.537,10.30927 -0.64287,2.01174 0.23912,1.85829 0.77364,1.97144 l 7.98623,-0.48721 3.92522,-0.72585 c 0,0 1.88205,-1.57315 1.90271,-1.76996 0.0733,-0.69863 -0.177,-8.58433 -0.177,-8.58433 -0.902,-0.41821 -1.68602,4.70883 -2.51238,7.84552 l -5.4681,0.32714 -2.15701,-0.74909 0.096,-0.2081 c 1.51202,0.18526 2.23827,-1.10119 3.18965,-1.32275 z"
       id="path1-6"
       sodipodi:nodetypes="cccccsccccccc" /><path
       style="fill:none;stroke:#95fc04;stroke-width:1.503;stroke-linecap:round;stroke-linejoin:round;stroke-dasharray:none;paint-order:stroke markers fill"
       d="m 36.81397,139.38716 c 1.27479,4.38664 -0.27991,15.98393 -1.49184,26.70769 -1.94736,0.33573 -3.39367,-0.33066 -4.75835,-1.16029 0.32654,-1.48108 0.0358,-2.34146 0.0592,-3.93314 0.0583,-3.96227 0.56364,-9.38637 0.66978,-10.78348 0.23288,-3.06548 -2.95782,-2.51119 -4.1871,-1.43745 -4.42778,0.49869 -7.12585,-0.24883 -13.29612,3.36117 l 2.07717,-0.88964 -2.24735,5.11239 c -4.93909,1.91859 -6.49415,-2.06606 -4.22275,-4.39121 6.34734,-8.77151 13.41501,-8.07208 15.74896,-12.97132 z"
       id="path1-5"
       sodipodi:nodetypes="cccssccccccc" /><path
       style="fill:none;stroke:#95fc04;stroke-width:1.503;stroke-linecap:round;stroke-linejoin:round;stroke-dasharray:none;paint-order:stroke markers fill"
       d="m 23.76541,139.71681 c 0.81786,-3.15816 1.09504,-6.32598 0.2655,-9.51356"
       id="path2"
       sodipodi:nodetypes="cc" /><path
       style="fill:none;stroke:#95fc04;stroke-width:1.503;stroke-linecap:round;stroke-linejoin:round;stroke-dasharray:none;paint-order:stroke markers fill"
       d="m 36.28791,130.55725 c -0.68275,3.37244 -0.56712,6.25166 0.51993,8.7392"
       id="path3"
       sodipodi:nodetypes="cc" /><path
       style="fill:none;stroke:#95fc04;stroke-width:1.503;stroke-linecap:round;stroke-linejoin:round;stroke-dasharray:none;paint-order:stroke markers fill"
       d="m 35.77904,134.71667 -10.95165,-3e-5"
       id="path5"
       sodipodi:nodetypes="cc" /><path
       style="fill:none;stroke:#95fc04;stroke-width:1.503;stroke-linecap:round;stroke-linejoin:round;stroke-dasharray:none;paint-order:stroke markers fill"
       d="m 23.31288,118.32571 4.44231,-0.74817"
       id="path6"
       sodipodi:nodetypes="cc" /><path
       style="fill:none;stroke:#95fc04;stroke-width:1.503;stroke-linecap:round;stroke-linejoin:round;stroke-dasharray:none;paint-order:stroke markers fill"
       d="m 37.21737,118.36037 -4.59163,-0.82555"
       id="path7"
       sodipodi:nodetypes="cc" /><path
       style="fill:none;stroke:#95fc04;stroke-width:1.503;stroke-linecap:round;stroke-linejoin:round;stroke-dasharray:none;paint-order:stroke markers fill"
       d="m 27.75366,103.52443 c -0.46958,-4.324302 5.98516,-3.780862 5.01464,0.18254"
       id="path8"
       sodipodi:nodetypes="cc" /><path
       style="fill:none;stroke:#95fc04;stroke-width:1.503;stroke-linecap:round;stroke-linejoin:round;stroke-dasharray:none;paint-order:stroke markers fill"
       d="m 26.07308,109.29087 c -0.42528,-8.81602 8.8498,-7.93348 8.56354,-0.337"
       id="path9"
       sodipodi:nodetypes="cc" /><path
       style="fill:none;stroke:#95fc04;stroke-width:1.503;stroke-linecap:round;stroke-linejoin:round;stroke-dasharray:none;paint-order:stroke markers fill"
       d="m 12.74739,156.66421 c 4.90435,-1.42096 10.11296,-2.71746 14.4252,-4.38065 0.62743,1.53565 1.09327,2.0918 1.82528,4.28111 -0.42122,2.34131 0.94089,2.16786 1.51553,2.54431"
       id="path10"
       sodipodi:nodetypes="cccc" /><path
       style="fill:none;stroke:#95fc04;stroke-width:1.503;stroke-linecap:round;stroke-linejoin:round;stroke-dasharray:none;paint-order:stroke markers fill"
       d="m 30.58759,164.80084 c -0.40516,2.87293 -1.21083,5.7141 -1.10154,12.9255 l -1.60547,3.0094 c 0.21231,1.95714 0.0265,3.76114 -0.13275,5.57538 0.27537,0.87175 1.27343,1.08273 3.00894,0.61949 0.62899,-0.44523 1.2026,-1.07506 1.76997,-1.72571 -0.97488,-1.01115 -1.32496,-2.78855 -1.19473,-5.15502 1.56651,-4.84381 3.19778,-9.69572 3.84967,-14.42521"
       id="path23"
       sodipodi:nodetypes="cccccccc" /><path
       style="fill:none;stroke:#95fc04;stroke-width:1.503;stroke-linecap:round;stroke-linejoin:round;stroke-dasharray:none;paint-order:stroke markers fill"
       d="m 27.89164,114.21827 0.12375,3.78722 c 0.0666,2.03719 4.28928,2.16981 4.38747,-0.0347 l 0.16812,-3.77462"
       id="path24"
       sodipodi:nodetypes="cssc" /><path
       style="fill:none;stroke:#95fc04;stroke-width:1.503;stroke-linecap:round;stroke-linejoin:round;stroke-dasharray:none;paint-order:stroke markers fill"
       d="m 26.06637,109.31767 c 1.18365,8.3498 7.66826,7.02572 8.54767,0.10104 0.48722,-3.83653 -7.82214,-6.2885 -8.54767,-0.10104 z"
       id="path25"
       sodipodi:nodetypes="csc"
       inkscape:export-filename="Activeyoga.svg"
       inkscape:export-xdpi="96"
       inkscape:export-ydpi="96" /><path
       style="fill:#95fc04;fill-opacity:1;stroke:#95fc04;stroke-width:1.503;stroke-linecap:round;stroke-linejoin:miter;stroke-dasharray:none;stroke-opacity:1;paint-order:stroke markers fill"
       d="m 173.44645,183.04481 c -17.07623,-7.62779 -18.31721,-20.94181 -15.58914,-30.35931 1.96428,-6.7808 4.87675,-11.69572 3.19939,-15.26151 2.2512,0.54871 4.90052,3.29577 6.81436,7.30111 11.68422,-12.8354 -2.58874,-25.78139 16.04456,-34.60726 -5.31804,21.06118 11.2927,14.90738 15.6378,40.27114 1.87278,-1.17563 3.82898,-3.53567 4.33641,-9.02681 1.12618,1.81988 13.13423,31.59891 -12.38974,41.41716 12.06299,-8.40225 3.05318,-26.8592 3.05318,-26.8592 -0.47642,4.2022 -0.56109,6.64933 -1.79208,7.83208 -1.84093,-14.26749 -12.35236,-10.55205 -8.65071,-23.98302 -12.6044,4.10682 -5.39839,13.8721 -10.31004,19.86785 -1.6457,-2.32656 -1.50341,-2.65929 -5.70814,-4.33641 4.80674,2.77719 -9.99413,15.96953 5.35415,27.74418 z"
       id="path26"
       sodipodi:nodetypes="cscccccccccccc"
       inkscape:export-filename="Activefire.svg"
       inkscape:export-xdpi="96"
       inkscape:export-ydpi="96" /><path
       style="fill:none;fill-opacity:1;stroke:#95fc04;stroke-width:3.103;stroke-linecap:round;stroke-linejoin:miter;stroke-dasharray:none;stroke-opacity:1;paint-order:stroke markers fill"
       d="m 121.74212,166.29851 c -2.73803,3.55015 -5.53247,8.22634 -16.84081,10.82196 -4.86092,1.11573 -23.857954,-0.12281 -28.298878,-1.17784 -9.751729,-2.31674 -16.827502,-6.1997 -16.928492,-8.54655 -0.278232,-6.46567 6.418333,-19.64099 16.098238,-30.95238 6.026129,-7.04179 13.009788,-12.90385 19.295975,-17.23087 3.43346,-2.36338 5.179507,-4.19045 8.306597,-3.59144 0.88918,0.13083 2.78606,2.16597 5.03343,3.81239 2.7305,2.00036 5.06737,5.11392 3.945,8.22921 -0.633,1.75699 -1.62173,5.55414 -5.19003,6.11979 l -12.320961,0.42434 c -3.886871,9.70311 -6.429094,22.43167 -11.989335,28.3697"
       id="path27"
       sodipodi:nodetypes="cssssscssccc" /><path
       style="fill:none;fill-opacity:1;stroke:#95fc04;stroke-width:3.103;stroke-linecap:round;stroke-linejoin:miter;stroke-dasharray:none;stroke-opacity:1;paint-order:stroke markers fill"
       d="m 133.51041,137.67979 c -4.67589,-0.98781 -17.65259,-1.22105 -25.93107,11.35258 -6.18278,-1.58004 -12.426689,-1.6319 -18.844182,2.65593"
       id="path28"
       sodipodi:nodetypes="ccc" /><path
       style="fill:none;fill-opacity:1;stroke:#95fc04;stroke-width:3.103;stroke-linecap:round;stroke-linejoin:miter;stroke-dasharray:none;stroke-opacity:1;paint-order:stroke markers fill"
       d="m 110.99394,162.67291 c 3.65773,0.54434 12.58354,2.70079 22.53925,13.68987"
       id="path29"
       sodipodi:nodetypes="cc" /><path
       style="fill:none;stroke:#95fc04;stroke-width:6.06449;stroke-linecap:round;stroke-linejoin:miter;stroke-miterlimit:4;stroke-dasharray:none;stroke-opacity:1"
       d="m 65.351204,235.96993 10.972452,23.17361"
       id="path5059"
       inkscape:export-xdpi="95.800003"
       inkscape:export-ydpi="95.800003"
       inkscape:export-filename="Activeplus.svg"
       sodipodi:nodetypes="cc" /><path
       inkscape:export-ydpi="95.800003"
       inkscape:export-xdpi="95.800003"
       id="path5059-8"
       d="m 41.531497,256.00703 -6.608149,3.59523"
       style="fill:none;stroke:#95fc04;stroke-width:6.06449;stroke-linecap:round;stroke-linejoin:miter;stroke-miterlimit:4;stroke-dasharray:none;stroke-opacity:1"
       sodipodi:nodetypes="cc" /><path
       inkscape:export-ydpi="95.800003"
       inkscape:export-xdpi="95.800003"
       id="path5059-8-4"
       d="m 65.156317,244.51744 -11.47555,5.3652"
       style="fill:none;stroke:#95fc04;stroke-width:6.06449;stroke-linecap:round;stroke-linejoin:miter;stroke-miterlimit:4;stroke-dasharray:none;stroke-opacity:1"
       sodipodi:nodetypes="cc" /><path
       inkscape:export-ydpi="95.800003"
       inkscape:export-xdpi="95.800003"
       id="path5059-97"
       d="m 24.793912,246.21084 15.239349,32.43808"
       style="fill:none;stroke:#95fc04;stroke-width:6.06449;stroke-linecap:round;stroke-linejoin:miter;stroke-miterlimit:4;stroke-dasharray:none;stroke-opacity:1" /><path
       inkscape:export-ydpi="95.800003"
       inkscape:export-xdpi="95.800003"
       id="path5059-3"
       d="m 69.045524,222.95112 15.239362,32.43807"
       style="fill:none;stroke:#95fc04;stroke-width:6.06449;stroke-linecap:round;stroke-linejoin:miter;stroke-miterlimit:4;stroke-dasharray:none;stroke-opacity:1" /><path
       inkscape:export-ydpi="95.800003"
       inkscape:export-xdpi="95.800003"
       id="path5059-67"
       d="m 16.920056,250.05648 15.239343,32.43807"
       style="fill:none;stroke:#95fc04;stroke-width:6.06449;stroke-linecap:round;stroke-linejoin:miter;stroke-miterlimit:4;stroke-dasharray:none;stroke-opacity:1" /><path
       inkscape:export-ydpi="95.800003"
       inkscape:export-xdpi="95.800003"
       id="path5059-87"
       d="m 77.777669,224.17042 10.4625,22.2702"
       style="fill:none;stroke:#95fc04;stroke-width:5.02491;stroke-linecap:round;stroke-linejoin:miter;stroke-miterlimit:4;stroke-dasharray:none;stroke-opacity:1" /><path
       style="fill:none;stroke:#95fc04;stroke-width:5.02491;stroke-linecap:round;stroke-linejoin:miter;stroke-miterlimit:4;stroke-dasharray:none;stroke-opacity:1"
       d="M 12.931504,258.05111 23.394,280.32131"
       id="path5059-87-5"
       inkscape:export-xdpi="95.800003"
       inkscape:export-ydpi="95.800003" /><path
       style="fill:none;fill-opacity:1;stroke:#95fc04;stroke-width:7.68815;stroke-linecap:round;stroke-linejoin:miter;stroke-dasharray:none;stroke-opacity:1;paint-order:stroke markers fill"
       d="m 47.609313,206.43597 -16.430893,28.2078 9.923507,0.0835 -0.05957,47.12495 13.113588,-0.0524 0.0042,-47.11425 9.823935,-0.0143 z"
       id="path30"
       sodipodi:nodetypes="cccccccc" /><path
       style="fill:none;stroke:#95fc04;stroke-width:1.503;stroke-linecap:square;stroke-linejoin:miter;stroke-dasharray:none;paint-order:stroke markers fill"
       d="m 170.09013,199.31193 c -2.95705,-2.7281 -14.32391,2.55547 -15.9289,2.9279 -3.33145,0.65728 -3.09656,2.08779 -2.8343,3.78259 0.72391,4.90926 0.93086,5.91713 1.74405,10.93797 0.07,0.47263 -0.001,1.66321 0.9071,1.72571 0.70081,0.0482 8.29671,0 8.29671,0 0.30327,-0.19079 1.10713,-0.99961 0.34551,-1.46538 -1.10631,-0.67656 -4.40845,-1.17707 -6.26619,-1.66649 l -0.32714,-9.2514 -1.92373,3e-4 c 0.55653,-0.037 8.60407,-0.0164 13.57133,-1.34198 1.9769,-1.75557 3.31573,-3.63757 2.41556,-5.64922 z"
       id="path1-56"
       sodipodi:nodetypes="ccccscsccccc"
       inkscape:export-filename="Activeplank.svg"
       inkscape:export-xdpi="95.800003"
       inkscape:export-ydpi="95.800003" /><path
       style="fill:none;stroke:#95fc04;stroke-width:1.503;stroke-linecap:round;stroke-linejoin:round;stroke-dasharray:none;paint-order:stroke markers fill"
       d="m 120.36187,208.14106 c -3.71773,-0.37707 -9.53134,0.9918 -16.21083,1.28927 -3.07652,3.90872 -5.224466,4.27218 -5.481216,6.73684 0.79428,1.69183 -1.562,4.23221 -2.49343,0.99319 -0.8584,-2.2191 0.72896,-4.44849 1.06872,-5.4636 0.30877,-0.92251 0.16367,-2.11017 0.22523,-3.02304 -0.13089,-1.34049 0.0271,-1.86643 3.966046,-0.93291 3.3297,-2.11159 13.49226,-4.98431 19.0716,-4.35029"
       id="path23-3"
       sodipodi:nodetypes="ccccsccc" /><path
       style="fill:none;fill-opacity:1;stroke:#95fc04;stroke-width:1.503;stroke-linecap:round;stroke-linejoin:miter;stroke-dasharray:none;stroke-opacity:1;paint-order:stroke markers fill"
       d="m 120.67881,203.34981 0.002,4.72504 c 9.54886,3.02417 15.83786,-0.80528 24.06393,-0.31688 l 0.10812,-7.28055 c -6.22604,-5.87355 -9.00005,-0.60004 -11.79424,0.26909 -4.2522,1.09704 -10.31685,3.22106 -12.37971,2.6033 z"
       id="path31"
       sodipodi:nodetypes="cccccc" /><path
       style="fill:none;fill-opacity:1;stroke:#95fc04;stroke-width:1.503;stroke-linecap:square;stroke-linejoin:miter;stroke-dasharray:none;stroke-opacity:1;paint-order:stroke markers fill"
       d="m 156.5975,209.28884 c 6.40029,1.31374 5.21447,0.58617 10.89167,-4.22177"
       id="path32"
       sodipodi:nodetypes="cc" /><path
       style="fill:none;fill-opacity:1;stroke:#95fc04;stroke-width:1.503;stroke-linecap:square;stroke-linejoin:miter;stroke-dasharray:none;stroke-opacity:1;paint-order:stroke markers fill"
       d="m 145.14893,200.43632 c 1.44782,0.57382 2.96478,0.75868 4.64766,0.0103 17.87341,-6.19918 19.96555,-2.86371 20.45673,-1.04914"
       id="path33"
       sodipodi:nodetypes="ccc" /><path
       style="fill:none;fill-opacity:1;stroke:#95fc04;stroke-width:1.503;stroke-linecap:square;stroke-linejoin:miter;stroke-dasharray:none;stroke-opacity:1;paint-order:stroke markers fill"
       d="m 144.86734,207.66404 c 0.0521,0 0.10429,0 0.15644,0"
       id="path34" /><path
       style="fill:none;fill-opacity:1;stroke:#95fc04;stroke-width:1.503;stroke-linecap:square;stroke-linejoin:miter;stroke-dasharray:none;stroke-opacity:1;paint-order:stroke markers fill"
       d="m 151.37541,209.13462 c -1.76205,-0.7465 -2.9989,-0.99661 -5.87384,-1.34162"
       id="path35"
       sodipodi:nodetypes="cc" /><path
       style="fill:none;fill-opacity:1;stroke:#95fc04;stroke-width:1.503;stroke-linecap:square;stroke-linejoin:miter;stroke-dasharray:none;stroke-opacity:1;paint-order:stroke markers fill"
       d="m 149.70035,201.58012 -0.36597,6.4916"
       id="path36"
       sodipodi:nodetypes="cc" /><path
       style="fill:none;fill-opacity:1;stroke:#95fc04;stroke-width:1.503;stroke-linecap:square;stroke-linejoin:miter;stroke-dasharray:none;stroke-opacity:1;paint-order:stroke markers fill"
       d="m 168.49296,204.68244 3.94267,0.16528"
       id="path37"
       sodipodi:nodetypes="cc" /><path
       style="fill:none;fill-opacity:1;stroke:#95fc04;stroke-width:1.503;stroke-linecap:square;stroke-linejoin:miter;stroke-dasharray:none;stroke-opacity:1;paint-order:stroke markers fill"
       d="m 170.64934,200.34246 1.65831,0.15644"
       id="path38" /><path
       style="fill:none;fill-opacity:1;stroke:#95fc04;stroke-width:1.503;stroke-linecap:square;stroke-linejoin:miter;stroke-dasharray:none;stroke-opacity:1;paint-order:stroke markers fill"
       d="m 175.10597,197.83935 c 3.01221,2.18088 5.89414,4.68748 8.79309,7.15153"
       id="path39"
       sodipodi:nodetypes="cc" /><path
       style="fill:none;fill-opacity:1;stroke:#95fc04;stroke-width:1.503;stroke-linecap:square;stroke-linejoin:miter;stroke-dasharray:none;stroke-opacity:1;paint-order:stroke markers fill"
       d="m 178.06322,195.25913 c 0.44702,-5.85061 7.05178,-3.37552 5.63357,0.73418"
       id="path40"
       sodipodi:nodetypes="cc" /><path
       style="fill:none;fill-opacity:1;stroke:#95fc04;stroke-width:1.503;stroke-linecap:square;stroke-linejoin:miter;stroke-dasharray:none;stroke-opacity:1;paint-order:stroke markers fill"
       d="m 181.46602,206.24813 -1.50447,1.76996 -1.23897,-1.06197 c -5.83101,2.78269 -8.80188,-5.92685 -3.01898,-9.99329 3.33233,-2.34324 6.05451,-1.68643 8.09077,-0.0388 2.8008,2.2662 3.40559,8.20216 -2.32835,9.32413 z"
       id="path41"
       sodipodi:nodetypes="cccssc" /><path
       style="fill:none;fill-opacity:1;stroke:#95fc04;stroke-width:2.203;stroke-linecap:round;stroke-linejoin:round;stroke-dasharray:none;stroke-opacity:1;paint-order:stroke markers fill"
       d="m 137.84455,238.81015 -1.95377,-1.11606"
       id="path47-4-0"
       sodipodi:nodetypes="cc"
       inkscape:export-filename="ActiveMed.svg"
       inkscape:export-xdpi="95.800003"
       inkscape:export-ydpi="95.800003" /><path
       style="fill:none;fill-opacity:1;stroke:#95fc04;stroke-width:2.203;stroke-linecap:round;stroke-linejoin:round;stroke-dasharray:none;stroke-opacity:1;paint-order:stroke markers fill"
       d="m 138.03045,221.46655 -2.15715,1.18367"
       id="path47-9"
       sodipodi:nodetypes="cc" /><path
       style="fill:none;fill-opacity:1;stroke:#95fc04;stroke-width:2.203;stroke-linecap:round;stroke-linejoin:round;stroke-dasharray:none;stroke-opacity:1;paint-order:stroke markers fill"
       d="m 140.89577,230.18916 -3.91605,-0.0442"
       id="path47-0-1"
       sodipodi:nodetypes="cc" /><path
       style="fill:none;fill-opacity:1;stroke:#95fc04;stroke-width:2.203;stroke-linecap:round;stroke-linejoin:round;stroke-dasharray:none;stroke-opacity:1;paint-order:stroke markers fill"
       d="m 111.66006,238.75748 1.95377,-1.11606"
       id="path47-4"
       sodipodi:nodetypes="cc" /><path
       style="fill:none;fill-opacity:1;stroke:#95fc04;stroke-width:2.103;stroke-linecap:square;stroke-linejoin:round;stroke-dasharray:none;stroke-opacity:1;paint-order:stroke markers fill"
       d="m 127.25976,238.97672 c 4.21898,-2.46364 6.26532,-14.93889 -2.46628,-15.43807 -6.32329,-0.3615 -8.74258,9.23402 -2.47796,15.73576 0.23751,2.97664 -1.77016,4.38121 -5.02423,4.69759 -1.92393,0.41491 -2.46061,1.91567 -3.53511,5.05157 -0.94426,2.7558 -2.12088,6.84826 -3.02319,9.86929 l -7.81369,0.0865 0.41556,5.818 12.49847,-0.82219 1.90654,-7.32061 -1.92502,7.32124 -11.14399,3.41293 c -0.98136,-0.0756 -5.883676,4.95109 2.53509,7.32154 11.9073,1.47734 26.17364,3.43035 28.83754,8.51965 2.20287,2.7619 4.05945,-0.34722 2.08491,-7.90703 -0.20084,-0.76891 -0.98225,-2.84519 -3.21433,-2.07395 -8.64187,-2.30683 -12.81959,-3.77732 -13.2691,-4.38393 1.2629,0.045 0.13217,1.01336 3.10699,0.88909 2.08016,-0.0869 1.80411,-0.66578 3.15136,-1.21728 -1.091,1.25924 -5.03109,1.92483 -3.54663,1.23045 -0.25713,0.24977 6.8415,2.86638 10.54324,3.46988 1.47384,-0.75168 2.79538,0.71108 3.22207,2.09959 12.61377,-0.28014 8.43972,-7.28647 8.22653,-7.93689 l -12.42599,-2.7796 -2.02345,-8.00081 2.0441,7.96854 12.86011,0.22382 0.34181,-5.92769 -8.01115,0.0649 -3.60797,-11.19872 c -0.51743,-1.73734 -1.15803,-3.32307 -2.74477,-3.74433 -5.33823,-0.43777 -5.41611,-2.62915 -5.52146,-5.02925 z"
       id="path42"
       sodipodi:nodetypes="csccscccccccccsccsccccccccccccccc" /><path
       style="fill:none;fill-opacity:1;stroke:#95fc04;stroke-width:1.503;stroke-linecap:square;stroke-linejoin:round;stroke-dasharray:none;stroke-opacity:1;paint-order:stroke markers fill"
       d="m 111.45085,275.42004 c -0.53471,1.67085 -1.12239,6.56562 -0.40164,7.88161 0.50085,0.91448 2.31908,1.17628 3.31645,-0.93902 0.7949,-1.6859 5.67724,-3.7589 9.74153,-4.61158"
       id="path43"
       sodipodi:nodetypes="cssc" /><path
       style="fill:none;fill-opacity:1;stroke:#95fc04;stroke-width:1.503;stroke-linecap:square;stroke-linejoin:round;stroke-dasharray:none;stroke-opacity:1;paint-order:stroke markers fill"
       d="m 102.12654,259.04776 c -1.44329,-0.46033 -2.598946,-1.92735 -3.819956,-3.16564 -3.1395,1.1132 -3.37033,9.66427 5.014676,8.69678"
       id="path44"
       sodipodi:nodetypes="ccc" /><path
       style="fill:none;fill-opacity:1;stroke:#95fc04;stroke-width:1.503;stroke-linecap:square;stroke-linejoin:round;stroke-dasharray:none;stroke-opacity:1;paint-order:stroke markers fill"
       d="m 147.99568,259.04688 c 1.44329,-0.46033 2.59895,-1.92735 3.81996,-3.16564 3.1395,1.1132 3.37033,9.66427 -5.01468,8.69678"
       id="path44-1"
       sodipodi:nodetypes="ccc" /><path
       style="fill:none;fill-opacity:1;stroke:#95fc04;stroke-width:1.503;stroke-linecap:square;stroke-linejoin:round;stroke-dasharray:none;stroke-opacity:1;paint-order:stroke markers fill"
       d="m 121.77314,238.58254 c 2.55992,2.39969 4.29621,1.33786 5.92938,0.0885"
       id="path45"
       sodipodi:nodetypes="cc" /><path
       style="fill:none;fill-opacity:1;stroke:#95fc04;stroke-width:2.203;stroke-linecap:round;stroke-linejoin:round;stroke-dasharray:none;stroke-opacity:1;paint-order:stroke markers fill"
       d="m 111.47416,221.41388 2.15715,1.18367"
       id="path47"
       sodipodi:nodetypes="cc" /><path
       style="fill:none;fill-opacity:1;stroke:#95fc04;stroke-width:2.203;stroke-linecap:round;stroke-linejoin:round;stroke-dasharray:none;stroke-opacity:1;paint-order:stroke markers fill"
       d="m 108.60884,230.13649 3.91605,-0.0442"
       id="path47-0"
       sodipodi:nodetypes="cc" /><path
       style="fill:none;fill-opacity:1;stroke:#95fc04;stroke-width:2.103;stroke-linecap:round;stroke-linejoin:round;stroke-dasharray:none;stroke-opacity:1;paint-order:stroke markers fill"
       d="m 164.07869,255.31695 c -4.38168,6.09024 -6.92337,15.72849 -4.0304,22.11319 2.44949,5.40593 9.04544,9.04488 22.00099,8.73667 9.70307,-0.23083 15.96303,-2.16861 19.32017,-6.32621 4.956,-6.13768 3.58579,-16.15369 -2.37241,-24.83654 2.98471,-7.68909 8.69506,-10.79614 7.97357,-19.55978 -1.80437,-8.63869 -7.16099,-9.76177 -10.89022,-10.71487 l -28.87577,-0.0711 c -6.32247,1.41642 -10.54084,5.88225 -10.98144,11.03494 -0.24231,2.86305 0.0668,6.43504 7.85551,19.6237 z"
       id="path51"
       sodipodi:nodetypes="cssscccccc"
       inkscape:export-filename="Activebell.svg"
       inkscape:export-xdpi="95.800003"
       inkscape:export-ydpi="95.800003" /><path
       style="fill:none;fill-opacity:1;stroke:#95fc04;stroke-width:2.103;stroke-linecap:round;stroke-linejoin:round;stroke-dasharray:none;stroke-opacity:1;paint-order:stroke markers fill"
       d="m 170.02357,249.74754 c -5.35424,-6.03366 -7.39847,-9.91397 -7.24188,-12.94299 0.20448,-3.9555 3.58428,-5.79333 5.87197,-5.80794 l 26.65031,-0.17013 c 1.16075,-0.007 5.56949,2.58031 5.54238,6.46346 -0.0333,4.77327 -5.41437,9.68377 -7.16842,12.39502 -4.76845,-3.27866 -14.88317,-6.61357 -23.65436,0.0626 z"
       id="path52"
       sodipodi:nodetypes="csssscc" /><ellipse
       style="fill:none;fill-opacity:1;stroke:#95fc04;stroke-width:1.93753;stroke-linecap:round;stroke-linejoin:round;stroke-dasharray:none;stroke-opacity:1;paint-order:stroke markers fill"
       id="path53"
       cx="181.64258"
       cy="265.84866"
       rx="10.658272"
       ry="10.702521" /></g></svg>
