<?xml version="1.0" encoding="UTF-8" standalone="no"?>
<!-- Created with Inkscape (http://www.inkscape.org/) -->

<svg
   width="79.964378mm"
   height="89.031067mm"
   viewBox="0 0 79.964378 89.031067"
   version="1.1"
   id="svg1"
   xml:space="preserve"
   inkscape:version="1.3.2 (091e20e, 2023-11-25, custom)"
   sodipodi:docname="vascula.svg"
   xmlns:inkscape="http://www.inkscape.org/namespaces/inkscape"
   xmlns:sodipodi="http://sodipodi.sourceforge.net/DTD/sodipodi-0.dtd"
   xmlns="http://www.w3.org/2000/svg"
   xmlns:svg="http://www.w3.org/2000/svg"><sodipodi:namedview
     id="namedview1"
     pagecolor="#ffffff"
     bordercolor="#000000"
     borderopacity="0.25"
     inkscape:showpageshadow="2"
     inkscape:pageopacity="0.0"
     inkscape:pagecheckerboard="0"
     inkscape:deskcolor="#d1d1d1"
     inkscape:document-units="mm"
     inkscape:zoom="0.37371283"
     inkscape:cx="2104.5571"
     inkscape:cy="512.42555"
     inkscape:window-width="2560"
     inkscape:window-height="1017"
     inkscape:window-x="1912"
     inkscape:window-y="564"
     inkscape:window-maximized="1"
     inkscape:current-layer="layer1" /><defs
     id="defs1" /><g
     inkscape:label="Layer 1"
     inkscape:groupmode="layer"
     id="layer1"
     transform="translate(-16.466767,-300.32296)"><path
       style="fill:none;fill-opacity:1;stroke:#1e3050;stroke-width:2.603;stroke-linecap:round;stroke-linejoin:round;stroke-dasharray:none;stroke-opacity:1;paint-order:stroke markers fill"
       d="m 69.691776,314.4004 7.52497,-0.0156 c 3.72313,0.0364 2.77521,-5.52144 0.17209,-5.38167 l -10.31366,-0.15823 c -1.54159,-0.12759 -2.87296,1.48715 -2.88866,2.56634 l -0.0616,7.5843 c -0.0335,4.11874 3.47809,7.5201 7.10667,10.11411 3.52612,9.76371 -0.99564,20.37194 3.49773,31.4731 -1.98861,-2.0641 -4.29561,-3.59764 -7.19643,-5.41295 l -0.11442,25.22287 c 11.5119,-0.96621 26.53526,0.50236 27.71118,-12.17543 -0.38688,-20.53574 -3.75634,-29.75288 -6.99103,-41.12688 3.17883,-7.03992 2.71444,-14.95743 2.67317,-20.26183 -0.27712,-2.48928 -2.88885,-2.84457 -5.35674,-1.53506 -1.44895,-2.24533 -3.40324,-2.63234 -5.76645,-1.5156 -0.7054,-1.87589 -4.30575,-3.38715 -5.84319,-0.0625 -0.0167,-1.1559 -1.37329,-2.12002 -2.82445,-2.09019 -1.16775,0.024 -2.28679,0.47347 -2.55723,2.098 l -0.0626,4.70896 9.02653,0.0905 c 1.635,0.0673 2.07357,1.61788 1.9713,3.74605 -0.077,1.60194 -1.49369,2.1786 -2.17564,2.14219 z"
       id="path16-8"
       sodipodi:nodetypes="cccccsccccccccccscccscc" /><path
       style="fill:none;fill-opacity:1;stroke:#1e3050;stroke-width:2.603;stroke-linecap:round;stroke-linejoin:round;stroke-dasharray:none;stroke-opacity:1;paint-order:stroke markers fill"
       d="m 73.978346,303.51188 -0.0626,4.69333"
       id="path17-55" /><path
       style="fill:none;fill-opacity:1;stroke:#1e3050;stroke-width:2.603;stroke-linecap:round;stroke-linejoin:round;stroke-dasharray:none;stroke-opacity:1;paint-order:stroke markers fill"
       d="m 79.360026,303.82477 0.31289,9.88727"
       id="path18-3" /><path
       style="fill:none;fill-opacity:1;stroke:#1e3050;stroke-width:2.603;stroke-linecap:round;stroke-linejoin:round;stroke-dasharray:none;stroke-opacity:1;paint-order:stroke markers fill"
       d="m 85.242326,305.26406 -0.0626,8.6983 c 1.52945,2.81591 4.20702,2.42127 5.38169,0.15644"
       id="path19-4"
       sodipodi:nodetypes="ccc" /><path
       style="fill:none;fill-opacity:1;stroke:#1e3050;stroke-width:2.603;stroke-linecap:round;stroke-linejoin:round;stroke-dasharray:none;stroke-opacity:1;paint-order:stroke markers fill"
       d="m 84.679126,314.30653 c -1.3092,1.98036 -3.71339,2.40413 -5.28781,-0.62577"
       id="path20-1"
       sodipodi:nodetypes="cc" /><path
       style="fill:none;fill-opacity:1;stroke:#1e3050;stroke-width:3.99801;stroke-linecap:square;stroke-linejoin:round;stroke-dasharray:none;stroke-opacity:1;paint-order:stroke markers fill"
       d="m 50.521756,354.92063 -8.76085,3.50435 c -15.28186,-9.79822 -23.25712,2.44984 -23.29507,10.65223 -0.0161,3.46995 3.91053,18.32875 21.48029,11.06223 l 10.88855,2.19022 z"
       id="path47-4"
       sodipodi:nodetypes="ccsccc" /><path
       style="fill:none;fill-opacity:1;stroke:#1e3050;stroke-width:3.99801;stroke-linecap:round;stroke-linejoin:miter;stroke-dasharray:none;stroke-opacity:1;paint-order:stroke markers fill"
       d="m 41.009966,368.12453 c 3.52095,2.11068 6.65799,2.92564 9.5118,2.7847"
       id="path48-1"
       sodipodi:nodetypes="cc" /><path
       style="fill:none;fill-opacity:1;stroke:#1e3050;stroke-width:3.99801;stroke-linecap:round;stroke-linejoin:miter;stroke-dasharray:none;stroke-opacity:1;paint-order:stroke markers fill"
       d="m 68.292746,367.59385 4.63073,-1.56444"
       id="path49-2"
       sodipodi:nodetypes="cc" /><path
       style="fill:none;fill-opacity:1;stroke:#1e3050;stroke-width:3.58735;stroke-linecap:round;stroke-linejoin:round;stroke-dasharray:none;stroke-opacity:1;paint-order:stroke markers fill"
       d="m 45.829376,353.04989 c -0.83233,-12.64844 2.06028,-10.21403 3.00349,-7.84993 1.07298,2.68939 1.58613,7.12587 1.71528,9.54424 l 1.68895,31.62511"
       id="path22-6-7-4-8"
       sodipodi:nodetypes="cssc" /><path
       style="fill:none;fill-opacity:1;stroke:#1e3050;stroke-width:3.58735;stroke-linecap:round;stroke-linejoin:round;stroke-dasharray:none;stroke-opacity:1;paint-order:stroke markers fill"
       d="m 47.156306,343.27272 17.47186,0.69216 c 3.13059,-1.80181 2.1505,23.28918 2.63026,43.5491"
       id="path23-2-9-3-3"
       sodipodi:nodetypes="ccc" /><path
       style="fill:none;fill-opacity:1;stroke:#1e3050;stroke-width:3.58735;stroke-linecap:round;stroke-linejoin:round;stroke-dasharray:none;stroke-opacity:1;paint-order:stroke markers fill"
       d="m 52.385176,386.38375 14.82092,1.17659"
       id="path24-8-2-4-9"
       sodipodi:nodetypes="cc" /><path
       style="fill:none;fill-opacity:1;stroke:#1e3050;stroke-width:2.89827;stroke-linecap:round;stroke-linejoin:round;stroke-dasharray:none;stroke-opacity:1;paint-order:stroke markers fill"
       d="m 58.822766,351.18734 7.75927,-0.0744"
       id="path25-2-4-49-6"
       sodipodi:nodetypes="cc" /><path
       style="fill:none;fill-opacity:1;stroke:#1e3050;stroke-width:2.89827;stroke-linecap:round;stroke-linejoin:round;stroke-dasharray:none;stroke-opacity:1;paint-order:stroke markers fill"
       d="m 60.902046,357.04741 5.94087,-0.24861"
       id="path25-5-9-3-29-9"
       sodipodi:nodetypes="cc" /><path
       style="fill:none;fill-opacity:1;stroke:#1e3050;stroke-width:2.89827;stroke-linecap:round;stroke-linejoin:round;stroke-dasharray:none;stroke-opacity:1;paint-order:stroke markers fill"
       d="m 61.219096,370.04311 5.94088,-0.24858"
       id="path25-5-6-0-6-51-7"
       sodipodi:nodetypes="cc" /><path
       style="fill:none;fill-opacity:1;stroke:#1e3050;stroke-width:2.89827;stroke-linecap:round;stroke-linejoin:round;stroke-dasharray:none;stroke-opacity:1;paint-order:stroke markers fill"
       d="m 60.996086,382.64291 5.94087,-0.24859"
       id="path25-5-6-8-7-7-5-4"
       sodipodi:nodetypes="cc" /><path
       style="fill:none;fill-opacity:1;stroke:#1e3050;stroke-width:2.89827;stroke-linecap:round;stroke-linejoin:round;stroke-dasharray:none;stroke-opacity:1;paint-order:stroke markers fill"
       d="m 58.955646,363.31921 7.75927,-0.0744"
       id="path25-7-0-9-5-0"
       sodipodi:nodetypes="cc" /><path
       style="fill:none;fill-opacity:1;stroke:#1e3050;stroke-width:2.89827;stroke-linecap:round;stroke-linejoin:round;stroke-dasharray:none;stroke-opacity:1;paint-order:stroke markers fill"
       d="m 58.850136,377.06818 7.75927,-0.0744"
       id="path25-7-1-3-1-4-7"
       sodipodi:nodetypes="cc" /></g></svg>
