<?xml version="1.0" encoding="UTF-8" standalone="no"?>
<!-- Created with Inkscape (http://www.inkscape.org/) -->

<svg
   width="35.076576mm"
   height="81.31366mm"
   viewBox="0 0 35.076576 81.31366"
   version="1.1"
   id="svg1"
   xml:space="preserve"
   inkscape:version="1.3.2 (091e20e, 2023-11-25, custom)"
   sodipodi:docname="vascula.svg"
   xmlns:inkscape="http://www.inkscape.org/namespaces/inkscape"
   xmlns:sodipodi="http://sodipodi.sourceforge.net/DTD/sodipodi-0.dtd"
   xmlns="http://www.w3.org/2000/svg"
   xmlns:svg="http://www.w3.org/2000/svg"><sodipodi:namedview
     id="namedview1"
     pagecolor="#ffffff"
     bordercolor="#000000"
     borderopacity="0.25"
     inkscape:showpageshadow="2"
     inkscape:pageopacity="0.0"
     inkscape:pagecheckerboard="0"
     inkscape:deskcolor="#d1d1d1"
     inkscape:document-units="mm"
     inkscape:zoom="1.0570195"
     inkscape:cx="783.80768"
     inkscape:cy="526.48035"
     inkscape:window-width="2560"
     inkscape:window-height="1017"
     inkscape:window-x="1912"
     inkscape:window-y="564"
     inkscape:window-maximized="1"
     inkscape:current-layer="layer1" /><defs
     id="defs1" /><g
     inkscape:label="Layer 1"
     inkscape:groupmode="layer"
     id="layer1"
     transform="translate(-37.990571,-205.46972)"><path
       style="fill:none;fill-opacity:1;stroke:#1e3050;stroke-width:2.603;stroke-linecap:round;stroke-linejoin:round;stroke-dasharray:none;stroke-opacity:1;paint-order:stroke markers fill"
       d="m 48.948847,249.30872 c -0.13249,4.83806 -0.34643,10.74036 1.92952,16.36324 -1.98861,-2.0641 -4.29561,-3.59764 -7.19643,-5.41295 l -0.11442,25.22287 c 11.5119,-0.96621 26.53526,0.50236 27.71118,-12.17543 -0.2409,-12.78697 -0.94127,-18.80714 -2.74237,-26.07052 z"
       id="path16-7"
       sodipodi:nodetypes="ccccccc" /><path
       style="fill:none;fill-opacity:1;stroke:#1e3050;stroke-width:2.603;stroke-linecap:round;stroke-linejoin:round;stroke-dasharray:none;stroke-opacity:1;paint-order:stroke markers fill"
       d="m 50.364957,208.83647 -0.0626,4.69333"
       id="path17-2" /><path
       style="fill:none;fill-opacity:1;stroke:#1e3050;stroke-width:2.603;stroke-linecap:round;stroke-linejoin:round;stroke-dasharray:none;stroke-opacity:1;paint-order:stroke markers fill"
       d="m 55.746647,209.14936 0.31288,9.88727"
       id="path18-9" /><path
       style="fill:none;fill-opacity:1;stroke:#1e3050;stroke-width:2.603;stroke-linecap:round;stroke-linejoin:round;stroke-dasharray:none;stroke-opacity:1;paint-order:stroke markers fill"
       d="m 61.628947,210.58865 -0.0626,8.6983 c 1.52945,2.81591 4.20701,2.42127 5.38168,0.15644"
       id="path19-57"
       sodipodi:nodetypes="ccc" /><path
       style="fill:none;fill-opacity:1;stroke:#1e3050;stroke-width:2.603;stroke-linecap:round;stroke-linejoin:round;stroke-dasharray:none;stroke-opacity:1;paint-order:stroke markers fill"
       d="m 61.065747,219.63112 c -1.30921,1.98036 -3.7134,2.40413 -5.28782,-0.62577"
       id="path20-6"
       sodipodi:nodetypes="cc" /><path
       style="fill:none;fill-opacity:1;stroke:#1e3050;stroke-width:2.603;stroke-linecap:round;stroke-linejoin:round;stroke-dasharray:none;stroke-opacity:1;paint-order:stroke markers fill"
       d="m 46.073797,219.54715 7.52496,-0.0156 c 3.72314,0.0364 2.77522,-5.52144 0.17209,-5.38167 l -10.31366,-0.15823 c -1.54158,-0.12759 -2.87295,1.48715 -2.88865,2.56634 l -0.0616,7.5843 c -0.0335,4.11874 3.47809,7.5201 7.10666,10.11411 0.19643,0.5439 0.60255,2.26376 0.75198,2.81284 l 17.12353,-1.14942 c -0.15677,-0.54171 -0.81197,-3.13243 -0.96847,-3.68271 3.17883,-7.03992 2.71443,-14.95743 2.67316,-20.26183 -0.27711,-2.48928 -2.88885,-2.84457 -5.35673,-1.53506 -1.44896,-2.24533 -3.40325,-2.63234 -5.76645,-1.5156 -0.7054,-1.87589 -4.30575,-3.38715 -5.84319,-0.0625 -0.0167,-1.1559 -1.37329,-2.12002 -2.82446,-2.09019 -1.16774,0.024 -2.28678,0.47347 -2.55722,2.098 l -0.0626,4.70896 9.02653,0.0905 c 1.635,0.0673 2.07357,1.61788 1.9713,3.74605 -0.077,1.60194 -1.49369,2.1786 -2.17564,2.14219 z"
       id="path16-3"
       sodipodi:nodetypes="cccccsccccccccscccscc" /><path
       style="fill:none;fill-opacity:1;stroke:#1e3050;stroke-width:2.603;stroke-linecap:round;stroke-linejoin:round;stroke-dasharray:none;stroke-opacity:1;paint-order:stroke markers fill"
       d="m 50.360367,208.65863 -0.0626,4.69333"
       id="path17-5" /><path
       style="fill:none;fill-opacity:1;stroke:#1e3050;stroke-width:2.603;stroke-linecap:round;stroke-linejoin:round;stroke-dasharray:none;stroke-opacity:1;paint-order:stroke markers fill"
       d="m 55.742047,208.97152 0.31289,9.88727"
       id="path18-8" /><path
       style="fill:none;fill-opacity:1;stroke:#1e3050;stroke-width:2.603;stroke-linecap:round;stroke-linejoin:round;stroke-dasharray:none;stroke-opacity:1;paint-order:stroke markers fill"
       d="m 61.624347,210.41081 -0.0626,8.6983 c 1.52945,2.81591 4.20701,2.42127 5.38168,0.15644"
       id="path19-5"
       sodipodi:nodetypes="ccc" /><path
       style="fill:none;fill-opacity:1;stroke:#1e3050;stroke-width:2.603;stroke-linecap:round;stroke-linejoin:round;stroke-dasharray:none;stroke-opacity:1;paint-order:stroke markers fill"
       d="m 61.061147,219.45328 c -1.30921,1.98036 -3.7134,2.40413 -5.28781,-0.62577"
       id="path20-4"
       sodipodi:nodetypes="cc" /><path
       style="fill:none;fill-opacity:1;stroke:#1e3050;stroke-width:2.603;stroke-linecap:round;stroke-linejoin:round;stroke-dasharray:none;stroke-opacity:1;paint-order:stroke markers fill"
       d="m 42.497977,234.21965 c -4.62714,0.65851 -3.36404,1.9539 -1.64549,2.45175 1.955,0.56636 5.07756,0.56062 6.76742,0.44488 l 22.0984,-1.5135"
       id="path22"
       sodipodi:nodetypes="cssc" /><path
       style="fill:none;fill-opacity:1;stroke:#1e3050;stroke-width:2.603;stroke-linecap:round;stroke-linejoin:round;stroke-dasharray:none;stroke-opacity:1;paint-order:stroke markers fill"
       d="m 39.377517,235.58672 1.90495,13.00636 c -0.99599,2.49955 16.3475,-0.43643 30.45525,-1.85642"
       id="path23"
       sodipodi:nodetypes="ccc" /><path
       style="fill:none;fill-opacity:1;stroke:#1e3050;stroke-width:2.603;stroke-linecap:round;stroke-linejoin:round;stroke-dasharray:none;stroke-opacity:1;paint-order:stroke markers fill"
       d="m 69.740407,235.71226 2.02524,10.98119"
       id="path24" /><path
       style="fill:none;fill-opacity:1;stroke:#1e3050;stroke-width:2.103;stroke-linecap:round;stroke-linejoin:round;stroke-dasharray:none;stroke-opacity:1;paint-order:stroke markers fill"
       d="m 45.824537,243.61712 0.58088,5.80965"
       id="path25"
       sodipodi:nodetypes="cc" /><path
       style="fill:none;fill-opacity:1;stroke:#1e3050;stroke-width:2.103;stroke-linecap:round;stroke-linejoin:round;stroke-dasharray:none;stroke-opacity:1;paint-order:stroke markers fill"
       d="m 50.063317,244.65769 0.31167,4.46498"
       id="path25-5"
       sodipodi:nodetypes="cc" /><path
       style="fill:none;fill-opacity:1;stroke:#1e3050;stroke-width:2.103;stroke-linecap:round;stroke-linejoin:round;stroke-dasharray:none;stroke-opacity:1;paint-order:stroke markers fill"
       d="m 59.113487,243.7538 0.31168,4.46498"
       id="path25-5-6"
       sodipodi:nodetypes="cc" /><path
       style="fill:none;fill-opacity:1;stroke:#1e3050;stroke-width:2.103;stroke-linecap:round;stroke-linejoin:round;stroke-dasharray:none;stroke-opacity:1;paint-order:stroke markers fill"
       d="m 67.844707,242.48076 0.31168,4.46498"
       id="path25-5-6-8"
       sodipodi:nodetypes="cc" /><path
       style="fill:none;fill-opacity:1;stroke:#1e3050;stroke-width:2.103;stroke-linecap:round;stroke-linejoin:round;stroke-dasharray:none;stroke-opacity:1;paint-order:stroke markers fill"
       d="m 54.259837,242.65133 0.58089,5.80966"
       id="path25-7"
       sodipodi:nodetypes="cc" /><path
       style="fill:none;fill-opacity:1;stroke:#1e3050;stroke-width:2.103;stroke-linecap:round;stroke-linejoin:round;stroke-dasharray:none;stroke-opacity:1;paint-order:stroke markers fill"
       d="m 63.798637,241.36527 0.58088,5.80965"
       id="path25-7-1"
       sodipodi:nodetypes="cc" /></g></svg>
