<?xml version="1.0" encoding="UTF-8" standalone="no"?>
<!-- Created with Inkscape (http://www.inkscape.org/) -->

<svg
   width="83.446236mm"
   height="85.166061mm"
   viewBox="0 0 83.446236 85.166061"
   version="1.1"
   id="svg1"
   xml:space="preserve"
   inkscape:version="1.3.2 (091e20e, 2023-11-25, custom)"
   sodipodi:docname="vascula.svg"
   xmlns:inkscape="http://www.inkscape.org/namespaces/inkscape"
   xmlns:sodipodi="http://sodipodi.sourceforge.net/DTD/sodipodi-0.dtd"
   xmlns="http://www.w3.org/2000/svg"
   xmlns:svg="http://www.w3.org/2000/svg"><sodipodi:namedview
     id="namedview1"
     pagecolor="#ffffff"
     bordercolor="#000000"
     borderopacity="0.25"
     inkscape:showpageshadow="2"
     inkscape:pageopacity="0.0"
     inkscape:pagecheckerboard="0"
     inkscape:deskcolor="#d1d1d1"
     inkscape:document-units="mm"
     inkscape:zoom="1.0570195"
     inkscape:cx="783.80768"
     inkscape:cy="526.48035"
     inkscape:window-width="2560"
     inkscape:window-height="1017"
     inkscape:window-x="1912"
     inkscape:window-y="564"
     inkscape:window-maximized="1"
     inkscape:current-layer="layer1" /><defs
     id="defs1"><inkscape:path-effect
       effect="powerclip"
       id="path-effect2"
       is_visible="true"
       lpeversion="1"
       inverse="true"
       flatten="false"
       hide_clip="false"
       message="Use fill-rule evenodd on &lt;b&gt;fill and stroke&lt;/b&gt; dialog if no flatten result after convert clip to paths." /><clipPath
       clipPathUnits="userSpaceOnUse"
       id="clipPath2"><ellipse
         style="display:none;fill:#ffffff;fill-opacity:1;stroke:#ffffff;stroke-width:4.50583;stroke-linecap:round;stroke-linejoin:round;stroke-dasharray:none;stroke-opacity:1;paint-order:stroke markers fill"
         id="ellipse2"
         cx="86.428673"
         cy="75.86657"
         rx="18.059006"
         ry="17.276783"
         d="M 104.48768,75.86657 A 18.059006,17.276783 0 0 1 86.428673,93.143353 18.059006,17.276783 0 0 1 68.369667,75.86657 18.059006,17.276783 0 0 1 86.428673,58.589787 18.059006,17.276783 0 0 1 104.48768,75.86657 Z" /><path
         id="lpe_path-effect2"
         style="fill:#ffffff;fill-opacity:1;stroke:#ffffff;stroke-width:4.50583;stroke-linecap:round;stroke-linejoin:round;stroke-dasharray:none;stroke-opacity:1;paint-order:stroke markers fill"
         class="powerclip"
         d="m 41.228,45.537543 h 89.66211 V 132.08749 H 41.228 Z M 104.48768,75.86657 A 18.059006,17.276783 0 0 0 86.428673,58.589787 18.059006,17.276783 0 0 0 68.369667,75.86657 18.059006,17.276783 0 0 0 86.428673,93.143353 18.059006,17.276783 0 0 0 104.48768,75.86657 Z" /></clipPath></defs><g
     inkscape:label="Layer 1"
     inkscape:groupmode="layer"
     id="layer1"
     transform="translate(-11.414606,-2.8653576)"><path
       style="fill:none;fill-opacity:1;stroke:#1e3050;stroke-width:3.70343;stroke-linecap:round;stroke-linejoin:round;stroke-dasharray:none;stroke-opacity:1;paint-order:stroke markers fill"
       d="m 48.111015,117.97486 -0.0313,-48.309982 c 0.272497,-4.2265 3.957976,-7.40255 7.487016,-7.42473 l 10.600184,-0.047 c 8.472925,-10.90109 25.589182,-15.12246 40.274195,0.1108 l 10.37489,0.0268 c 3.81789,0.35848 6.95516,2.93653 7.2224,8.3988 l -0.29826,46.819982 c -0.21094,3.66598 -2.80977,7.79527 -7.92004,7.6842 l -59.486079,-0.041 c -4.319061,-0.29426 -7.778995,-3.27923 -8.223007,-7.21795 z"
       id="path1"
       sodipodi:nodetypes="cccccccccccc"
       clip-path="url(#clipPath2)"
       inkscape:path-effect="#path-effect2"
       inkscape:original-d="m 48.111015,117.97486 -0.0313,-48.309982 c 0.272497,-4.2265 3.957976,-7.40255 7.487016,-7.42473 l 10.600184,-0.047 c 8.472925,-10.90109 25.589182,-15.12246 40.274195,0.1108 l 10.37489,0.0268 c 3.81789,0.35848 6.95516,2.93653 7.2224,8.3988 l -0.29826,46.819982 c -0.21094,3.66598 -2.80977,7.79527 -7.92004,7.6842 l -59.486079,-0.041 c -4.319061,-0.29426 -7.778995,-3.27923 -8.223007,-7.21795 z"
       transform="matrix(1.0475021,0,0,1.1125553,-37.009319,-53.360452)"
       inkscape:export-filename="..\animatedIcons\Scale\scale.svg"
       inkscape:export-xdpi="96"
       inkscape:export-ydpi="96" /><ellipse
       style="fill:#1e3050;stroke-width:2.303;stroke-linecap:round;stroke-linejoin:round;paint-order:stroke markers fill"
       id="path3"
       cx="52.974388"
       cy="29.131695"
       rx="2.5343962"
       ry="2.5031075" /><rect
       style="fill:#1e3050;stroke-width:1.27902;stroke-linecap:round;stroke-linejoin:round;paint-order:stroke markers fill"
       id="rect3"
       width="11.533443"
       height="1.957929"
       x="11.470882"
       y="59.307014"
       transform="matrix(0.58903362,-0.80810853,0.76800037,0.6404494,0,0)" /><rect
       style="fill:#1e3050;stroke-width:2.303;stroke-linecap:round;stroke-linejoin:round;paint-order:stroke markers fill"
       id="rect4"
       width="0.82915431"
       height="1.9399083"
       x="52.738575"
       y="44.198566" /><rect
       style="fill:#1e3050;stroke-width:2.303;stroke-linecap:round;stroke-linejoin:round;paint-order:stroke markers fill"
       id="rect4-07"
       width="0.82915431"
       height="1.9399083"
       x="-24.218668"
       y="70.388275"
       transform="rotate(-84.529162)" /><rect
       style="fill:#1e3050;stroke-width:2.303;stroke-linecap:round;stroke-linejoin:round;paint-order:stroke markers fill"
       id="rect4-0-0"
       width="0.82915431"
       height="1.9399083"
       x="-4.341557"
       y="75.026741"
       transform="rotate(-64.706998)" /><rect
       style="fill:#1e3050;stroke-width:2.303;stroke-linecap:round;stroke-linejoin:round;paint-order:stroke markers fill"
       id="rect4-6-08"
       width="0.82915431"
       height="1.9399083"
       x="9.6792755"
       y="74.055313"
       transform="rotate(-50.081933)" /><rect
       style="fill:#1e3050;stroke-width:2.303;stroke-linecap:round;stroke-linejoin:round;paint-order:stroke markers fill"
       id="rect4-2-4"
       width="0.82915431"
       height="1.9399083"
       x="21.749268"
       y="69.224655"
       transform="rotate(-36.195839)" /><rect
       style="fill:#1e3050;stroke-width:2.303;stroke-linecap:round;stroke-linejoin:round;paint-order:stroke markers fill"
       id="rect4-1"
       width="0.82915431"
       height="1.9399083"
       x="-57.973492"
       y="-3.6150892"
       transform="rotate(-168.363)" /><rect
       style="fill:#1e3050;stroke-width:2.303;stroke-linecap:round;stroke-linejoin:round;paint-order:stroke markers fill"
       id="rect4-0-9"
       width="0.82915431"
       height="1.9399083"
       x="-61.191082"
       y="16.854424"
       transform="rotate(-148.54084)" /><rect
       style="fill:#1e3050;stroke-width:2.303;stroke-linecap:round;stroke-linejoin:round;paint-order:stroke markers fill"
       id="rect4-6-6"
       width="0.82915431"
       height="1.9399083"
       x="-60.016338"
       y="32.121944"
       transform="rotate(-133.91577)" /><rect
       style="fill:#1e3050;stroke-width:2.303;stroke-linecap:round;stroke-linejoin:round;paint-order:stroke markers fill"
       id="rect4-2-5"
       width="0.82915431"
       height="1.9399083"
       x="-55.973164"
       y="45.243202"
       transform="rotate(-120.02968)" /><rect
       style="fill:#1e3050;stroke-width:2.303;stroke-linecap:round;stroke-linejoin:round;paint-order:stroke markers fill"
       id="rect4-9"
       width="0.82915431"
       height="1.9399083"
       x="49.399181"
       y="16.307041"
       transform="rotate(-3.7230127)" /><rect
       style="fill:#1e3050;stroke-width:2.303;stroke-linecap:round;stroke-linejoin:round;paint-order:stroke markers fill"
       id="rect4-07-4"
       width="0.82915431"
       height="1.9399083"
       x="-39.089844"
       y="-31.024035"
       transform="matrix(-0.1954548,-0.98071271,-0.98071271,0.1954548,0,0)" /><rect
       style="fill:#1e3050;stroke-width:2.303;stroke-linecap:round;stroke-linejoin:round;paint-order:stroke markers fill"
       id="rect4-0-0-1"
       width="0.82915431"
       height="1.9399083"
       x="-52.720715"
       y="-15.334021"
       transform="matrix(-0.51643555,-0.85632606,-0.85632606,0.51643555,0,0)" /><rect
       style="fill:#1e3050;stroke-width:2.303;stroke-linecap:round;stroke-linejoin:round;paint-order:stroke markers fill"
       id="rect4-6-08-4"
       width="0.82915431"
       height="1.9399083"
       x="-59.947769"
       y="-1.1622616"
       transform="matrix(-0.71591847,-0.69818389,-0.69818389,0.71591847,0,0)" /><rect
       style="fill:#1e3050;stroke-width:2.303;stroke-linecap:round;stroke-linejoin:round;paint-order:stroke markers fill"
       id="rect4-2-4-3"
       width="0.82915431"
       height="1.9399083"
       x="-61.746773"
       y="19.541704"
       transform="matrix(-0.90999168,-0.41462651,-0.41462651,0.90999168,0,0)" /><rect
       style="fill:#1e3050;stroke-width:2.303;stroke-linecap:round;stroke-linejoin:round;paint-order:stroke markers fill"
       id="rect4-1-1"
       width="0.82915431"
       height="1.9399083"
       x="34.821564"
       y="-34.756081"
       transform="matrix(0.90161099,-0.43254783,-0.43254783,-0.90161099,0,0)" /><rect
       style="fill:#1e3050;stroke-width:2.303;stroke-linecap:round;stroke-linejoin:round;paint-order:stroke markers fill"
       id="rect4-0-9-6"
       width="0.82915431"
       height="1.9399083"
       x="23.450394"
       y="-40.95068"
       transform="matrix(0.79590041,-0.60542757,-0.60542757,-0.79590041,0,0)" /><rect
       style="fill:#1e3050;stroke-width:2.303;stroke-linecap:round;stroke-linejoin:round;paint-order:stroke markers fill"
       id="rect4-6-6-1"
       width="0.82915431"
       height="1.9399083"
       x="7.2872853"
       y="-45.181572"
       transform="matrix(0.6172462,-0.78677006,-0.78677006,-0.6172462,0,0)" /><rect
       style="fill:#1e3050;stroke-width:2.303;stroke-linecap:round;stroke-linejoin:round;paint-order:stroke markers fill"
       id="rect4-2-5-6"
       width="0.82915431"
       height="1.9399083"
       x="-9.1887598"
       y="-45.953453"
       transform="matrix(0.41038823,-0.91191091,-0.91191091,-0.41038823,0,0)" /><ellipse
       style="fill:none;fill-opacity:1;stroke:#1e3050;stroke-width:4.03464;stroke-linecap:round;stroke-linejoin:round;stroke-dasharray:none;stroke-opacity:1;paint-order:stroke markers fill"
       id="path5"
       cx="52.798016"
       cy="29.573242"
       rx="20.074102"
       ry="19.223394" /></g></svg>
