<?xml version="1.0" encoding="UTF-8" standalone="no"?>
<!-- Created with Inkscape (http://www.inkscape.org/) -->

<svg
   width="187.70721mm"
   height="196.40176mm"
   viewBox="0 0 187.70721 196.40176"
   version="1.1"
   id="svg1"
   xml:space="preserve"
   xmlns="http://www.w3.org/2000/svg"
   xmlns:svg="http://www.w3.org/2000/svg"><defs
     id="defs1"><rect
       x="-2460"
       y="-2840"
       width="1980"
       height="364"
       id="rect10-1" /></defs><g
     id="layer1"
     transform="translate(954.61665,428.88957)"><path
       style="fill:#013948;fill-opacity:1;stroke-width:0.553613;stroke-linecap:square;stroke-miterlimit:0;paint-order:fill markers stroke"
       d="m -929.21305,-428.85103 0.003,24.49763 136.49387,-0.0122 4.6e-4,-24.52398 z"
       id="path1-7-9-5-20-0-7-3-1-8-3-5-6-8" /><path
       style="fill:#013948;fill-opacity:1;stroke-width:0.536207;stroke-linecap:square;stroke-miterlimit:0;paint-order:fill markers stroke"
       d="m -885.94915,-398.22598 c 8.87986,0.18362 17.19673,4.59628 17.05364,14.77902 -0.0983,6.9868 -3.26237,14.32523 -16.9823,15.63599 l -42.47379,0.16097 c 19.17524,26.97467 57.63434,82.5979 57.63434,82.5979 l 33.34447,-0.0184 0.0312,-58.07428 45.47048,-0.0704 0.0243,-24.40399 -48.58474,-0.0786 c -4.66511,10.70393 -13.06639,18.39727 -21.23653,24.55397 l -0.0376,36.77729 -27.21812,-39.86639 c 17.15685,0.38744 32.16739,-8.92313 37.12872,-17.06424 5.43548,-8.91917 8.73545,-25.23368 2.12319,-34.89099 z"
       id="path1-7-9-5-1-9-1-1-5-8-8-2-7-5-9" /><text
       xml:space="preserve"
       transform="matrix(0.26458333,0,0,0.26458333,-304.67917,466.31302)"
       id="text10-3"
       style="font-size:192px;font-family:'Microsoft JhengHei';-inkscape-font-specification:'Microsoft JhengHei';text-align:start;writing-mode:lr-tb;direction:ltr;white-space:pre;shape-inside:url(#rect10-1);fill:#013948;fill-opacity:1;stroke:#013948;stroke-width:4.91339;stroke-linecap:square;stroke-linejoin:miter;stroke-miterlimit:2;stroke-dasharray:none;stroke-opacity:1;paint-order:markers fill stroke"><tspan
         x="-2460"
         y="-2645.0938"
         id="tspan1">𝙍𝙚𝙫𝙤𝙁𝙞𝙩</tspan></text></g></svg>
