<?xml version="1.0" encoding="UTF-8" standalone="no"?>
<!-- Created with Inkscape (http://www.inkscape.org/) -->

<svg
   width="171.09341mm"
   height="135.39032mm"
   viewBox="0 0 171.09341 135.39032"
   version="1.1"
   id="svg1"
   xml:space="preserve"
   xmlns:inkscape="http://www.inkscape.org/namespaces/inkscape"
   xmlns:sodipodi="http://sodipodi.sourceforge.net/DTD/sodipodi-0.dtd"
   xmlns="http://www.w3.org/2000/svg"
   xmlns:svg="http://www.w3.org/2000/svg"><sodipodi:namedview
     id="namedview1"
     pagecolor="#ffffff"
     bordercolor="#000000"
     borderopacity="0.25"
     inkscape:showpageshadow="2"
     inkscape:pageopacity="0.0"
     inkscape:pagecheckerboard="0"
     inkscape:deskcolor="#d1d1d1"
     inkscape:document-units="mm"><inkscape:page
       x="0"
       y="0"
       width="171.09341"
       height="135.39032"
       id="page2"
       margin="0"
       bleed="0" /></sodipodi:namedview><defs
     id="defs1" /><g
     inkscape:label="Layer 1"
     inkscape:groupmode="layer"
     id="layer1"
     transform="translate(395.16823,-1434.8378)"><path
       d="m -378.87832,1536.3537 c -18.96002,-28.967 -13.0751,-45.8288 0.79118,-59.7485"
       style="fill:none;stroke:#013948;stroke-width:8.501;stroke-linecap:round;stroke-miterlimit:2;stroke-dasharray:none;stroke-opacity:1;paint-order:fill markers stroke"
       id="path1-0-8-3-2-9"
       sodipodi:nodetypes="cc" /><path
       d="m -366.28497,1523.4475 c -13.23905,-11.14 -10.68842,-25.9087 -1.23392,-36.093"
       style="fill:none;stroke:#013948;stroke-width:8.501;stroke-linecap:round;stroke-miterlimit:2;stroke-dasharray:none;stroke-opacity:1;paint-order:fill markers stroke"
       id="path1-0-8-9-8"
       sodipodi:nodetypes="cc" /><path
       d="m -240.36471,1536.3035 c 18.96002,-28.967 13.0751,-45.8288 -0.79118,-59.7485"
       style="fill:none;stroke:#013948;stroke-width:8.501;stroke-linecap:round;stroke-miterlimit:2;stroke-dasharray:none;stroke-opacity:1;paint-order:fill markers stroke"
       id="path1-0-8-3-2"
       sodipodi:nodetypes="cc" /><path
       d="m -252.95806,1523.3973 c 13.23905,-11.14 10.68842,-25.9087 1.23392,-36.093"
       style="fill:none;stroke:#013948;stroke-width:8.501;stroke-linecap:round;stroke-miterlimit:2;stroke-dasharray:none;stroke-opacity:1;paint-order:fill markers stroke"
       id="path1-0-8-9"
       sodipodi:nodetypes="cc" /><path
       style="fill:#013948;fill-opacity:1;stroke:#013948;stroke-width:8.501;stroke-linecap:round;stroke-linejoin:round;stroke-miterlimit:2;stroke-dasharray:none;stroke-opacity:1;paint-order:fill markers stroke"
       d="m -359.89516,1538.9798 100.23564,-0.7166 -12.59049,-18.2229 -0.62095,-42.1371 c -1.76549,-12.876 -10.42499,-22.9703 -31.22581,-28.1654 l -0.0444,-7.4516 c 10e-4,-3.2314 -8.52244,-5.1756 -9.85699,0 l -0.28135,7.4264 c -11.03172,1.0904 -31.88708,18.8343 -31.84418,32.029 0.008,2.5832 -1.44085,38.3887 -1.44085,38.3887 z"
       id="path6"
       sodipodi:nodetypes="ccccccccscc" /><path
       style="fill:#013948;fill-opacity:1;stroke:#013948;stroke-width:8.50101;stroke-linecap:round;stroke-linejoin:round;stroke-miterlimit:2;stroke-dasharray:none;stroke-opacity:1;paint-order:fill markers stroke"
       d="m -325.44813,1551.6155 c 0.64919,18.8175 31.11581,19.5634 32.30453,-0.2509 z"
       id="path7"
       sodipodi:nodetypes="ccc" /></g></svg>
