<?xml version="1.0" encoding="UTF-8" standalone="no"?>
<!-- Created with Inkscape (http://www.inkscape.org/) -->

<svg
   width="91.442688mm"
   height="28.410622mm"
   viewBox="0 0 91.442688 28.410622"
   version="1.1"
   id="svg1"
   xml:space="preserve"
   inkscape:version="1.3.2 (091e20e, 2023-11-25, custom)"
   sodipodi:docname="drawing.svg"
   xmlns:inkscape="http://www.inkscape.org/namespaces/inkscape"
   xmlns:sodipodi="http://sodipodi.sourceforge.net/DTD/sodipodi-0.dtd"
   xmlns="http://www.w3.org/2000/svg"
   xmlns:svg="http://www.w3.org/2000/svg"><sodipodi:namedview
     id="namedview1"
     pagecolor="#ffffff"
     bordercolor="#000000"
     borderopacity="0.25"
     inkscape:showpageshadow="2"
     inkscape:pageopacity="0.0"
     inkscape:pagecheckerboard="0"
     inkscape:deskcolor="#d1d1d1"
     inkscape:document-units="mm"
     inkscape:zoom="1.0570195"
     inkscape:cx="606.89514"
     inkscape:cy="894.49627"
     inkscape:window-width="2560"
     inkscape:window-height="1017"
     inkscape:window-x="1912"
     inkscape:window-y="564"
     inkscape:window-maximized="1"
     inkscape:current-layer="layer1"
     showgrid="true"><inkscape:grid
       id="grid30"
       units="mm"
       originx="-103.93516"
       originy="-201.31115"
       spacingx="0.99999998"
       spacingy="1"
       empcolor="#0099e5"
       empopacity="0.30196078"
       color="#0099e5"
       opacity="0.14901961"
       empspacing="5"
       dotted="false"
       gridanglex="30"
       gridanglez="30"
       visible="true" /></sodipodi:namedview><defs
     id="defs1" /><g
     inkscape:label="Layer 1"
     inkscape:groupmode="layer"
     id="layer1"
     transform="translate(-103.93516,-201.31115)"><path
       style="fill:none;stroke:#95fc04;stroke-width:1.503;stroke-linecap:square;stroke-linejoin:miter;stroke-dasharray:none;paint-order:stroke markers fill"
       d="m 178.85101,209.57467 c -2.95705,-2.7281 -14.32391,2.55547 -15.9289,2.9279 -3.33145,0.65728 -3.09656,2.08779 -2.8343,3.78259 0.72391,4.90926 0.93086,5.91713 1.74405,10.93797 0.07,0.47263 -0.001,1.66321 0.9071,1.72571 0.70081,0.0482 8.29671,0 8.29671,0 0.30327,-0.19079 1.10713,-0.99961 0.34551,-1.46538 -1.10631,-0.67656 -4.40845,-1.17707 -6.26619,-1.66649 l -0.32714,-9.2514 -1.92373,3e-4 c 0.55653,-0.037 8.60407,-0.0164 13.57133,-1.34198 1.9769,-1.75557 3.31573,-3.63757 2.41556,-5.64922 z"
       id="path1-56"
       sodipodi:nodetypes="ccccscsccccc" /><path
       style="fill:none;stroke:#95fc04;stroke-width:1.503;stroke-linecap:round;stroke-linejoin:round;stroke-dasharray:none;paint-order:stroke markers fill"
       d="m 129.12275,218.4038 c -3.71773,-0.37707 -9.53134,0.9918 -16.21083,1.28927 -3.07652,3.90872 -5.22447,4.27218 -5.48122,6.73684 0.79428,1.69183 -1.562,4.23221 -2.49343,0.99319 -0.8584,-2.2191 0.72896,-4.44849 1.06872,-5.4636 0.30877,-0.92251 0.16367,-2.11017 0.22523,-3.02304 -0.13089,-1.34049 0.0271,-1.86643 3.96605,-0.93291 3.3297,-2.11159 13.49226,-4.98431 19.0716,-4.35029"
       id="path23-3"
       sodipodi:nodetypes="ccccsccc" /><path
       style="fill:none;fill-opacity:1;stroke:#95fc04;stroke-width:1.503;stroke-linecap:round;stroke-linejoin:miter;stroke-dasharray:none;stroke-opacity:1;paint-order:stroke markers fill"
       d="m 129.43969,213.61255 0.002,4.72504 c 9.54886,3.02417 15.83786,-0.80528 24.06393,-0.31688 l 0.10812,-7.28055 c -6.22604,-5.87355 -9.00005,-0.60004 -11.79424,0.26909 -4.2522,1.09704 -10.31685,3.22106 -12.37971,2.6033 z"
       id="path31"
       sodipodi:nodetypes="cccccc" /><path
       style="fill:none;fill-opacity:1;stroke:#95fc04;stroke-width:1.503;stroke-linecap:square;stroke-linejoin:miter;stroke-dasharray:none;stroke-opacity:1;paint-order:stroke markers fill"
       d="m 165.35838,219.55158 c 6.40029,1.31374 5.21447,0.58617 10.89167,-4.22177"
       id="path32"
       sodipodi:nodetypes="cc" /><path
       style="fill:none;fill-opacity:1;stroke:#95fc04;stroke-width:1.503;stroke-linecap:square;stroke-linejoin:miter;stroke-dasharray:none;stroke-opacity:1;paint-order:stroke markers fill"
       d="m 153.90981,210.69906 c 1.44782,0.57382 2.96478,0.75868 4.64766,0.0103 17.87341,-6.19918 19.96555,-2.86371 20.45673,-1.04914"
       id="path33"
       sodipodi:nodetypes="ccc" /><path
       style="fill:none;fill-opacity:1;stroke:#95fc04;stroke-width:1.503;stroke-linecap:square;stroke-linejoin:miter;stroke-dasharray:none;stroke-opacity:1;paint-order:stroke markers fill"
       d="m 153.62822,217.92678 c 0.0521,0 0.10429,0 0.15644,0"
       id="path34" /><path
       style="fill:none;fill-opacity:1;stroke:#95fc04;stroke-width:1.503;stroke-linecap:square;stroke-linejoin:miter;stroke-dasharray:none;stroke-opacity:1;paint-order:stroke markers fill"
       d="m 160.13629,219.39736 c -1.76205,-0.7465 -2.9989,-0.99661 -5.87384,-1.34162"
       id="path35"
       sodipodi:nodetypes="cc" /><path
       style="fill:none;fill-opacity:1;stroke:#95fc04;stroke-width:1.503;stroke-linecap:square;stroke-linejoin:miter;stroke-dasharray:none;stroke-opacity:1;paint-order:stroke markers fill"
       d="m 158.46123,211.84286 -0.36597,6.4916"
       id="path36"
       sodipodi:nodetypes="cc" /><path
       style="fill:none;fill-opacity:1;stroke:#95fc04;stroke-width:1.503;stroke-linecap:square;stroke-linejoin:miter;stroke-dasharray:none;stroke-opacity:1;paint-order:stroke markers fill"
       d="m 177.25384,214.94518 3.94267,0.16528"
       id="path37"
       sodipodi:nodetypes="cc" /><path
       style="fill:none;fill-opacity:1;stroke:#95fc04;stroke-width:1.503;stroke-linecap:square;stroke-linejoin:miter;stroke-dasharray:none;stroke-opacity:1;paint-order:stroke markers fill"
       d="m 179.41022,210.6052 1.65831,0.15644"
       id="path38" /><path
       style="fill:none;fill-opacity:1;stroke:#95fc04;stroke-width:1.503;stroke-linecap:square;stroke-linejoin:miter;stroke-dasharray:none;stroke-opacity:1;paint-order:stroke markers fill"
       d="m 183.86685,208.10209 c 3.01221,2.18088 5.89414,4.68748 8.79309,7.15153"
       id="path39"
       sodipodi:nodetypes="cc" /><path
       style="fill:none;fill-opacity:1;stroke:#95fc04;stroke-width:1.503;stroke-linecap:square;stroke-linejoin:miter;stroke-dasharray:none;stroke-opacity:1;paint-order:stroke markers fill"
       d="m 186.8241,205.52187 c 0.44702,-5.85061 7.05178,-3.37552 5.63357,0.73418"
       id="path40"
       sodipodi:nodetypes="cc" /><path
       style="fill:none;fill-opacity:1;stroke:#95fc04;stroke-width:1.503;stroke-linecap:square;stroke-linejoin:miter;stroke-dasharray:none;stroke-opacity:1;paint-order:stroke markers fill"
       d="m 190.2269,216.51087 -1.50447,1.76996 -1.23897,-1.06197 c -5.83101,2.78269 -8.80188,-5.92685 -3.01898,-9.99329 3.33233,-2.34324 6.05451,-1.68643 8.09077,-0.0388 2.8008,2.2662 3.40559,8.20216 -2.32835,9.32413 z"
       id="path41"
       sodipodi:nodetypes="cccssc" /></g></svg>
