<?xml version="1.0" encoding="UTF-8" standalone="no"?>
<svg
   width="31"
   height="31"
   viewBox="0 0 31 31"
   fill="none"
   version="1.1"
   id="svg2"
   sodipodi:docname="lockIcon.svg"
   inkscape:version="1.3.2 (091e20e, 2023-11-25, custom)"
   xmlns:inkscape="http://www.inkscape.org/namespaces/inkscape"
   xmlns:sodipodi="http://sodipodi.sourceforge.net/DTD/sodipodi-0.dtd"
   xmlns="http://www.w3.org/2000/svg"
   xmlns:svg="http://www.w3.org/2000/svg">
  <defs
     id="defs2" />
  <sodipodi:namedview
     id="namedview2"
     pagecolor="#ffffff"
     bordercolor="#000000"
     borderopacity="0.25"
     inkscape:showpageshadow="2"
     inkscape:pageopacity="0.0"
     inkscape:pagecheckerboard="0"
     inkscape:deskcolor="#d1d1d1"
     showgrid="false"
     inkscape:zoom="11.313709"
     inkscape:cx="14.097941"
     inkscape:cy="4.8171647"
     inkscape:window-width="2560"
     inkscape:window-height="1017"
     inkscape:window-x="1912"
     inkscape:window-y="564"
     inkscape:window-maximized="1"
     inkscape:current-layer="svg2"
     showguides="false" />
  <path
     style="fill:#ace2e4;fill-opacity:1;stroke-width:19.2491;stroke-linecap:round"
     d="m 15.569568,0.06252309 c 13.133628,0.053833 15.543569,12.26013291 15.483816,15.06706191 -0.131686,6.186024 -2.970697,10.554113 -6.732134,13.196666 -3.021842,2.122959 -6.64391,2.793683 -8.625069,2.722362 -0.121827,-0.0044 -0.05968,-4.41148 0.137284,-7.153809 7.68899,-0.02616 -2.521338,0.0067 5.152359,-0.0062 0.763406,-0.02047 0.949885,-0.642893 0.950179,-1.010787 l 0.0069,-8.595587 C 21.910393,13.495671 21.181265,13.365047 20.988722,13.360239 21.204015,8.8470587 17.617181,6.357274 15.527929,6.4245486 11.725921,6.5469746 10.155914,9.588458 9.9309966,13.346291 l 2.0559094,0.01483 6.949963,0.01 c 0.09814,-1.082773 -0.456722,-4.9366217 -3.597213,-4.9279677 -2.985074,0.00823 -3.297906,4.2175147 -3.352935,4.9195027 l -2.0564184,-0.01659 c -0.3618226,0.04197 -0.5549647,0.09837 -0.7228171,0.246629 -0.205841,0.181815 -0.3226573,0.444868 -0.3218661,0.626092 l 0.038458,8.80863 c -0.00257,0.372474 0.309628,0.866415 0.9001924,0.86579 l 6.0077262,-0.0064 c -0.08326,3.884279 0.07349,6.944865 -0.143257,7.153287 C 4.6046832,30.938019 -0.23515647,21.34758 0.07661053,15.377858 0.25153553,12.028403 0.87744353,8.2281601 5.1033685,4.1282497 7.4526405,1.8490319 11.311941,0.05509289 15.569568,0.06252309 Z"
     id="path2"
     sodipodi:nodetypes="csssccsccscccsccsscsccssc" />
</svg>
